# This file uses centimeters as units for non-parametric coordinates.

mtllib ammo.mtl
g default
v 0.448700 -0.293848 0.005337
v 0.448700 -0.293848 -0.420572
v 0.448700 0.456056 0.005337
v 0.448700 0.456056 -0.420572
v -0.673151 0.456056 0.005337
v -0.673151 0.456056 -0.420572
v -0.673151 -0.293848 0.005337
v -0.673151 -0.293848 -0.420572
vt 0.465948 0.456686
vt 0.532164 0.456686
vt 0.532164 0.544523
vt 0.465948 0.544523
vt 0.012865 0.546753
vt 0.262865 0.546753
vt 0.262865 0.796753
vt 0.012865 0.796753
vt 0.536509 0.544274
vt 0.466689 0.544274
vt 0.466689 0.459845
vt 0.536509 0.459845
vt 0.608067 1.341810
vt 0.858067 1.341810
vt 0.858067 1.591810
vt 0.608067 1.591810
vt 0.231598 0.846491
vt 0.564481 0.846491
vt 0.564481 0.999193
vt 0.231598 0.999193
vt 0.235086 0.849034
vt 0.563170 0.849034
vt 0.563170 1.001737
vt 0.235086 1.001737
vn 1.000000 0.000000 0.000000
vn 1.000000 0.000000 0.000000
vn 1.000000 0.000000 0.000000
vn 1.000000 0.000000 0.000000
vn 0.000000 1.000000 0.000000
vn 0.000000 1.000000 0.000000
vn 0.000000 1.000000 0.000000
vn 0.000000 1.000000 0.000000
vn -1.000000 0.000000 -0.000000
vn -1.000000 0.000000 -0.000000
vn -1.000000 0.000000 -0.000000
vn -1.000000 0.000000 -0.000000
vn 0.000000 -1.000000 0.000000
vn 0.000000 -1.000000 0.000000
vn 0.000000 -1.000000 0.000000
vn 0.000000 -1.000000 0.000000
vn 0.000000 0.000000 -1.000000
vn 0.000000 0.000000 -1.000000
vn 0.000000 0.000000 -1.000000
vn 0.000000 0.000000 -1.000000
vn -0.000000 0.000000 1.000000
vn -0.000000 0.000000 1.000000
vn -0.000000 0.000000 1.000000
vn -0.000000 0.000000 1.000000
s off
g pCube1
usemtl initialShadingGroup
f 1/1/1 2/2/2 4/3/3 3/4/4
f 3/5/5 4/6/6 6/7/7 5/8/8
f 5/9/9 6/10/10 8/11/11 7/12/12
f 7/13/13 8/14/14 2/15/15 1/16/16
f 2/17/17 8/18/18 6/19/19 4/20/20
f 7/21/21 1/22/22 3/23/23 5/24/24
