# This file uses centimeters as units for non-parametric coordinates.

mtllib Arm.mtl
g default
v -0.025000 -0.025000 0.025000
v 0.025000 -0.025000 0.025000
v -0.025000 0.025000 0.025000
v 0.025000 0.025000 0.025000
v -0.025000 0.025000 -0.025000
v 0.025000 0.025000 -0.025000
v -0.025000 -0.025000 -0.025000
v 0.025000 -0.025000 -0.025000
v -0.025000 -0.175000 -0.025000
v 0.025000 -0.175000 -0.025000
v 0.025000 -0.175000 0.025000
v -0.025000 -0.175000 0.025000
vt 0.656953 0.476027
vt 0.906953 0.476027
vt 0.656953 0.726027
vt 0.906953 0.726027
vt 0.656953 0.476027
vt 0.906953 0.476027
vt 0.906953 0.726027
vt 0.656953 0.726027
vt 0.341347 0.368074
vt 0.428644 0.368074
vt 0.428644 0.455371
vt 0.341347 0.455371
vt 0.430452 0.368074
vt 0.517749 0.368074
vt 0.517749 0.455371
vt 0.430452 0.455371
vt 0.498743 0.456352
vt 0.586040 0.456352
vt 0.586040 0.543648
vt 0.498743 0.543648
vt 0.409939 0.456352
vt 0.497235 0.456352
vt 0.497235 0.543648
vt 0.409939 0.543648
vt 0.341347 0.544629
vt 0.428644 0.544629
vt 0.428644 0.631926
vt 0.341347 0.631926
vn 0.000000 0.000000 1.000000
vn 0.000000 0.000000 1.000000
vn 0.000000 0.000000 1.000000
vn 0.000000 0.000000 1.000000
vn 0.000000 1.000000 0.000000
vn 0.000000 1.000000 0.000000
vn 0.000000 1.000000 0.000000
vn 0.000000 1.000000 0.000000
vn 0.000000 0.000000 -1.000000
vn 0.000000 0.000000 -1.000000
vn 0.000000 0.000000 -1.000000
vn 0.000000 0.000000 -1.000000
vn 1.000000 0.000000 0.000000
vn 1.000000 0.000000 0.000000
vn 1.000000 0.000000 0.000000
vn 1.000000 0.000000 0.000000
vn -1.000000 0.000000 0.000000
vn -1.000000 0.000000 0.000000
vn -1.000000 0.000000 0.000000
vn -1.000000 0.000000 0.000000
vn 0.000000 0.000000 -1.000000
vn 0.000000 0.000000 -1.000000
vn 1.000000 0.000000 0.000000
vn 1.000000 0.000000 0.000000
vn 0.000000 0.000000 1.000000
vn 0.000000 0.000000 1.000000
vn -1.000000 0.000000 0.000000
vn -1.000000 0.000000 0.000000
vn 0.000000 -1.000000 0.000000
vn 0.000000 -1.000000 0.000000
vn 0.000000 -1.000000 0.000000
vn 0.000000 -1.000000 0.000000
s 1
g pCube1
usemtl lambert2SG
f 1/9/1 2/10/2 4/11/3 3/12/4
s off
f 3/13/5 4/14/6 6/15/7 5/16/8
s 2
f 5/17/9 6/18/10 8/19/11 7/20/12
s 3
f 2/21/13 8/22/14 6/23/15 4/24/16
s 4
f 7/25/17 1/26/18 3/27/19 5/28/20
s 2
f 7/1/12 8/2/11 10/6/21 9/5/22
s 3
f 8/2/14 2/4/13 11/7/23 10/6/24
s 1
f 2/4/2 1/3/1 12/8/25 11/7/26
s 4
f 1/3/18 7/1/17 9/5/27 12/8/28
s off
f 9/5/29 10/6/30 11/7/31 12/8/32
