# This file uses centimeters as units for non-parametric coordinates.

mtllib Board.mtl
g default
v -0.250000 -1.092767 2.500000
v 0.250000 -1.092767 2.500000
v -0.250000 1.092767 2.500000
v 0.250000 1.092767 2.500000
v -0.250000 1.092767 -2.500000
v 0.250000 1.092767 -2.500000
v -0.250000 -1.092767 -2.500000
v 0.250000 -1.092767 -2.500000
vt 0.512673 0.372285
vt 0.514594 0.372285
vt 0.514594 0.383810
vt 0.512673 0.383810
vt 0.484909 0.372285
vt 0.486830 0.372285
vt 0.486830 0.391494
vt 0.484909 0.391494
vt 0.513170 0.383931
vt 0.515091 0.383931
vt 0.515091 0.395457
vt 0.513170 0.395457
vt 0.487041 0.372285
vt 0.488962 0.372285
vt 0.488962 0.391494
vt 0.487041 0.391494
vt 0.051018 0.005176
vt 1.002192 0.005176
vt 1.002192 0.575880
vt 0.051018 0.575880
vt 0.051018 0.487278
vt 1.002192 0.487278
vt 1.002192 1.057982
vt 0.051018 1.057982
vn 0.000000 0.000000 1.000000
vn 0.000000 0.000000 1.000000
vn 0.000000 0.000000 1.000000
vn 0.000000 0.000000 1.000000
vn 0.000000 1.000000 0.000000
vn 0.000000 1.000000 0.000000
vn 0.000000 1.000000 0.000000
vn 0.000000 1.000000 0.000000
vn 0.000000 0.000000 -1.000000
vn 0.000000 0.000000 -1.000000
vn 0.000000 0.000000 -1.000000
vn 0.000000 0.000000 -1.000000
vn 0.000000 -1.000000 0.000000
vn 0.000000 -1.000000 0.000000
vn 0.000000 -1.000000 0.000000
vn 0.000000 -1.000000 0.000000
vn 1.000000 0.000000 0.000000
vn 1.000000 0.000000 0.000000
vn 1.000000 0.000000 0.000000
vn 1.000000 0.000000 0.000000
vn -1.000000 0.000000 0.000000
vn -1.000000 0.000000 0.000000
vn -1.000000 0.000000 0.000000
vn -1.000000 0.000000 0.000000
s 1
g pCube1
usemtl lambert2SG
f 1/1/1 2/2/2 3/4/3
f 3/4/3 2/2/2 4/3/4
s 2
f 3/5/5 4/6/6 5/8/7
f 5/8/7 4/6/6 6/7/8
s 3
f 5/9/9 6/10/10 7/12/11
f 7/12/11 6/10/10 8/11/12
s 4
f 7/13/13 8/14/14 1/16/15
f 1/16/15 8/14/14 2/15/16
s 5
f 2/17/17 8/18/18 4/20/19
f 4/20/19 8/18/18 6/19/20
s 6
f 7/21/21 1/22/22 5/24/23
f 5/24/23 1/22/22 3/23/24
