# This file uses centimeters as units for non-parametric coordinates.

mtllib body.mtl
g default
v -0.959624 2.369975 0.502833
v 0.998574 2.369975 0.490929
v -0.959624 4.995578 0.502833
v 0.998574 4.995578 0.490929
v -0.965340 4.995578 -0.437541
v 0.992858 4.995578 -0.449445
v -0.965340 2.369975 -0.437541
v 0.992858 2.369975 -0.449445
vt 0.315084 0.499562
vt 0.435723 0.499562
vt 0.435723 0.687985
vt 0.315084 0.687985
vt 0.435918 0.499056
vt 0.498908 0.499056
vt 0.498908 0.687328
vt 0.435918 0.687328
vt 0.313736 0.497161
vt 0.250484 0.497161
vt 0.250484 0.687208
vt 0.313736 0.687208
vt 0.503533 0.687048
vt 0.628159 0.687048
vt 0.628159 0.497320
vt 0.503533 0.497320
vt 0.318137 0.689512
vt 0.437984 0.690251
vt 0.437635 0.748662
vt 0.317788 0.747923
vt 0.440544 0.749232
vt 0.559110 0.750005
vt 0.559456 0.688942
vt 0.440890 0.688169
vn 0.006079 0.000000 0.999982
vn 0.006079 0.000000 0.999982
vn 0.006079 0.000000 0.999982
vn 0.006079 0.000000 0.999982
vn 0.000000 1.000000 0.000000
vn 0.000000 1.000000 0.000000
vn 0.000000 1.000000 0.000000
vn 0.000000 1.000000 0.000000
vn -0.006079 0.000000 -0.999982
vn -0.006079 0.000000 -0.999982
vn -0.006079 0.000000 -0.999982
vn -0.006079 0.000000 -0.999982
vn 0.000000 -1.000000 0.000000
vn 0.000000 -1.000000 0.000000
vn 0.000000 -1.000000 0.000000
vn 0.000000 -1.000000 0.000000
vn 0.999982 0.000000 -0.006079
vn 0.999982 0.000000 -0.006079
vn 0.999982 0.000000 -0.006079
vn 0.999982 0.000000 -0.006079
vn -0.999982 0.000000 0.006079
vn -0.999982 0.000000 0.006079
vn -0.999982 0.000000 0.006079
vn -0.999982 0.000000 0.006079
s off
g SP2Charmodel:pCube3
usemtl lambert2SG
f 1/1/1 2/2/2 4/3/3 3/4/4
f 3/17/5 4/18/6 6/19/7 5/20/8
f 5/13/9 6/14/10 8/15/11 7/16/12
f 7/21/13 8/22/14 2/23/15 1/24/16
f 2/5/17 8/6/18 6/7/19 4/8/20
f 7/9/21 1/10/22 3/11/23 5/12/24
