# This file uses centimeters as units for non-parametric coordinates.

mtllib Building04.mtl
g default
v -83.798576 0.058741 33.507519
v 83.798576 0.058741 33.507519
v -83.798576 117.376755 33.507519
v 83.798576 117.376755 33.507519
v -83.798576 117.376755 -33.531345
v 83.798576 117.376755 -33.531345
v -83.798576 0.058741 -33.531345
v 83.798576 0.058741 -33.531345
vt 0.008660 0.522347
vt 0.770649 0.523163
vt 0.769997 0.991176
vt 0.008008 0.990360
vt 0.204923 0.509652
vt 0.204923 0.013634
vt 0.403331 0.013634
vt 0.403331 0.509652
vt 0.389285 0.513243
vt 0.389285 0.017224
vt 0.736498 0.017224
vt 0.736498 0.513243
vt 0.016057 0.511800
vt 0.016057 0.015781
vt 0.214464 0.015781
vt 0.214464 0.511800
vt 0.748869 0.008331
vt 0.991873 0.008331
vt 0.991873 0.514397
vt 0.748869 0.514397
vt 0.748540 0.009279
vt 0.991908 0.009279
vt 0.991908 0.513820
vt 0.748540 0.513820
vn 0.000000 0.000000 1.000000
vn 0.000000 0.000000 1.000000
vn 0.000000 0.000000 1.000000
vn 0.000000 0.000000 1.000000
vn 0.000000 1.000000 0.000000
vn 0.000000 1.000000 0.000000
vn 0.000000 1.000000 0.000000
vn 0.000000 1.000000 0.000000
vn 0.000000 0.000000 -1.000000
vn 0.000000 0.000000 -1.000000
vn 0.000000 0.000000 -1.000000
vn 0.000000 0.000000 -1.000000
vn 0.000000 -1.000000 0.000000
vn 0.000000 -1.000000 0.000000
vn 0.000000 -1.000000 0.000000
vn 0.000000 -1.000000 0.000000
vn 1.000000 0.000000 0.000000
vn 1.000000 0.000000 0.000000
vn 1.000000 0.000000 0.000000
vn 1.000000 0.000000 0.000000
vn -1.000000 0.000000 0.000000
vn -1.000000 0.000000 0.000000
vn -1.000000 0.000000 0.000000
vn -1.000000 0.000000 0.000000
s 1
g Building04:pCube1
usemtl initialShadingGroup
f 1/1/1 2/2/2 3/4/3
f 3/4/3 2/2/2 4/3/4
s 2
f 3/5/5 4/6/6 5/8/7
f 5/8/7 4/6/6 6/7/8
s 3
f 5/9/9 6/10/10 7/12/11
f 7/12/11 6/10/10 8/11/12
s 4
f 7/13/13 8/14/14 1/16/15
f 1/16/15 8/14/14 2/15/16
s 5
f 2/17/17 8/18/18 4/20/19
f 4/20/19 8/18/18 6/19/20
s 6
f 7/21/21 1/22/22 5/24/23
f 5/24/23 1/22/22 3/23/24
