# This file uses centimeters as units for non-parametric coordinates.

mtllib Building01.mtl
g default
v -13.738957 0.000789 9.797441
v 14.730257 0.000789 9.797441
v -13.738957 56.939207 9.797441
v 14.730257 56.939207 9.797441
v -13.738957 56.939207 -10.131008
v 14.730257 56.939207 -10.131008
v -13.738957 0.000789 -10.131008
v 14.730257 0.000789 -10.131008
vt 0.277710 0.016790
vt 0.739664 0.016086
vt 0.739684 0.982785
vt 0.276416 0.980914
vt -0.186255 -0.020611
vt -0.186255 -0.268772
vt -0.012542 -0.268772
vt -0.012542 -0.020611
vt -0.177586 0.496817
vt 0.070575 0.496817
vt 0.070575 0.993140
vt -0.177586 0.993140
vt -0.189033 -0.277044
vt -0.189033 -0.525206
vt -0.015320 -0.525206
vt -0.015320 -0.277044
vt 0.275230 0.009038
vt 0.581333 0.008439
vt 0.581648 0.974374
vt 0.273986 0.973578
vt 0.428671 0.022226
vt 0.736703 0.022611
vt 0.737467 0.989632
vt 0.433886 0.987671
vn 0.000000 0.000000 1.000000
vn 0.000000 0.000000 1.000000
vn 0.000000 0.000000 1.000000
vn 0.000000 0.000000 1.000000
vn 0.000000 1.000000 0.000000
vn 0.000000 1.000000 0.000000
vn 0.000000 1.000000 0.000000
vn 0.000000 1.000000 0.000000
vn 0.000000 0.000000 -1.000000
vn 0.000000 0.000000 -1.000000
vn 0.000000 0.000000 -1.000000
vn 0.000000 0.000000 -1.000000
vn 0.000000 -1.000000 0.000000
vn 0.000000 -1.000000 0.000000
vn 0.000000 -1.000000 0.000000
vn 0.000000 -1.000000 0.000000
vn 1.000000 0.000000 0.000000
vn 1.000000 0.000000 0.000000
vn 1.000000 0.000000 0.000000
vn 1.000000 0.000000 0.000000
vn -1.000000 0.000000 0.000000
vn -1.000000 0.000000 0.000000
vn -1.000000 0.000000 0.000000
vn -1.000000 0.000000 0.000000
s 1
g pCube1
usemtl initialShadingGroup
f 1/1/1 2/2/2 3/4/3
f 3/4/3 2/2/2 4/3/4
s 2
f 3/5/5 4/6/6 5/8/7
f 5/8/7 4/6/6 6/7/8
s 3
f 5/9/9 6/10/10 7/12/11
f 7/12/11 6/10/10 8/11/12
s 4
f 7/13/13 8/14/14 1/16/15
f 1/16/15 8/14/14 2/15/16
s 5
f 2/17/17 8/18/18 4/20/19
f 4/20/19 8/18/18 6/19/20
s 6
f 7/21/21 1/22/22 5/24/23
f 5/24/23 1/22/22 3/23/24
