# This file uses centimeters as units for non-parametric coordinates.

mtllib cerealbox1.mtl
g default
v -0.161205 -0.787755 0.518242
v 0.161205 -0.787755 0.518242
v -0.161205 0.787750 0.518242
v 0.161205 0.787750 0.518242
v -0.161205 0.787750 -0.518242
v 0.161205 0.787750 -0.518242
v -0.161205 -0.787755 -0.518242
v 0.161205 -0.787755 -0.518242
vt 0.101068 0.191401
vt 0.500334 0.191401
vt 0.500334 0.773822
vt 0.101068 0.773822
vt 0.100372 0.889723
vt 0.100372 0.775498
vt 0.501030 0.775498
vt 0.501030 0.889723
vt -0.002094 0.151242
vt 0.099676 0.151242
vt 0.099676 0.841624
vt -0.002094 0.841624
vt 0.499585 0.840010
vt 0.600287 0.840010
vt 0.600287 0.152857
vt 0.499585 0.152857
vt 0.600640 0.197186
vt 0.998594 0.197186
vt 0.998594 0.132242
vt 0.600640 0.132242
vt 0.999190 0.199466
vt 0.599218 0.199466
vt 0.599218 0.782400
vt 0.999190 0.782400
vn 0.000000 0.000000 1.000000
vn 0.000000 0.000000 1.000000
vn 0.000000 0.000000 1.000000
vn 0.000000 0.000000 1.000000
vn 0.000000 1.000000 0.000000
vn 0.000000 1.000000 0.000000
vn 0.000000 1.000000 0.000000
vn 0.000000 1.000000 0.000000
vn 0.000000 0.000000 -1.000000
vn 0.000000 0.000000 -1.000000
vn 0.000000 0.000000 -1.000000
vn 0.000000 0.000000 -1.000000
vn 0.000000 -1.000000 0.000000
vn 0.000000 -1.000000 0.000000
vn 0.000000 -1.000000 0.000000
vn 0.000000 -1.000000 0.000000
vn 1.000000 0.000000 0.000000
vn 1.000000 0.000000 0.000000
vn 1.000000 0.000000 0.000000
vn 1.000000 0.000000 0.000000
vn -1.000000 0.000000 0.000000
vn -1.000000 0.000000 0.000000
vn -1.000000 0.000000 0.000000
vn -1.000000 0.000000 0.000000
s off
g pCube5
usemtl lambert4SG
f 1/9/1 2/10/2 4/11/3 3/12/4
f 3/5/5 4/6/6 6/7/7 5/8/8
f 5/13/9 6/14/10 8/15/11 7/16/12
f 7/17/13 8/18/14 2/19/15 1/20/16
f 2/1/17 8/2/18 6/3/19 4/4/20
f 7/21/21 1/22/22 3/23/23 5/24/24
