# This file uses centimeters as units for non-parametric coordinates.

mtllib FerreroRocher.mtl
g default
v -0.702034 -0.698748 -0.120242
v 0.704649 -0.698748 -0.103825
v -0.704649 -0.698748 0.103825
v 0.702034 -0.698748 0.120242
v -0.704649 0.699032 0.103825
v 0.702034 0.699032 0.120242
v -0.702034 0.699032 -0.120242
v 0.704649 0.699032 -0.103825
vt 0.251660 0.301856
vt 0.872960 0.301856
vt 0.251660 0.360761
vt 0.872960 0.360761
vt 0.024911 0.393249
vt 0.694628 0.393249
vt 0.024911 0.972309
vt 0.694628 0.972309
vt 0.814119 0.361320
vt 0.252750 0.361320
vt 0.814119 0.301297
vt 0.814119 0.301297
vt 0.252750 0.361320
vt 0.252750 0.301297
vt 0.970772 0.278334
vt 0.684746 0.278310
vt 0.970789 0.088851
vt 0.684764 0.088827
vt 0.256737 0.299810
vt 0.867882 0.299810
vt 0.256737 0.362807
vt 0.867882 0.362807
vt 0.260498 0.303042
vt 0.782055 0.303042
vt 0.260498 0.359575
vt 0.260498 0.359575
vt 0.782055 0.303042
vt 0.782055 0.359575
vn 0.000000 -1.000000 0.000000
vn 0.000000 -1.000000 0.000000
vn 0.000000 -1.000000 0.000000
vn 0.000000 -1.000000 0.000000
vn 0.000000 -1.000000 0.000000
vn 0.000000 -1.000000 0.000000
vn -0.011670 0.000000 0.999932
vn -0.011670 0.000000 0.999932
vn -0.011670 0.000000 0.999932
vn -0.011670 0.000000 0.999932
vn -0.011670 0.000000 0.999932
vn -0.011670 0.000000 0.999932
vn 0.000000 1.000000 0.000000
vn 0.000000 1.000000 0.000000
vn 0.000000 1.000000 0.000000
vn 0.000000 1.000000 0.000000
vn 0.000000 1.000000 0.000000
vn 0.000000 1.000000 0.000000
vn 0.011670 0.000000 -0.999932
vn 0.011670 0.000000 -0.999932
vn 0.011670 0.000000 -0.999932
vn 0.011670 0.000000 -0.999932
vn 0.011670 0.000000 -0.999932
vn 0.011670 0.000000 -0.999932
vn 0.999932 0.000000 0.011670
vn 0.999932 0.000000 0.011670
vn 0.999932 0.000000 0.011670
vn 0.999932 0.000000 0.011670
vn 0.999932 0.000000 0.011670
vn 0.999932 0.000000 0.011670
vn -0.999932 -0.000000 -0.011670
vn -0.999932 -0.000000 -0.011670
vn -0.999932 -0.000000 -0.011670
vn -0.999932 -0.000000 -0.011670
vn -0.999932 -0.000000 -0.011670
vn -0.999932 -0.000000 -0.011670
s off
g initialShadingGroup pCube1
f 1/1/1 2/2/2 3/3/3
f 3/3/4 2/2/5 4/4/6
f 3/5/7 4/6/8 5/7/9
f 5/7/10 4/6/11 6/8/12
f 5/9/13 6/10/14 7/11/15
f 7/12/16 6/13/17 8/14/18
f 7/15/19 8/16/20 1/17/21
f 1/17/22 8/16/23 2/18/24
f 2/19/25 8/20/26 4/21/27
f 4/21/28 8/20/29 6/22/30
f 7/23/31 1/24/32 5/25/33
f 5/26/34 1/27/35 3/28/36
