# This file uses centimeters as units for non-parametric coordinates.

mtllib Flag.mtl
g default
v -2.889082 6.061560 0.031338
v -0.509200 6.061560 0.031338
v -2.889082 13.395029 0.031338
v -0.509200 13.395029 0.031338
v -2.889082 13.395029 -0.012320
v -0.509200 13.395029 -0.012320
v -2.889082 6.061560 -0.012320
v -0.509200 6.061560 -0.012320
vt 0.249294 0.996809
vt 0.013808 0.996767
vt 0.013958 0.146146
vt 0.249444 0.146187
vt 0.858893 0.467398
vt 0.858893 0.001553
vt 0.889214 0.001553
vt 0.889214 0.467398
vt 0.249186 0.997167
vt 0.011848 0.997157
vt 0.011881 0.144700
vt 0.249220 0.144710
vt 0.894876 0.467398
vt 0.894876 0.001553
vt 0.925197 0.001553
vt 0.925197 0.467398
vt 0.966841 0.001553
vt 0.997163 0.001553
vt 0.997163 0.497719
vt 0.966841 0.497719
vt 0.930859 0.001553
vt 0.961180 0.001553
vt 0.961180 0.497719
vt 0.930859 0.497719
vn 0.000000 0.000000 1.000000
vn 0.000000 0.000000 1.000000
vn 0.000000 0.000000 1.000000
vn 0.000000 0.000000 1.000000
vn 0.000000 1.000000 0.000000
vn 0.000000 1.000000 0.000000
vn 0.000000 1.000000 0.000000
vn 0.000000 1.000000 0.000000
vn 0.000000 0.000000 -1.000000
vn 0.000000 0.000000 -1.000000
vn 0.000000 0.000000 -1.000000
vn 0.000000 0.000000 -1.000000
vn 0.000000 -1.000000 0.000000
vn 0.000000 -1.000000 0.000000
vn 0.000000 -1.000000 0.000000
vn 0.000000 -1.000000 0.000000
vn 1.000000 0.000000 0.000000
vn 1.000000 0.000000 0.000000
vn 1.000000 0.000000 0.000000
vn 1.000000 0.000000 0.000000
vn -1.000000 0.000000 0.000000
vn -1.000000 0.000000 0.000000
vn -1.000000 0.000000 0.000000
vn -1.000000 0.000000 0.000000
s off
g pCube1
usemtl lambert3SG
f 1/1/1 2/2/2 4/3/3 3/4/4
f 3/5/5 4/6/6 6/7/7 5/8/8
f 5/9/9 6/10/10 8/11/11 7/12/12
f 7/13/13 8/14/14 2/15/15 1/16/16
f 2/17/17 8/18/18 6/19/19 4/20/20
f 7/21/21 1/22/22 3/23/23 5/24/24
