# This file uses centimeters as units for non-parametric coordinates.

mtllib fruitstand.mtl
g default
v -2.234239 -1.257302 2.234795
v 2.234239 -1.257302 2.234795
v -2.234239 0.000000 2.234794
v 2.234239 0.000000 2.234794
v -2.234239 1.257302 -2.234795
v 2.234239 1.257302 -2.234795
v -2.234239 -1.257302 -2.234795
v 2.234239 -1.257302 -2.234795
v 2.234239 1.257302 -0.893807
v -2.234239 1.257302 -0.893807
v 2.234239 1.913567 -0.893807
v -2.234239 1.913567 -0.893807
v 2.234239 1.913567 -2.234795
v -2.234239 1.913567 -2.234795
v 2.234239 0.314325 2.037287
v 2.234239 0.628651 0.482326
v 2.234239 0.942976 -0.586515
v -2.234239 0.314325 2.037287
v -2.234239 0.628651 0.482326
v -2.234239 0.942976 -0.586515
v -2.234239 0.471488 0.813807
v 2.234239 0.471488 0.813807
v 0.857751 0.471488 0.813807
v 0.513782 0.471488 0.813807
v -0.516578 0.471488 0.813807
v -0.838430 0.471488 0.813807
v -1.885543 0.471488 0.813807
v 0.857751 0.314325 2.037287
v 0.513782 0.314325 2.037287
v -0.516578 0.314325 2.037287
v -0.838430 0.314325 2.037287
v -1.885543 0.314325 2.037287
v 0.857751 0.628651 0.482326
v 0.513782 0.628651 0.482326
v -0.516578 0.628651 0.482326
v -0.838430 0.628651 0.482326
v -1.885543 0.628651 0.482326
v 0.857751 0.942976 -0.586515
v 0.513782 0.942976 -0.586515
v -0.516578 0.942976 -0.586515
v -0.838430 0.942976 -0.586515
v -1.885543 0.942976 -0.586515
v 1.901784 0.471488 0.813807
v 1.901784 0.314325 2.037287
v 1.901784 0.628651 0.482326
v 1.901784 0.942976 -0.586515
v 0.857751 -0.185900 1.973030
v 0.857751 -0.028737 0.749550
v 1.901784 -0.185900 1.973030
v 1.901784 -0.028737 0.749550
v -0.516578 -0.185900 1.973030
v -0.516578 -0.028737 0.749550
v 0.513782 -0.185900 1.973030
v 0.513782 -0.028737 0.749550
v -1.885543 -0.185900 1.973030
v -1.885543 -0.028737 0.749550
v -0.838430 -0.185900 1.973030
v -0.838430 -0.028737 0.749550
v 0.857751 0.144804 0.340037
v 0.857751 0.459130 -0.728805
v 1.901784 0.144804 0.340037
v 1.901784 0.459130 -0.728805
v -0.516578 0.144804 0.340036
v -0.516578 0.459130 -0.728805
v 0.513782 0.144804 0.340036
v 0.513782 0.459130 -0.728805
v -1.885543 0.144804 0.340036
v -1.885543 0.459130 -0.728805
v -0.838430 0.144804 0.340036
v -0.838430 0.459130 -0.728805
vt 0.006341 0.757368
vt 0.241051 0.757368
vt 0.241051 0.992077
vt 0.006341 0.992077
vt 0.247572 0.785149
vt 0.410909 0.785149
vt 0.410909 0.948486
vt 0.247572 0.948486
vt 0.585533 0.771798
vt 0.414467 0.771798
vt 0.414467 0.942863
vt 0.585533 0.942863
vt 0.601173 0.765644
vt 0.398827 0.765644
vt 0.398827 0.967990
vt 0.601173 0.967990
vt 0.404433 0.092775
vt 0.076964 0.092775
vt 0.076964 0.256509
vt 0.091435 0.297443
vt 0.181074 0.317910
vt 0.205360 0.338376
vt 0.283670 0.379310
vt 0.306184 0.420243
vt 0.404433 0.420243
vt 0.101172 0.407103
vt 0.373900 0.407103
vt 0.373900 0.134376
vt 0.101172 0.134376
vt 0.113907 0.118650
vt 0.402274 0.118650
vt 0.402274 0.407017
vt 0.315757 0.407017
vt 0.295931 0.370972
vt 0.226972 0.334926
vt 0.205586 0.316903
vt 0.126649 0.298880
vt 0.113907 0.262834
vt 0.117646 0.370075
vt 0.366913 0.370075
vt 0.366913 0.120808
vt 0.117646 0.120808
vt 0.119312 0.130380
vt 0.384220 0.130380
vt 0.384220 0.395287
vt 0.119312 0.395287
vt 0.635160 0.133948
vt 0.829686 0.133948
vt 0.829686 0.328474
vt 0.815213 0.328474
vt 0.769763 0.328474
vt 0.754789 0.328474
vt 0.709935 0.328474
vt 0.695924 0.328474
vt 0.650340 0.328474
vt 0.635160 0.328474
vt 0.553967 0.306146
vt 0.583793 0.306146
vt 0.583793 0.461844
vt 0.553967 0.461844
vt 0.553967 0.079635
vt 0.583793 0.079635
vt 0.583793 0.257859
vt 0.553967 0.257859
vt 0.673357 0.257859
vt 0.700887 0.257859
vt 0.789018 0.257859
vt 0.818439 0.257859
vt 0.907740 0.257859
vt 0.936176 0.257859
vt 0.936176 0.306146
vt 0.907740 0.306146
vt 0.818439 0.306146
vt 0.789018 0.306146
vt 0.700887 0.306146
vt 0.673357 0.306146
vt 0.789018 0.079635
vt 0.818439 0.079635
vt 0.673357 0.079635
vt 0.700887 0.079635
vt 0.789018 0.461844
vt 0.818439 0.461844
vt 0.673357 0.461844
vt 0.700887 0.461844
vt 0.907740 0.461844
vt 0.936176 0.461844
vt 0.907740 0.079635
vt 0.936176 0.079635
vt 0.303808 0.252394
vt 0.303808 0.121812
vt 0.383301 0.121812
vt 0.383301 0.252394
vt 0.199166 0.252394
vt 0.199166 0.121812
vt 0.277618 0.121812
vt 0.277618 0.252394
vt 0.094933 0.252394
vt 0.094933 0.121812
vt 0.174661 0.121812
vt 0.174661 0.252394
vt 0.303808 0.410180
vt 0.303808 0.296102
vt 0.383301 0.296102
vt 0.383301 0.410180
vt 0.199166 0.410180
vt 0.199166 0.296102
vt 0.277618 0.296102
vt 0.277618 0.410180
vt 0.094933 0.410180
vt 0.094933 0.296102
vt 0.174661 0.296102
vt 0.174661 0.410180
vt 0.385544 0.272188
vt 0.299584 0.272188
vt 0.299584 0.111663
vt 0.385544 0.111663
vt 0.271264 0.272188
vt 0.186430 0.272188
vt 0.186430 0.111663
vt 0.271264 0.111663
vt 0.159930 0.272188
vt 0.073716 0.272188
vt 0.073716 0.111663
vt 0.159930 0.111663
vt 0.385544 0.423491
vt 0.299584 0.423491
vt 0.299584 0.268222
vt 0.385544 0.268222
vt 0.271264 0.423491
vt 0.186430 0.423491
vt 0.186430 0.268222
vt 0.271264 0.268222
vt 0.159930 0.423491
vt 0.073716 0.423491
vt 0.073716 0.268222
vt 0.159930 0.268222
vt 0.250259 0.283945
vt 0.153841 0.253597
vt 0.158905 0.157003
vt 0.255323 0.187351
vt 0.250259 0.283945
vt 0.153841 0.253597
vt 0.158905 0.157003
vt 0.255323 0.187351
vt 0.250259 0.283945
vt 0.153841 0.253597
vt 0.158905 0.157003
vt 0.255323 0.187351
vt 0.360614 0.374989
vt 0.276382 0.314293
vt 0.287595 0.220862
vt 0.371827 0.281558
vt 0.360614 0.374989
vt 0.276382 0.314293
vt 0.287595 0.220862
vt 0.371827 0.281558
vt 0.360614 0.374989
vt 0.276382 0.314293
vt 0.287595 0.220862
vt 0.371827 0.281558
vt 0.127795 0.234178
vt 0.227672 0.265615
vt 0.232918 0.165556
vt 0.133041 0.134120
vt 0.127795 0.234178
vt 0.227672 0.265615
vt 0.232918 0.165556
vt 0.133041 0.134120
vt 0.127795 0.234178
vt 0.227672 0.265615
vt 0.232918 0.165556
vt 0.133041 0.134120
vt 0.254732 0.297052
vt 0.341986 0.359926
vt 0.353602 0.263143
vt 0.266348 0.200269
vt 0.254732 0.297052
vt 0.341986 0.359926
vt 0.353602 0.263143
vt 0.266348 0.200269
vt 0.254732 0.297052
vt 0.341986 0.359926
vt 0.353602 0.263143
vt 0.266348 0.200269
vt 0.664453 0.156917
vt 0.680243 0.156917
vt 0.727660 0.156917
vt 0.742234 0.156917
vt 0.788892 0.156917
vt 0.804468 0.156917
vt 0.851745 0.156917
vt 0.866799 0.156917
vt 0.866799 0.359263
vt 0.664453 0.359263
vn 0.000000 0.000000 1.000000
vn 0.000000 0.000000 1.000000
vn 0.000000 0.000000 1.000000
vn 0.000000 0.000000 1.000000
vn 0.000000 0.532040 0.846719
vn 0.000000 0.532040 0.846719
vn 0.000000 0.662746 0.748844
vn 0.000000 0.604595 0.796533
vn 0.000000 0.606832 0.794830
vn 0.000000 0.606832 0.794830
vn 0.000000 0.602520 0.798104
vn 0.000000 0.602520 0.798104
vn 0.000000 0.607746 0.794132
vn 0.000000 0.667769 0.744369
vn 0.000000 0.000000 -1.000000
vn 0.000000 0.000000 -1.000000
vn 0.000000 0.000000 -1.000000
vn 0.000000 0.000000 -1.000000
vn 0.000000 -1.000000 0.000000
vn 0.000000 -1.000000 0.000000
vn 0.000000 -1.000000 0.000000
vn 0.000000 -1.000000 0.000000
vn 1.000000 -0.000000 0.000000
vn 1.000000 -0.000000 0.000000
vn 1.000000 -0.000000 0.000000
vn 1.000000 -0.000000 0.000000
vn 1.000000 -0.000000 0.000000
vn 1.000000 -0.000000 0.000000
vn 1.000000 -0.000000 0.000000
vn 1.000000 -0.000000 0.000000
vn 1.000000 -0.000000 0.000000
vn -1.000000 -0.000000 0.000000
vn -1.000000 -0.000000 0.000000
vn -1.000000 -0.000000 0.000000
vn -1.000000 -0.000000 0.000000
vn -1.000000 -0.000000 0.000000
vn -1.000000 -0.000000 0.000000
vn -1.000000 -0.000000 0.000000
vn -1.000000 -0.000000 0.000000
vn -1.000000 -0.000000 0.000000
vn 0.000000 1.000000 0.000000
vn 0.000000 1.000000 0.000000
vn 0.000000 1.000000 0.000000
vn 0.000000 1.000000 0.000000
vn 0.000000 0.000000 1.000000
vn 0.000000 0.000000 1.000000
vn 0.000000 0.000000 1.000000
vn 0.000000 0.000000 1.000000
vn 1.000000 0.000000 0.000000
vn 1.000000 0.000000 0.000000
vn 0.000000 0.000000 -1.000000
vn 0.000000 0.000000 -1.000000
vn -1.000000 0.000000 0.000000
vn -1.000000 0.000000 0.000000
vn 0.000000 0.755451 0.655205
vn 0.000000 0.730156 0.683280
vn 0.000000 0.727989 0.685589
vn 0.000000 0.727989 0.685589
vn 0.000000 0.729777 0.683685
vn 0.000000 0.729777 0.683685
vn 0.000000 0.728849 0.684675
vn 0.000000 0.753301 0.657676
vn 0.000000 0.699061 0.715062
vn 0.000000 0.699061 0.715062
vn 0.000000 0.916013 0.401148
vn 0.000000 0.910552 0.413394
vn 0.000000 0.918466 0.395500
vn 0.000000 0.929490 0.368847
vn 0.000000 0.917477 0.397788
vn 0.000000 0.917477 0.397788
vn 0.000000 0.918293 0.395901
vn 0.000000 0.918293 0.395901
vn 0.000000 0.917871 0.396880
vn 0.000000 0.928588 0.371112
vn 0.000000 0.915555 0.402193
vn 0.000000 0.910265 0.414025
vn 0.000000 0.910469 0.413577
vn 0.000000 0.910469 0.413577
vn 0.000000 0.910076 0.414441
vn 0.000000 0.910076 0.414441
vn 0.000000 0.991850 0.127409
vn 0.000000 0.991850 0.127409
vn 0.000000 0.991850 0.127409
vn 0.000000 0.991850 0.127409
vn 0.000000 0.991850 0.127409
vn 0.000000 0.991850 0.127409
vn 0.000000 0.991850 0.127409
vn 0.000000 0.991850 0.127409
vn 0.000000 0.991850 0.127409
vn 0.000000 0.991850 0.127409
vn 0.000000 0.991850 0.127409
vn 0.000000 0.991850 0.127409
vn 0.000000 0.959375 0.282133
vn 0.000000 0.959375 0.282133
vn 0.000000 0.959375 0.282133
vn 0.000000 0.959375 0.282133
vn 0.000000 0.959375 0.282133
vn 0.000000 0.959375 0.282133
vn 0.000000 0.959375 0.282133
vn 0.000000 0.959375 0.282133
vn 0.000000 0.959375 0.282133
vn 0.000000 0.959375 0.282133
vn 0.000000 0.959375 0.282133
vn 0.000000 0.959375 0.282133
vn 1.000000 -0.000000 0.000000
vn 1.000000 -0.000000 0.000000
vn 1.000000 -0.000000 0.000000
vn 1.000000 -0.000000 0.000000
vn 0.000000 0.127408 -0.991850
vn 0.000000 0.127408 -0.991850
vn 0.000000 0.127408 -0.991850
vn 0.000000 0.127408 -0.991850
vn -1.000000 0.000000 0.000000
vn -1.000000 0.000000 0.000000
vn -1.000000 0.000000 0.000000
vn -1.000000 0.000000 0.000000
vn 0.000000 -0.127408 0.991850
vn 0.000000 -0.127408 0.991850
vn 0.000000 -0.127408 0.991850
vn 0.000000 -0.127408 0.991850
vn 1.000000 0.000000 0.000000
vn 1.000000 0.000000 0.000000
vn 1.000000 0.000000 0.000000
vn 1.000000 0.000000 0.000000
vn 0.000000 0.127408 -0.991850
vn 0.000000 0.127408 -0.991850
vn 0.000000 0.127408 -0.991850
vn 0.000000 0.127408 -0.991850
vn -1.000000 0.000000 0.000000
vn -1.000000 0.000000 0.000000
vn -1.000000 0.000000 0.000000
vn -1.000000 0.000000 0.000000
vn 0.000000 -0.127409 0.991850
vn 0.000000 -0.127409 0.991850
vn 0.000000 -0.127409 0.991850
vn 0.000000 -0.127409 0.991850
vn 1.000000 0.000000 0.000000
vn 1.000000 0.000000 0.000000
vn 1.000000 0.000000 0.000000
vn 1.000000 0.000000 0.000000
vn 0.000000 0.127408 -0.991850
vn 0.000000 0.127408 -0.991850
vn 0.000000 0.127408 -0.991850
vn 0.000000 0.127408 -0.991850
vn -1.000000 -0.000000 0.000000
vn -1.000000 -0.000000 0.000000
vn -1.000000 -0.000000 0.000000
vn -1.000000 -0.000000 0.000000
vn 0.000000 -0.127408 0.991850
vn 0.000000 -0.127408 0.991850
vn 0.000000 -0.127408 0.991850
vn 0.000000 -0.127408 0.991850
vn 1.000000 0.000000 0.000000
vn 1.000000 0.000000 0.000000
vn 1.000000 0.000000 0.000000
vn 1.000000 0.000000 0.000000
vn 0.000000 0.282133 -0.959375
vn 0.000000 0.282133 -0.959375
vn 0.000000 0.282133 -0.959375
vn 0.000000 0.282133 -0.959375
vn -1.000000 0.000000 0.000000
vn -1.000000 0.000000 0.000000
vn -1.000000 0.000000 0.000000
vn -1.000000 0.000000 0.000000
vn 0.000000 -0.282133 0.959375
vn 0.000000 -0.282133 0.959375
vn 0.000000 -0.282133 0.959375
vn 0.000000 -0.282133 0.959375
vn 1.000000 0.000000 0.000000
vn 1.000000 0.000000 0.000000
vn 1.000000 0.000000 0.000000
vn 1.000000 0.000000 0.000000
vn 0.000000 0.282134 -0.959375
vn 0.000000 0.282134 -0.959375
vn 0.000000 0.282134 -0.959375
vn 0.000000 0.282134 -0.959375
vn -1.000000 -0.000000 0.000000
vn -1.000000 -0.000000 0.000000
vn -1.000000 -0.000000 0.000000
vn -1.000000 -0.000000 0.000000
vn 0.000000 -0.282134 0.959375
vn 0.000000 -0.282134 0.959375
vn 0.000000 -0.282134 0.959375
vn 0.000000 -0.282134 0.959375
vn 1.000000 -0.000000 0.000000
vn 1.000000 -0.000000 0.000000
vn 1.000000 -0.000000 0.000000
vn 1.000000 -0.000000 0.000000
vn 0.000000 0.282134 -0.959375
vn 0.000000 0.282134 -0.959375
vn 0.000000 0.282134 -0.959375
vn 0.000000 0.282134 -0.959375
vn -1.000000 0.000000 0.000000
vn -1.000000 0.000000 0.000000
vn -1.000000 0.000000 0.000000
vn -1.000000 0.000000 0.000000
vn 0.000000 -0.282134 0.959375
vn 0.000000 -0.282134 0.959375
vn 0.000000 -0.282134 0.959375
vn 0.000000 -0.282134 0.959375
s off
g pCube1
usemtl lambert13SG
f 1/43/1 2/44/2 4/45/3 3/46/4
s 1
f 3/47/5 4/48/6 15/49/7 44/50/8 28/51/9 29/52/10 30/53/11 31/54/12 32/55/13 18/56/14
s 2
f 5/26/15 6/27/16 8/28/17 7/29/18
s off
f 7/39/19 8/40/20 2/41/21 1/42/22
s 3
f 2/30/23 8/31/24 6/32/25 9/33/26 17/34/27 16/35/28 22/36/29 15/37/30 4/38/31
s 4
f 7/17/32 1/18/33 3/19/34 18/20/35 21/21/36 19/22/37 20/23/38 10/24/39 5/25/40
s off
f 12/1/41 11/2/42 13/3/43 14/4/44
f 10//45 9//46 11//47 12//48
s 3
f 9/5/26 6/6/25 13/7/49 11/8/50
s 2
f 6/9/16 5/10/15 14/11/51 13/12/52
s 4
f 5/13/40 10/14/39 12/15/53 14/16/54
s 1
f 20/185/55 42/186/56 41/187/57 40/188/58 39/189/59 38/190/60 46/191/61 17/192/62 9/193/63 10/194/64
f 19/57/65 37/58/66 42/59/56 20/60/55
f 18/61/14 32/62/13 27/63/67 21/64/68
f 21/64/68 27/63/67 26/65/69 25/66/70 24/67/71 23/68/72 43/69/73 22/70/74 16/71/75 45/72/76 33/73/77 34/74/78 35/75/79 36/76/80 37/58/66 19/57/65
s off
f 48/89/81 47/90/82 49/91/83 50/92/84
s 1
f 24/67/71 29/77/10 28/78/9 23/68/72
s off
f 52/93/85 51/94/86 53/95/87 54/96/88
s 1
f 26/65/69 31/79/12 30/80/11 25/66/70
s off
f 56/97/89 55/98/90 57/99/91 58/100/92
f 60/101/93 59/102/94 61/103/95 62/104/96
s 1
f 39/81/59 34/74/78 33/73/77 38/82/60
s off
f 64/105/97 63/106/98 65/107/99 66/108/100
s 1
f 41/83/57 36/76/80 35/75/79 40/84/58
s off
f 68/109/101 67/110/102 69/111/103 70/112/104
s 1
f 46/85/61 45/72/76 16/71/75 17/86/62
f 43/69/73 44/87/8 15/88/7 22/70/74
s off
f 23/137/105 28/138/106 47/139/107 48/140/108
f 28//109 44//110 49//111 47//112
f 44/161/113 43/162/114 50/163/115 49/164/116
f 43/113/117 23/114/118 48/115/119 50/116/120
f 25/141/121 30/142/122 51/143/123 52/144/124
f 30//125 29//126 53//127 51//128
f 29/165/129 24/166/130 54/167/131 53/168/132
f 24/117/133 25/118/134 52/119/135 54/120/136
f 27/145/137 32/146/138 55/147/139 56/148/140
f 32//141 31//142 57//143 55//144
f 31/169/145 26/170/146 58/171/147 57/172/148
f 26/121/149 27/122/150 56/123/151 58/124/152
f 38/149/153 33/150/154 59/151/155 60/152/156
f 33//157 45//158 61//159 59//160
f 45/173/161 46/174/162 62/175/163 61/176/164
f 46/125/165 38/126/166 60/127/167 62/128/168
f 40/153/169 35/154/170 63/155/171 64/156/172
f 35//173 34//174 65//175 63//176
f 34/177/177 39/178/178 66/179/179 65/180/180
f 39/129/181 40/130/182 64/131/183 66/132/184
f 42/157/185 37/158/186 67/159/187 68/160/188
f 37//189 36//190 69//191 67//192
f 36/181/193 41/182/194 70/183/195 69/184/196
f 41/133/197 42/134/198 68/135/199 70/136/200
