# This file uses centimeters as units for non-parametric coordinates.

mtllib GuardHouse.mtl
g default
v -15.000000 -0.813809 15.000000
v 15.000000 -0.813809 15.000000
v -15.000000 0.250000 15.000000
v 15.000000 0.250000 15.000000
v -15.000000 0.250000 -15.000000
v 15.000000 0.250000 -15.000000
v -15.000000 -0.813809 -15.000000
v 15.000000 -0.813809 -15.000000
v -12.241253 3.209997 15.888935
v 2.758747 3.209997 15.888935
v -12.241253 13.209997 15.888935
v 2.758747 13.209997 15.888935
v -12.241253 13.209997 14.888935
v 2.758747 13.209997 14.888935
v -12.241253 3.209997 14.888935
v 2.758747 3.209997 14.888935
v 4.438184 0.250000 15.000000
v 13.314552 0.250000 15.000000
v -13.314552 0.250000 13.265424
v 4.438184 0.250000 13.265424
v 13.314552 0.250000 13.265424
v -13.314552 0.250000 -13.265425
v 13.314552 0.250000 -13.265425
v -15.000000 18.250000 15.000000
v -13.314552 18.250000 13.265424
v 4.438184 18.250000 15.000000
v 4.438184 18.250000 13.265424
v -13.314552 18.250000 -13.265425
v -15.000000 18.250000 -15.000000
v 13.314552 18.250000 -13.265425
v 15.000000 18.250000 -15.000000
v 13.314552 18.250000 13.265424
v 13.314552 18.250000 15.000000
v 15.000000 18.250000 15.000000
v 4.438184 12.735397 15.000000
v 4.438184 12.735397 13.265424
v 13.314552 12.735397 15.000000
v 13.314552 12.735397 13.265424
v -13.314552 20.250000 13.265424
v -13.314552 20.250000 -13.265425
v -17.000000 23.250000 -17.000000
v -17.000000 23.250000 17.000000
v 13.314552 20.250000 -13.265425
v 13.314552 20.250000 13.265424
v -17.000000 18.250000 17.000000
v -17.000000 18.250000 -17.000000
v 17.000000 23.250000 -17.000000
v 17.000000 18.250000 -17.000000
v 17.000000 18.250000 17.000000
v 17.000000 23.250000 17.000000
v -13.314552 23.250000 -13.265425
v 13.314552 23.250000 -13.265425
v 13.314552 23.250000 13.265424
v -13.314552 23.250000 13.265424
v 0.000000 0.250000 -13.265425
vt 0.496212 0.954756
vt 0.503788 0.954756
vt 0.496212 0.962332
vt 0.503788 0.962332
vt 0.496212 0.969908
vt 0.503788 0.969908
vt 0.496212 0.977484
vt 0.503788 0.977484
vt 0.496212 0.985059
vt 0.503788 0.985059
vt 0.511364 0.954756
vt 0.511364 0.962332
vt 0.488636 0.954756
vt 0.488636 0.962332
vt 0.601111 0.749600
vt 0.903323 0.749600
vt 0.601111 0.927433
vt 0.903323 0.927433
vt 0.125357 0.893035
vt 0.125357 0.769385
vt 0.133601 0.893035
vt 0.133601 0.769385
vt 0.375000 0.500000
vt 0.625000 0.500000
vt 0.375000 0.750000
vt 0.625000 0.750000
vt 0.134416 0.893035
vt 0.134416 0.769385
vt 0.142659 0.893035
vt 0.142659 0.769385
vt 0.143453 0.769385
vt 0.151696 0.769385
vt 0.143453 0.851819
vt 0.151696 0.851819
vt 0.152489 0.769385
vt 0.160732 0.769385
vt 0.152489 0.851819
vt 0.160732 0.851819
vt 0.398611 0.263889
vt 0.525000 0.286458
vt 0.450000 0.333333
vt 0.525000 0.333333
vt 0.412500 0.479167
vt 0.450000 0.416667
vt 0.587500 0.479167
vt 0.550000 0.416667
vt 0.498955 0.121459
vt 0.553655 0.121459
vt 0.498955 0.149685
vt 0.553655 0.141038
vt 0.553655 0.149685
vt 0.256708 0.889877
vt 0.256708 0.871705
vt 0.269037 0.889877
vt 0.269037 0.871705
vt 0.492432 0.110733
vt 0.492432 0.063966
vt 0.520492 0.110733
vt 0.520492 0.063966
vt 0.243973 0.889911
vt 0.243973 0.880791
vt 0.256302 0.889911
vt 0.256302 0.871671
vt 0.243973 0.871671
vt 0.549555 0.063966
vt 0.549555 0.110733
vt 0.521495 0.063966
vt 0.521495 0.110733
vt 0.479919 0.161558
vt 0.479919 0.120199
vt 0.507980 0.161558
vt 0.499383 0.120199
vt 0.507980 0.120199
vt 0.499383 0.117495
vt 0.479919 0.117495
vt 0.434313 0.117495
vt 0.436941 0.117495
vt 0.434313 0.136959
vt 0.436941 0.145556
vt 0.434313 0.145556
vt 0.537659 0.158027
vt 0.537659 0.111260
vt 0.565720 0.158027
vt 0.565720 0.111260
vt 0.343119 0.797894
vt 0.343201 0.797894
vt 0.343119 0.798483
vt 0.343201 0.798483
vt 0.284441 0.872859
vt 0.284441 0.876636
vt 0.283253 0.872859
vt 0.283253 0.876636
vt 0.285977 0.876636
vt 0.284789 0.876636
vt 0.285977 0.872859
vt 0.284789 0.872859
vt 0.282862 0.878939
vt 0.279085 0.878939
vt 0.282862 0.872859
vt 0.279085 0.872859
vt 0.525000 0.333333
vt 0.525000 0.286458
vt 0.578634 0.149685
vt 0.578634 0.141038
vt 0.451927 0.173372
vt 0.449223 0.173372
vt 0.451927 0.159534
vt 0.449223 0.159534
vt 0.243973 0.851861
vt 0.243973 0.828573
vt 0.247398 0.851861
vt 0.247398 0.828573
vt 0.355810 0.832413
vt 0.350177 0.830160
vt 0.352430 0.828206
vt 0.355810 0.794107
vt 0.352430 0.798315
vt 0.350177 0.796361
vt 0.350177 0.828206
vt 0.350177 0.798315
vt 0.296912 0.784597
vt 0.306595 0.784597
vt 0.296912 0.850444
vt 0.306595 0.850444
vt 0.368303 0.832413
vt 0.362670 0.830160
vt 0.364923 0.828206
vt 0.368303 0.794107
vt 0.364923 0.798315
vt 0.362670 0.796361
vt 0.362670 0.828206
vt 0.362670 0.798315
vt 0.307419 0.850444
vt 0.307419 0.784597
vt 0.317102 0.850444
vt 0.317102 0.784597
vt 0.381714 0.832718
vt 0.411605 0.832718
vt 0.381714 0.862719
vt 0.411605 0.862719
vt 0.317902 0.850444
vt 0.325039 0.843211
vt 0.383749 0.850444
vt 0.376611 0.843211
vt 0.383749 0.784597
vt 0.376611 0.791829
vt 0.317902 0.784597
vt 0.325039 0.791829
vt 0.550000 0.500000
vt 0.550000 0.416667
vt 0.437751 0.799399
vt 0.479110 0.799399
vt 0.437751 0.840911
vt 0.479110 0.840911
vt 0.575000 0.333333
vt 0.575000 0.270833
vt 0.575000 0.333333
vt 0.575000 0.270833
vt 0.394382 0.784597
vt 0.394382 0.850444
vt 0.384699 0.784597
vt 0.384699 0.850444
vt 0.399055 0.788470
vt 0.399055 0.846570
vt 0.395182 0.784597
vt 0.395182 0.850444
vt 0.369702 0.832718
vt 0.367448 0.838351
vt 0.367448 0.832718
vt 0.415921 0.871024
vt 0.415921 0.832718
vt 0.420074 0.866816
vt 0.420074 0.836925
vt 0.286325 0.872859
vt 0.287694 0.876284
vt 0.286325 0.876284
vt 0.417626 0.854816
vt 0.359526 0.854816
vt 0.421499 0.850943
vt 0.355652 0.850943
vt 0.289450 0.870119
vt 0.288080 0.873544
vt 0.288080 0.870119
vt 0.417626 0.912916
vt 0.421499 0.916790
vt 0.359284 0.832718
vt 0.361537 0.838351
vt 0.359284 0.838351
vt 0.359526 0.912916
vt 0.414362 0.912916
vt 0.355652 0.916790
vt 0.354968 0.836925
vt 0.351588 0.832718
vt 0.354968 0.832718
vt 0.412073 0.862719
vt 0.412073 0.832718
vt 0.415453 0.862719
vt 0.415453 0.832718
vt 0.374018 0.862608
vt 0.374018 0.832718
vt 0.377398 0.862608
vt 0.377398 0.832718
vt 0.381246 0.832718
vt 0.381246 0.862719
vt 0.377866 0.832718
vt 0.377866 0.862719
vt 0.351120 0.832718
vt 0.347740 0.836870
vt 0.347740 0.832718
vt 0.358816 0.836925
vt 0.355436 0.832718
vt 0.358816 0.832718
vt 0.370170 0.862608
vt 0.370170 0.832718
vt 0.373550 0.862608
vt 0.373550 0.832718
vt 0.347444 0.837174
vt 0.344064 0.841327
vt 0.344064 0.837174
vt 0.473177 0.354167
vt 0.537500 0.333333
vt 0.568750 0.354167
vt 0.359877 0.815697
vt 0.329695 0.815697
vt 0.359877 0.793503
vt 0.329695 0.793503
vt 0.368289 0.845540
vt 0.368289 0.838680
vt 0.373712 0.827332
vt 0.874788 0.383379
vt 0.991220 0.383379
vt 0.991220 0.499811
vt 0.874788 0.499811
vn 0.000000 0.000000 1.000000
vn 0.000000 0.000000 1.000000
vn 0.000000 0.000000 1.000000
vn 0.000000 0.000000 1.000000
vn 0.000000 1.000000 0.000000
vn 0.000000 1.000000 0.000000
vn 0.000000 1.000000 0.000000
vn 0.000000 1.000000 0.000000
vn 0.000000 0.000000 -1.000000
vn 0.000000 0.000000 -1.000000
vn 0.000000 0.000000 -1.000000
vn 0.000000 0.000000 -1.000000
vn 0.000000 -1.000000 0.000000
vn 0.000000 -1.000000 0.000000
vn 0.000000 -1.000000 0.000000
vn 0.000000 -1.000000 0.000000
vn 1.000000 0.000000 0.000000
vn 1.000000 0.000000 0.000000
vn 1.000000 0.000000 0.000000
vn 1.000000 0.000000 0.000000
vn -1.000000 0.000000 0.000000
vn -1.000000 0.000000 0.000000
vn -1.000000 0.000000 0.000000
vn -1.000000 0.000000 0.000000
vn 0.000000 0.000000 1.000000
vn 0.000000 0.000000 1.000000
vn 0.000000 0.000000 1.000000
vn 0.000000 0.000000 1.000000
vn 0.000000 1.000000 0.000000
vn 0.000000 1.000000 0.000000
vn 0.000000 1.000000 0.000000
vn 0.000000 1.000000 0.000000
vn 0.000000 0.000000 -1.000000
vn 0.000000 0.000000 -1.000000
vn 0.000000 0.000000 -1.000000
vn 0.000000 0.000000 -1.000000
vn 0.000000 -1.000000 0.000000
vn 0.000000 -1.000000 0.000000
vn 0.000000 -1.000000 0.000000
vn 0.000000 -1.000000 0.000000
vn 1.000000 0.000000 0.000000
vn 1.000000 0.000000 0.000000
vn 1.000000 0.000000 0.000000
vn 1.000000 0.000000 0.000000
vn -1.000000 0.000000 0.000000
vn -1.000000 0.000000 0.000000
vn -1.000000 0.000000 0.000000
vn -1.000000 0.000000 0.000000
vn 0.000000 1.000000 0.000001
vn 0.000000 1.000000 0.000001
vn 0.000000 0.641508 -0.767116
vn 0.000000 0.640523 -0.767939
vn 0.000000 1.000000 0.000000
vn 0.000000 1.000000 0.000000
vn 0.000000 1.000000 0.000000
vn 0.000000 1.000000 0.000000
vn 0.000000 0.000000 1.000000
vn 0.000000 0.000000 1.000000
vn 0.000000 0.000000 1.000000
vn 0.000000 0.000000 1.000000
vn 0.000000 0.000000 1.000000
vn 1.000000 0.000000 0.000000
vn 1.000000 0.000000 0.000000
vn 1.000000 0.000000 0.000000
vn 1.000000 0.000000 0.000000
vn -1.000000 0.000000 0.000000
vn -1.000000 0.000000 0.000000
vn -1.000000 0.000000 0.000000
vn -1.000000 0.000000 0.000000
vn 0.000000 0.000000 1.000000
vn 0.000000 0.000000 1.000000
vn 0.000000 0.000000 1.000000
vn 0.000000 0.000000 1.000000
vn 0.000000 0.000000 1.000000
vn 0.000000 0.000000 -1.000000
vn 0.000000 0.000000 -1.000000
vn 0.000000 0.000000 -1.000000
vn 0.000000 0.000000 -1.000000
vn -1.000000 0.000000 0.000000
vn -1.000000 0.000000 0.000000
vn -1.000000 0.000000 0.000000
vn -1.000000 0.000000 0.000000
vn -1.000000 0.000000 0.000000
vn -1.000000 0.000000 0.000000
vn -1.000000 0.000000 0.000000
vn -1.000000 0.000000 0.000000
vn -1.000000 0.000000 0.000000
vn 0.000000 0.000000 1.000000
vn 0.000000 0.000000 1.000000
vn 0.000000 0.000000 1.000000
vn 0.000000 0.000000 1.000000
vn 0.000000 0.000000 1.000000
vn 1.000000 0.000000 0.000000
vn 1.000000 0.000000 0.000000
vn 1.000000 0.000000 0.000000
vn 1.000000 0.000000 0.000000
vn 1.000000 0.000000 0.000000
vn 1.000000 0.000000 0.000000
vn 1.000000 0.000000 0.000000
vn 1.000000 0.000000 0.000000
vn 1.000000 0.000000 0.000000
vn 1.000000 0.000000 0.000000
vn 1.000000 0.000000 0.000000
vn 1.000000 0.000000 0.000000
vn -1.000000 0.000000 0.000000
vn -1.000000 0.000000 0.000000
vn -1.000000 0.000000 0.000000
vn -1.000000 0.000000 0.000000
vn 0.000000 0.000000 -1.000000
vn 0.000000 0.000000 -1.000000
vn 0.000000 0.000000 -1.000000
vn 0.000000 0.000000 -1.000000
vn 0.000000 0.640523 -0.767939
vn 0.000000 1.000000 0.000001
vn 0.000000 1.000000 0.000000
vn 0.000000 1.000000 0.000000
vn 0.000000 0.000000 1.000000
vn 0.000000 0.000000 1.000000
vn 0.000000 0.000000 1.000000
vn 0.000000 0.000000 1.000000
vn 0.000000 -1.000000 0.000000
vn 0.000000 -1.000000 0.000000
vn 0.000000 -1.000000 0.000000
vn 0.000000 -1.000000 0.000000
vn -1.000000 0.000000 0.000000
vn -1.000000 0.000000 0.000000
vn -0.950951 0.309343 0.000000
vn -0.950951 0.309342 0.000000
vn 0.999999 0.001419 0.000000
vn 0.999999 0.001419 0.000000
vn 0.999999 0.001419 0.000000
vn 0.999999 0.001419 0.000000
vn 0.999999 0.001419 0.000000
vn 0.999999 0.001419 0.000000
vn 0.999999 0.001419 0.000000
vn 0.999999 0.001419 0.000000
vn 0.409882 0.814858 -0.409882
vn 0.000000 0.000000 -1.000000
vn 0.000000 0.707952 -0.706260
vn 0.000000 0.000000 -1.000000
vn -0.999999 -0.001420 0.000000
vn -0.999999 -0.001420 0.000000
vn -0.999999 -0.001420 0.000000
vn -0.999999 -0.001420 0.000000
vn -0.999999 -0.001420 0.000000
vn -0.999999 -0.001420 0.000000
vn -0.999999 -0.001420 0.000000
vn -0.999999 -0.001420 0.000000
vn 1.000000 0.000000 0.000000
vn 1.000000 0.000000 0.000000
vn 0.409882 0.814858 0.409882
vn 0.409882 0.814858 -0.409882
vn 0.000000 1.000000 0.000000
vn 0.000000 1.000000 0.000000
vn 0.000000 1.000000 0.000000
vn 0.000000 1.000000 0.000000
vn 0.000000 0.707952 -0.706260
vn 0.000000 1.000000 0.000000
vn 0.409882 0.814858 -0.409882
vn 0.000000 1.000000 0.000000
vn 0.409882 0.814858 0.409882
vn 0.000000 1.000000 0.000000
vn 0.000000 0.707952 0.706260
vn 0.000000 1.000000 0.000000
vn 0.000000 -1.000000 0.000000
vn 0.000000 -1.000000 0.000000
vn 0.000000 -1.000000 0.000000
vn 0.000000 -1.000000 0.000000
vn 0.000000 -1.000000 0.000000
vn 0.000000 -1.000000 0.000000
vn 0.000000 -1.000000 0.000000
vn 0.000000 -1.000000 0.000000
vn 0.000000 -1.000000 0.000000
vn 0.000000 -1.000000 0.000000
vn 0.000000 -1.000000 0.000000
vn 0.000000 -1.000000 0.000000
vn 0.409882 0.814858 0.409882
vn 0.000000 0.707952 0.706260
vn 0.000000 0.000000 1.000000
vn 0.000000 0.000000 1.000000
vn 0.000000 -1.000000 0.000000
vn 0.000000 -1.000000 0.000000
vn 0.000000 -1.000000 0.000000
vn 0.000000 -1.000000 0.000000
vn 0.707107 0.000000 0.707107
vn 0.707107 0.000000 0.707107
vn 0.707107 0.000000 0.707107
vn -0.950951 0.309343 0.000000
vn -0.950951 0.309342 0.000000
vn 0.000000 1.000000 0.000000
vn 0.000000 1.000000 0.000000
vn 0.707107 0.000000 -0.707107
vn 0.707107 0.000000 -0.707107
vn 0.707107 0.000000 -0.707107
vn 0.000000 -1.000000 0.000000
vn 0.000000 -1.000000 0.000000
vn 0.000000 -1.000000 0.000000
vn 0.000000 -1.000000 0.000000
vn -0.707107 0.000000 0.707107
vn -0.707107 0.000000 0.707107
vn -0.707107 0.000000 0.707107
vn 0.000000 -1.000000 0.000000
vn 0.000000 -1.000000 0.000000
vn 0.000000 -1.000000 0.000000
vn 0.000000 -1.000000 0.000000
vn -0.707107 0.000000 -0.707107
vn -0.707107 0.000000 -0.707107
vn -0.707107 0.000000 -0.707107
vn 0.000000 -1.000000 0.000000
vn 0.000000 -1.000000 0.000000
vn 0.000000 -1.000000 0.000000
vn 0.000000 -1.000000 0.000000
vn 0.000000 -1.000000 0.000000
vn 0.000000 -1.000000 0.000000
vn 0.000000 -1.000000 0.000000
vn -0.711773 0.000000 0.702410
vn -0.711773 0.000000 0.702410
vn -0.711773 0.000000 0.702410
vn 0.000000 0.000000 1.000000
vn 0.000000 0.000000 1.000000
vn 0.000000 0.000000 1.000000
vn 0.000000 0.000000 1.000000
vn -1.000000 0.000000 0.000000
vn -1.000000 0.000000 0.000000
vn -1.000000 0.000000 0.000000
vn -1.000000 0.000000 0.000000
vn 0.000000 0.000000 -1.000000
vn 0.000000 0.000000 -1.000000
vn 0.000000 0.000000 -1.000000
vn 0.000000 0.000000 -1.000000
vn -0.711773 0.000000 -0.702410
vn -0.711773 0.000000 -0.702410
vn -0.711773 0.000000 -0.702410
vn 0.711773 0.000000 0.702410
vn 0.711773 0.000000 0.702410
vn 0.711773 0.000000 0.702410
vn 1.000000 0.000000 0.000000
vn 1.000000 0.000000 0.000000
vn 1.000000 0.000000 0.000000
vn 1.000000 0.000000 0.000000
vn 0.711773 0.000000 -0.702410
vn 0.711773 0.000000 -0.702410
vn 0.711773 0.000000 -0.702410
vn 0.000000 0.000000 0.000000
vn 0.000000 1.000000 0.000000
vn 0.000000 1.000000 0.000000
vn 0.000000 0.641508 -0.767116
vn 0.000000 0.640523 -0.767939
vn 0.000000 0.511936 -0.859024
vn 0.000000 0.511936 -0.859024
vn 1.000000 0.000000 0.000000
vn 1.000000 0.000000 0.000000
vn 1.000000 0.000000 0.000000
s 1
g initialShadingGroup pCube5
f 1/1/1 2/2/2 3/3/3
f 3/3/3 2/2/2 4/4/4
s 2
f 3/230/5 4/231/6 5/233/7
f 5/233/7 4/231/6 6/232/8
s 3
f 5/5/9 6/6/10 7/7/11
f 7/7/11 6/6/10 8/8/12
s 4
f 7/7/13 8/8/14 1/9/15
f 1/9/15 8/8/14 2/10/16
s 5
f 2/2/17 8/11/18 4/4/19
f 4/4/19 8/11/18 6/12/20
s 6
f 7/13/21 1/1/22 5/14/23
f 5/14/23 1/1/22 3/3/24
s 7
g pCube5
usemtl lambert2SG
f 9/15/25 10/16/26 11/17/27
f 11/17/27 10/16/26 12/18/28
s 8
f 11/19/29 12/20/30 13/21/31
f 13/21/31 12/20/30 14/22/32
s 9
g initialShadingGroup pCube5
f 13/23/33 14/24/34 15/25/35
f 15/25/35 14/24/34 16/26/36
s 10
g pCube5
usemtl lambert2SG
f 15/27/37 16/28/38 9/29/39
f 9/29/39 16/28/38 10/30/40
s 11
f 10/31/41 16/32/42 12/33/43
f 12/33/43 16/32/42 14/34/44
s 12
f 15/35/45 9/36/46 13/37/47
f 13/37/47 9/36/46 11/38/48
s 13
f 24/39/49 26/40/50 25/41/51
f 25/41/51 26/40/50 27/42/52
s 14
f 29/43/53 28/44/54 31/45/55
f 31/45/55 28/44/54 30/46/56
s 15
f 3/47/57 17/48/58 24/49/59
f 17/48/58 35/50/60 24/49/59
f 35/50/60 26/51/61 24/49/59
s 16
f 19/52/62 22/53/63 25/54/64
f 25/54/64 22/53/63 28/55/65
s 17
f 5/56/66 3/57/67 29/58/68
f 29/58/68 3/57/67 24/59/69
s 18
f 22/60/70 55/61/71 28/62/72
f 28/62/72 55/61/71 30/63/73
f 55/61/71 23/64/74 30/63/73
s 19
f 6/65/75 5/66/76 31/67/77
f 31/67/77 5/66/76 29/68/78
s 20
f 23/69/79 21/70/80 30/71/81
f 21/70/80 38/72/82 30/71/81
f 38/72/82 32/73/83 30/71/81
s 21
f 38/72/84 21/70/85 37/74/86
f 37/74/86 21/70/85 18/75/87
s 22
f 18/76/88 4/77/89 37/78/90
f 34/79/91 33/80/92 4/77/89
f 4/77/89 33/80/92 37/78/90
s 23
f 4/81/93 6/82/94 34/83/95
f 34/83/95 6/82/94 31/84/96
s 24
f 17/85/97 20/86/98 35/87/99
f 35/87/99 20/86/98 36/88/100
s 25
f 38/89/101 32/90/102 37/91/103
s off
f 37/91/103 32/90/102 33/92/104
f 33/93/105 32/94/106 37/95/107
s 25
f 37/95/107 32/94/106 38/96/108
s 26
f 36/97/109 27/98/110 38/99/111
f 38/99/111 27/98/110 32/100/112
s 27
f 27/42/113 26/40/114 32/101/115
f 32/101/115 26/40/114 33/102/116
s 28
f 26/51/117 35/50/118 33/103/119
f 33/103/119 35/50/118 37/104/120
s 29
f 35/105/121 36/106/122 37/107/123
f 37/107/123 36/106/122 38/108/124
s 30
f 46/109/125 45/110/126 41/111/127
f 41/111/127 45/110/126 42/112/128
s 31
f 42/113/129 24/114/130 39/115/131
f 41/116/132 40/117/133 29/118/134
s 33
f 24/114/130 25/119/135 39/115/131
f 29/118/134 40/117/133 28/120/136
s 31
f 40/117/133 39/115/131 28/120/136
f 39/115/131 25/119/135 28/120/136
s 36
f 47/121/137 48/122/138 41/123/139
f 41/123/139 48/122/138 46/124/140
s 33
f 41/125/141 29/126/142 40/127/143
f 42/128/144 39/129/145 24/130/146
s 31
f 29/126/142 28/131/147 40/127/143
f 24/130/146 39/129/145 25/132/148
s 33
f 39/129/145 40/127/143 25/132/148
f 40/127/143 28/131/147 25/132/148
s 37
f 49/133/149 48/134/150 50/135/151
f 50/135/151 48/134/150 47/136/152
s 38
f 44/137/153 43/138/154 39/139/155
f 39/139/155 43/138/154 40/140/156
s 39
f 41/141/157 51/142/158 47/143/159
f 51/142/158 52/144/160 47/143/159
f 47/143/159 52/144/160 50/145/161
f 52/144/160 53/146/162 50/145/161
f 42/147/163 50/145/161 54/148/164
f 53/146/162 54/148/164 50/145/161
s 40
f 31/45/165 30/46/166 29/149/167
f 29/149/167 30/46/166 28/150/168
s 41
f 30/151/169 32/152/170 28/153/171
f 28/153/171 32/152/170 25/154/172
s 42
f 32/155/173 33/156/174 25/157/175
f 25/157/175 33/156/174 24/158/176
s 43
f 50/159/177 42/160/178 49/161/179
f 49/161/179 42/160/178 45/162/180
s 44
f 29/163/181 24/164/182 46/165/183
f 46/165/183 24/164/182 45/166/184
s off
f 24/167/185 42/168/186 45/169/187
s 45
f 41/170/188 42/171/189 51/172/190
f 51/172/190 42/171/189 54/173/191
s off
f 41/174/192 29/175/193 46/176/194
s 46
f 31/177/195 29/178/196 48/179/197
f 48/179/197 29/178/196 46/180/198
s off
f 29/181/199 41/182/200 46/183/201
s 47
f 34/184/202 31/177/203 49/185/204
f 49/185/204 31/177/203 48/179/205
s off
f 42/186/206 24/187/207 45/188/208
s 48
f 24/189/209 33/190/210 45/191/211
f 45/191/211 33/190/210 49/185/212
s off
f 33/190/213 34/184/214 49/185/215
f 41/192/216 40/193/217 51/194/218
s 49
f 40/195/219 43/196/220 51/197/221
f 51/197/221 43/196/220 52/198/222
s 50
f 43/199/223 44/200/224 52/201/225
f 52/201/225 44/200/224 53/202/226
s 51
f 44/203/227 39/204/228 53/205/229
f 53/205/229 39/204/228 54/206/230
s off
f 39/207/231 42/208/232 54/209/233
f 42/210/234 39/211/235 54/212/236
s 52
f 39/213/237 40/214/238 54/215/239
f 54/215/239 40/214/238 51/216/240
s off
f 40/217/241 41/218/242 51/219/243
f 19/220/244 20/221/245 21/222/246
s 53
f 25/223/247 27/224/248 19/225/249
f 19/225/249 27/224/248 20/226/250
s off
f 27/227/251 36/228/252 20/229/253
