# This file uses centimeters as units for non-parametric coordinates.

mtllib GuardHouse.mtl
g default
v -15.000000 -0.250000 15.000000
v 15.000000 -0.250000 15.000000
v -15.000000 0.250000 15.000000
v 4.438184 0.250000 15.000000
v 13.314552 0.250000 15.000000
v 15.000000 0.250000 15.000000
v -13.314552 0.250000 13.265424
v 4.438184 0.250000 13.265424
v 13.314552 0.250000 13.265424
v -15.000000 0.250000 -15.000000
v -13.314552 0.250000 -13.265425
v 13.314552 0.250000 -13.265425
v 15.000000 0.250000 -15.000000
v -15.000000 -0.250000 -15.000000
v 15.000000 -0.250000 -15.000000
v -15.000000 18.250000 15.000000
v -13.314552 18.250000 13.265424
v 4.438184 18.250000 15.000000
v 4.438184 18.250000 13.265424
v -13.314552 18.250000 -13.265425
v -15.000000 18.250000 -15.000000
v 13.314552 18.250000 -13.265425
v 15.000000 18.250000 -15.000000
v 13.314552 18.250000 13.265424
v 13.314552 18.250000 15.000000
v 15.000000 18.250000 15.000000
v 4.438184 12.735397 15.000000
v 4.438184 12.735397 13.265424
v 13.314552 12.735397 15.000000
v 13.314552 12.735397 13.265424
v -13.314552 20.250000 13.265424
v -13.314552 20.250000 -13.265425
v -17.000000 23.250000 -17.000000
v -17.000000 23.250000 17.000000
v 13.314552 20.250000 -13.265425
v 13.314552 20.250000 13.265424
v -17.000000 18.250000 17.000000
v -17.000000 18.250000 -17.000000
v 17.000000 23.250000 -17.000000
v 17.000000 18.250000 -17.000000
v 17.000000 18.250000 17.000000
v 17.000000 23.250000 17.000000
v -13.314552 23.250000 -13.265425
v 13.314552 23.250000 -13.265425
v 13.314552 23.250000 13.265424
v -13.314552 23.250000 13.265424
v 0.000000 0.250000 -13.265425
v -13.314552 0.250000 9.265424
v 4.438184 0.250000 9.265424
v -13.314552 6.978006 6.547873
v 4.438184 6.978006 6.547873
v 4.438184 0.250000 16.000000
v 13.314552 0.250000 16.000000
v -16.000000 0.250000 16.000000
v -16.000000 -0.250000 16.000000
v 16.000000 -0.250000 16.000000
v 16.000000 0.250000 16.000000
v -16.000000 0.250000 -16.000000
v 16.000000 0.250000 -16.000000
v 16.000000 -0.250000 -16.000000
v -16.000000 -0.250000 -16.000000
vt 0.427083 0.000000
vt 0.572917 0.000000
vt 0.398611 0.263889
vt 0.525000 0.286458
vt 0.575000 0.270833
vt 0.652778 0.277778
vt 0.473177 0.354167
vt 0.537500 0.333333
vt 0.568750 0.354167
vt 0.412500 0.479167
vt 0.450000 0.416667
vt 0.550000 0.416667
vt 0.587500 0.479167
vt 0.412500 0.791667
vt 0.587500 0.791667
vt 0.443750 0.953125
vt 0.556250 0.953125
vt 0.833333 0.000000
vt 0.833333 0.250000
vt 0.166667 0.000000
vt 0.398611 0.263889
vt 0.525000 0.286458
vt 0.525000 0.333333
vt 0.450000 0.333333
vt 0.450000 0.416667
vt 0.412500 0.479167
vt 0.550000 0.416667
vt 0.587500 0.479167
vt 0.575000 0.333333
vt 0.575000 0.270833
vt 0.652778 0.277778
vt 0.525000 0.286458
vt 0.525000 0.333333
vt 0.575000 0.270833
vt 0.575000 0.333333
vt 0.525000 0.333333
vt 0.525000 0.333333
vt 0.525000 0.286458
vt 0.525000 0.286458
vt 0.450000 0.333333
vt 0.450000 0.416667
vt 0.412500 0.479167
vt 0.398611 0.263889
vt 0.550000 0.416667
vt 0.575000 0.333333
vt 0.575000 0.333333
vt 0.550000 0.416667
vt 0.550000 0.500000
vt 0.550000 0.500000
vt 0.550000 0.416667
vt 0.575000 0.333333
vt 0.575000 0.270833
vt 0.575000 0.270833
vt 0.412500 0.479167
vt 0.398611 0.263889
vt 0.587500 0.479167
vt 0.587500 0.479167
vt 0.550000 0.500000
vt 0.613889 0.274306
vt 0.613889 0.274306
vt 0.575000 0.270833
vt 0.550000 0.416667
vt 0.550000 0.416667
vt 0.575000 0.333333
vt 0.575000 0.333333
vt 0.450000 0.333333
vt 0.450000 0.416667
vt 0.500000 0.416667
vt 0.537500 0.333333
vt 0.473177 0.354167
vt 0.450000 0.333333
vt 0.525000 0.333333
vt 0.575000 0.270833
vt 0.525000 0.286458
vt 0.398611 0.263889
vt 0.427083 0.000000
vt 0.572917 0.000000
vt 0.652778 0.277778
vt 0.412500 0.479167
vt 0.587500 0.479167
vt 0.587500 0.791667
vt 0.412500 0.791667
vt 0.833333 0.000000
vt 0.833333 0.250000
vt 0.166667 0.000000
vt 0.166667 0.250000
vn 0.000000 0.000000 1.000000
vn 0.000000 0.000000 1.000000
vn 0.000000 0.000000 1.000000
vn 0.000000 0.000000 1.000000
vn 0.000000 0.000000 1.000000
vn 0.000000 0.000000 1.000000
vn 0.000000 0.641508 -0.767116
vn 0.000000 1.000000 0.000001
vn 0.000000 1.000000 0.000001
vn 0.000000 0.640523 -0.767939
vn 0.000000 1.000000 0.000000
vn 0.000000 1.000000 0.000000
vn 0.000000 1.000000 0.000000
vn 0.000000 1.000000 0.000000
vn 0.000000 1.000000 0.000000
vn 0.000000 1.000000 0.000000
vn 0.000000 1.000000 0.000000
vn 0.000000 1.000000 0.000000
vn 0.000000 0.000000 -1.000000
vn 0.000000 0.000000 -1.000000
vn 0.000000 0.000000 -1.000000
vn 0.000000 0.000000 -1.000000
vn 0.000000 -1.000000 0.000000
vn 0.000000 -1.000000 0.000000
vn 0.000000 -1.000000 0.000000
vn 0.000000 -1.000000 0.000000
vn 1.000000 0.000000 0.000000
vn 1.000000 0.000000 0.000000
vn 1.000000 0.000000 0.000000
vn 1.000000 0.000000 0.000000
vn -1.000000 0.000000 0.000000
vn -1.000000 0.000000 0.000000
vn -1.000000 0.000000 0.000000
vn -1.000000 0.000000 0.000000
vn 0.000000 0.000000 1.000000
vn 0.000000 0.000000 1.000000
vn 0.000000 0.000000 1.000000
vn 0.000000 0.000000 1.000000
vn 0.000000 0.000000 1.000000
vn 0.000000 -0.374519 -0.927219
vn 0.000000 -0.374519 -0.927219
vn 0.000000 -0.374519 -0.927219
vn 0.000000 -0.374519 -0.927219
vn 1.000000 0.000000 0.000000
vn 1.000000 0.000000 0.000000
vn 1.000000 0.000000 0.000000
vn 1.000000 0.000000 0.000000
vn -1.000000 0.000000 0.000000
vn -1.000000 0.000000 0.000000
vn -1.000000 0.000000 0.000000
vn -1.000000 0.000000 0.000000
vn 0.000000 0.000000 1.000000
vn 0.000000 0.000000 1.000000
vn 0.000000 0.000000 1.000000
vn 0.000000 0.000000 1.000000
vn 0.000000 0.000000 1.000000
vn 0.000000 0.000000 -1.000000
vn 0.000000 0.000000 -1.000000
vn 0.000000 0.000000 -1.000000
vn 0.000000 0.000000 -1.000000
vn -1.000000 0.000000 0.000000
vn -1.000000 0.000000 0.000000
vn -1.000000 0.000000 0.000000
vn -1.000000 0.000000 0.000000
vn -1.000000 0.000000 0.000000
vn -1.000000 0.000000 0.000000
vn -1.000000 0.000000 0.000000
vn 0.000000 0.000000 1.000000
vn 0.000000 0.000000 1.000000
vn 0.000000 0.000000 1.000000
vn 0.000000 0.000000 1.000000
vn 0.000000 0.000000 1.000000
vn 1.000000 0.000000 0.000000
vn 1.000000 0.000000 0.000000
vn 1.000000 0.000000 0.000000
vn 1.000000 0.000000 0.000000
vn 1.000000 0.000000 0.000000
vn 1.000000 0.000000 0.000000
vn 1.000000 0.000000 0.000000
vn 1.000000 0.000000 0.000000
vn 1.000000 0.000000 0.000000
vn 1.000000 0.000000 0.000000
vn 1.000000 0.000000 0.000000
vn 1.000000 0.000000 0.000000
vn -1.000000 0.000000 0.000000
vn -1.000000 0.000000 0.000000
vn -1.000000 0.000000 0.000000
vn -1.000000 0.000000 0.000000
vn 0.000000 0.000000 -1.000000
vn 0.000000 0.000000 -1.000000
vn 0.000000 0.000000 -1.000000
vn 0.000000 0.000000 -1.000000
vn 0.000000 1.000000 0.000000
vn 0.000000 1.000000 0.000000
vn 0.000000 0.000000 1.000000
vn 0.000000 0.000000 1.000000
vn 0.000000 -1.000000 0.000000
vn 0.000000 -1.000000 0.000000
vn 0.000000 -1.000000 0.000000
vn 0.000000 -1.000000 0.000000
vn -1.000000 0.000000 0.000000
vn -1.000000 0.000000 0.000000
vn -0.950951 0.309342 0.000000
vn -0.950951 0.309343 0.000000
vn 0.999999 0.001419 0.000000
vn 0.999999 0.001419 0.000000
vn 0.999999 0.001419 0.000000
vn 0.999999 0.001419 0.000000
vn 0.999999 0.001419 0.000000
vn 0.999999 0.001419 0.000000
vn 0.999999 0.001419 0.000000
vn 0.999999 0.001419 0.000000
vn 0.409882 0.814858 -0.409882
vn 0.000000 0.000000 -1.000000
vn 0.000000 0.000000 -1.000000
vn 0.000000 0.707952 -0.706260
vn -0.999999 -0.001420 0.000000
vn -0.999999 -0.001420 0.000000
vn -0.999999 -0.001420 0.000000
vn -0.999999 -0.001420 0.000000
vn -0.999999 -0.001420 0.000000
vn -0.999999 -0.001420 0.000000
vn -0.999999 -0.001420 0.000000
vn -0.999999 -0.001420 0.000000
vn 1.000000 0.000000 0.000000
vn 1.000000 0.000000 0.000000
vn 0.409882 0.814858 0.409882
vn 0.000000 1.000000 0.000000
vn 0.000000 1.000000 0.000000
vn 0.000000 1.000000 0.000000
vn 0.000000 1.000000 0.000000
vn 0.000000 1.000000 0.000000
vn 0.000000 1.000000 0.000000
vn 0.000000 1.000000 0.000000
vn 0.000000 1.000000 0.000000
vn 0.000000 0.707952 0.706260
vn 0.000000 -1.000000 0.000000
vn 0.000000 -1.000000 0.000000
vn 0.000000 -1.000000 0.000000
vn 0.000000 -1.000000 0.000000
vn 0.000000 -1.000000 0.000000
vn 0.000000 -1.000000 0.000000
vn 0.000000 -1.000000 0.000000
vn 0.000000 -1.000000 0.000000
vn 0.000000 -1.000000 0.000000
vn 0.000000 -1.000000 0.000000
vn 0.000000 0.000000 1.000000
vn 0.000000 0.000000 1.000000
vn 0.000000 -1.000000 0.000000
vn 0.000000 -1.000000 0.000000
vn 0.000000 -1.000000 0.000000
vn 0.000000 -1.000000 0.000000
vn 0.707107 0.000000 0.707107
vn 0.707107 0.000000 0.707107
vn 0.707107 0.000000 0.707107
vn 0.000000 1.000000 0.000000
vn 0.000000 1.000000 0.000000
vn 0.707107 0.000000 -0.707107
vn 0.707107 0.000000 -0.707107
vn 0.707107 0.000000 -0.707107
vn 0.000000 -1.000000 0.000000
vn 0.000000 -1.000000 0.000000
vn 0.000000 -1.000000 0.000000
vn 0.000000 -1.000000 0.000000
vn -0.707107 0.000000 0.707107
vn -0.707107 0.000000 0.707107
vn -0.707107 0.000000 0.707107
vn 0.000000 -1.000000 0.000000
vn 0.000000 -1.000000 0.000000
vn -0.707107 0.000000 -0.707107
vn -0.707107 0.000000 -0.707107
vn -0.707107 0.000000 -0.707107
vn 0.000000 -1.000000 0.000000
vn -0.711773 0.000000 0.702410
vn -0.711773 0.000000 0.702410
vn -0.711773 0.000000 0.702410
vn 0.000000 0.000000 1.000000
vn 0.000000 0.000000 1.000000
vn 0.000000 0.000000 1.000000
vn 0.000000 0.000000 1.000000
vn -1.000000 0.000000 0.000000
vn -1.000000 0.000000 0.000000
vn -1.000000 0.000000 0.000000
vn -1.000000 0.000000 0.000000
vn 0.000000 0.000000 -1.000000
vn 0.000000 0.000000 -1.000000
vn 0.000000 0.000000 -1.000000
vn 0.000000 0.000000 -1.000000
vn -0.711773 0.000000 -0.702410
vn -0.711773 0.000000 -0.702410
vn -0.711773 0.000000 -0.702410
vn 0.711773 0.000000 0.702410
vn 0.711773 0.000000 0.702410
vn 0.711773 0.000000 0.702410
vn 1.000000 0.000000 0.000000
vn 1.000000 0.000000 0.000000
vn 1.000000 0.000000 0.000000
vn 1.000000 0.000000 0.000000
vn 0.711773 0.000000 -0.702410
vn 0.711773 0.000000 -0.702410
vn 0.711773 0.000000 -0.702410
vn 0.000000 0.000000 0.000000
vn 0.000000 1.000000 0.000000
vn 0.000000 1.000000 0.000000
vn 0.000000 1.000000 0.000000
vn 0.000000 1.000000 0.000000
vn 0.000000 1.000000 0.000000
vn 0.000000 -1.000000 0.000000
vn 0.000000 -1.000000 0.000000
vn 0.000000 -1.000000 0.000000
vn 0.000000 -1.000000 0.000000
vn -1.000000 0.000000 0.000000
vn -1.000000 0.000000 0.000000
vn -1.000000 0.000000 0.000000
vn -1.000000 0.000000 0.000000
vn 0.000000 0.511936 -0.859024
vn 0.000000 0.511936 -0.859024
vn 1.000000 0.000000 0.000000
vn 1.000000 0.000000 0.000000
vn 1.000000 0.000000 0.000000
vn 0.000000 1.000000 0.000000
vn 0.000000 1.000000 0.000000
vn 0.000000 1.000000 0.000000
vn 0.000000 1.000000 0.000000
vn 0.000000 1.000000 0.000000
vn 0.000000 1.000000 0.000000
vn 0.000000 1.000000 0.000000
vn 0.000000 1.000000 0.000000
vn 0.000000 1.000000 0.000000
vn 0.000000 1.000000 0.000000
vn 0.000000 -1.000000 0.000000
vn 0.000000 -1.000000 0.000000
vn 0.000000 -1.000000 0.000000
vn 0.000000 -1.000000 0.000000
s off
g pCube1
usemtl initialShadingGroup
f 53/73/1 52/74/2 54/75/3 55/76/4 56/77/5 57/78/6
s 1
f 17/24/7 16/21/8 18/22/9 19/23/10
s 2
f 4/4/11 5/5/12 9/9/13 8/8/14
s off
f 21/26/15 20/25/16 22/27/17 23/28/18
f 58/79/19 59/80/20 60/81/21 61/82/22
s 3
f 14/14/23 15/15/24 2/17/25 1/16/26
s off
f 56/77/27 60/83/28 59/84/29 57/78/30
f 61/85/31 55/76/32 54/75/33 58/86/34
s 4
f 3/3/35 4/4/36 27/32/37 18/22/38 16/21/39
s off
f 49/69/40 48/70/41 50/71/42 51/72/43
f 7/7/44 11/11/45 20/25/46 17/24/47
f 10/10/48 3/3/49 16/21/50 21/26/51
f 11/11/52 47/68/53 12/12/54 22/27/55 20/25/56
f 13/13/57 10/10/58 21/26/59 23/28/60
s 5
f 12/12/61 9/9/62 30/35/63 24/29/64 22/27/65
f 30/35/63 9/9/62 5/5/66 29/34/67
s off
f 5/5/68 6/6/69 26/31/70 25/30/71 29/34/72
f 6/6/73 13/13/74 23/28/75 26/31/76
s 6
f 4/4/77 8/8/78 28/33/79 27/32/80
s off
f 30/36/81 24/37/82 25/38/83 29/39/84
f 25/30/85 24/29/86 30/35/87 29/34/88
f 28/33/89 19/23/90 24/37/91 30/36/92
s 1
f 19/23/10 18/22/9 25/38/93 24/37/94
s 4
f 18/22/38 27/32/37 29/39/95 25/38/96
s off
f 27/32/97 28/33/98 30/36/99 29/39/100
s 7
f 38/54/101 37/55/102 34/43/103 33/42/104
s off
f 32/41/105 31/40/106 34/43/107 16/21/108 17/24/109 20/25/110 21/26/111 33/42/112
s 8
f 39/56/113 40/57/114 38/58/115 33/48/116
s off
f 31/46/117 32/47/118 33/48/119 21/49/120 20/50/121 17/51/122 16/52/123 34/53/124
s 8
f 41/59/125 40/57/126 39/56/113 42/60/127
s off
f 36/45/128 35/44/129 32/47/130 31/46/131
s 8
f 39/56/113 33/48/116 43/62/132 44/63/133 45/64/134 46/65/135 34/53/136 42/60/127
s off
f 23/28/137 22/27/138 20/50/139 21/49/140
s 9
f 22/27/141 24/29/142 17/51/143 20/50/144
f 24/29/142 25/30/145 16/52/146 17/51/143
s 8
f 42/60/127 34/53/136 37/61/147 41/59/148
s off
f 21/26/149 16/21/150 37/55/151 38/54/152
f 16/21/153 34/43/154 37/55/155
s 7
f 33/42/104 34/43/103 46/66/156 43/67/157
s off
f 33/42/158 21/26/159 38/54/160
s 9
f 23/28/161 21/49/162 38/58/163 40/57/164
s off
f 21/49/165 33/48/166 38/58/167
s 9
f 26/31/168 23/28/161 40/57/164 41/59/169
s off
f 34/53/170 16/52/171 37/61/172
s 9
f 16/52/146 25/30/145 41/59/169 37/61/173
f 25/30/145 26/31/168 41/59/169
s off
f 33/48/174 32/47/175 43/62/176
f 32/47/177 35/44/178 44/63/179 43/62/180
f 35/44/181 36/45/182 45/64/183 44/63/184
f 36/45/185 31/46/186 46/65/187 45/64/188
f 31/46/189 34/53/190 46/65/191
f 34/43/192 31/40/193 46/66/194
f 31/40/195 32/41/196 43/67/197 46/66/198
f 32/41/199 33/42/200 43/67/201
s 2
f 7/7/202 8/8/14 9/9/13
s off
f 7/7/203 9/9/204 12/12/205 47/68/206 11/11/207
f 8/8/208 7/7/209 48/70/210 49/69/211
f 7/7/212 17/24/213 50/71/214 48/70/215
s 1
f 17/24/7 19/23/10 51/72/216 50/71/217
s 6
f 51/72/218 19/23/219 28/33/79 8/8/78 49/69/220
s off
f 58/86/221 54/75/222 52/74/223 53/73/224 57/78/225 59/80/226 4/4/11 3/3/227 10/10/228 13/19/229 6/6/230 5/5/12
s 3
f 1/1/26 2/2/25 56/77/231 55/76/232
f 15/15/24 14/14/23 61/82/233 60/81/234
f 2/2/25 15/18/24 60/83/234 56/77/231
f 14/20/23 1/1/26 55/76/232 61/85/233
