# This file uses centimeters as units for non-parametric coordinates.

mtllib GuardControl.mtl
g default
v -13.272952 0.268911 13.171688
v 1.727048 0.268911 13.171688
v -13.272952 3.268911 13.171688
v 1.727048 3.268911 13.171688
v -13.272952 6.268911 13.171688
v 1.727048 6.268911 13.171688
v -13.272952 6.268911 11.171687
v 1.727048 6.268911 11.171687
v -13.272952 2.057289 9.677051
v 1.727048 2.057289 9.677051
v -13.272952 0.268911 11.171688
v 1.727048 0.268911 11.171688
vt 0.375000 0.000000
vt 0.625000 0.000000
vt 0.375000 0.125000
vt 0.625000 0.125000
vt 0.375000 0.250000
vt 0.625000 0.250000
vt 0.375000 0.750000
vt 0.625000 0.750000
vt 0.375000 1.000000
vt 0.625000 1.000000
vt 0.125000 0.000000
vt 0.125000 0.125000
vt 0.125000 0.250000
vt 1.492798 0.750224
vt -0.491153 0.750224
vt -0.491153 -0.008373
vt 1.492798 -0.008374
vt 0.248708 0.981453
vt 0.248708 0.962988
vt 0.249110 0.962988
vt 0.249110 0.981453
vt 0.249510 0.962988
vt 0.249912 0.962988
vt 0.250212 0.965190
vt 0.249510 0.966681
vt 0.249912 0.970374
vt 0.249510 0.970374
vt 0.249129 0.981453
vt 0.249129 0.962988
vt 0.249488 0.962988
vt 0.249488 0.981453
vn 0.000000 0.000000 1.000000
vn 0.000000 0.000000 1.000000
vn 0.000000 0.000000 1.000000
vn 0.000000 0.000000 1.000000
vn 0.000000 0.000000 1.000000
vn 0.000000 0.000000 1.000000
vn 0.000000 1.000000 0.000000
vn 0.000000 1.000000 0.000000
vn 0.000000 1.000000 0.000000
vn 0.000000 1.000000 0.000000
vn 0.000000 0.334448 -0.942414
vn 0.000000 0.334448 -0.942414
vn 0.000000 -0.000000 -1.000000
vn 0.000000 -0.000000 -1.000000
vn 0.000000 -0.641278 -0.767309
vn 0.000000 -0.641278 -0.767309
vn 0.000000 -1.000000 0.000000
vn 0.000000 -1.000000 0.000000
vn 0.000000 -1.000000 0.000000
vn 0.000000 -1.000000 0.000000
vn 1.000000 0.000000 0.000000
vn 1.000000 0.000000 0.000000
vn 1.000000 0.000000 0.000000
vn 1.000000 0.000000 0.000000
vn 1.000000 0.000000 0.000000
vn 1.000000 0.000000 0.000000
vn -1.000000 0.000000 0.000000
vn -1.000000 0.000000 0.000000
vn -1.000000 0.000000 0.000000
vn -1.000000 0.000000 0.000000
vn -1.000000 0.000000 0.000000
vn -1.000000 0.000000 0.000000
s 1
g initialShadingGroup pCube6
f 1/1/1 2/2/2 4/4/3 3/3/4
f 3/3/4 4/4/3 6/6/5 5/5/6
s off
f 5/18/7 6/19/8 8/20/9 7/21/10
s 2
f 7/14/11 8/15/12 10/16/13 9/17/14
f 9/28/14 10/29/13 12/30/15 11/31/16
s off
f 11/7/17 12/8/18 2/10/19 1/9/20
s 3
f 2/22/21 12/23/22 10/24/23 4/25/24
f 4/25/24 10/24/23 8/26/25 6/27/26
s 4
f 11/11/27 1/1/28 3/3/29 9/12/30
f 9/12/30 3/3/29 5/5/31 7/13/32
