# This file uses centimeters as units for non-parametric coordinates.

mtllib handgun.mtl
g default
v -0.322391 0.351317 0.150946
v 0.462135 0.351317 0.150946
v -0.322391 0.555689 0.150946
v 0.462135 0.555689 0.150946
v -0.322391 0.555689 -0.144162
v 0.462135 0.555689 -0.144162
v -0.322391 0.351317 -0.144162
v 0.462135 0.351317 -0.144162
vt 0.375000 0.000000
vt 0.625000 0.000000
vt 0.625000 0.250000
vt 0.375000 0.250000
vt 0.625000 0.500000
vt 0.375000 0.500000
vt 0.625000 0.750000
vt 0.375000 0.750000
vt 0.625000 1.000000
vt 0.375000 1.000000
vt 0.875000 0.000000
vt 0.875000 0.250000
vt 0.125000 0.000000
vt 0.125000 0.250000
vn 0.000000 0.000000 1.000000
vn 0.000000 0.000000 1.000000
vn 0.000000 0.000000 1.000000
vn 0.000000 0.000000 1.000000
vn 0.000000 1.000000 0.000000
vn 0.000000 1.000000 0.000000
vn 0.000000 1.000000 0.000000
vn 0.000000 1.000000 0.000000
vn 0.000000 0.000000 -1.000000
vn 0.000000 0.000000 -1.000000
vn 0.000000 0.000000 -1.000000
vn 0.000000 0.000000 -1.000000
vn 0.000000 -1.000000 0.000000
vn 0.000000 -1.000000 0.000000
vn 0.000000 -1.000000 0.000000
vn 0.000000 -1.000000 0.000000
vn 1.000000 0.000000 0.000000
vn 1.000000 0.000000 0.000000
vn 1.000000 0.000000 0.000000
vn 1.000000 0.000000 0.000000
vn -1.000000 0.000000 0.000000
vn -1.000000 0.000000 0.000000
vn -1.000000 0.000000 0.000000
vn -1.000000 0.000000 0.000000
s off
g pCube2
usemtl initialShadingGroup
f 1/1/1 2/2/2 4/3/3 3/4/4
f 3/4/5 4/3/6 6/5/7 5/6/8
f 5/6/9 6/5/10 8/7/11 7/8/12
f 7/8/13 8/7/14 2/9/15 1/10/16
f 2/2/17 8/11/18 6/12/19 4/3/20
f 7/13/21 1/1/22 3/4/23 5/14/24
g default
v 0.511646 -0.092388 0.132845
v 0.671925 -0.042474 0.126420
v 0.306401 0.362522 0.141154
v 0.466678 0.412437 0.134729
v 0.290917 0.362564 -0.128058
v 0.451194 0.412478 -0.134482
v 0.496162 -0.092346 -0.136367
v 0.656440 -0.042432 -0.142791
vt 0.375000 0.000000
vt 0.625000 0.000000
vt 0.625000 0.250000
vt 0.375000 0.250000
vt 0.625000 0.500000
vt 0.375000 0.500000
vt 0.625000 0.750000
vt 0.375000 0.750000
vt 0.625000 1.000000
vt 0.375000 1.000000
vt 0.875000 0.000000
vt 0.875000 0.250000
vt 0.125000 0.000000
vt 0.125000 0.250000
vn 0.040102 -0.000156 0.999196
vn 0.040102 -0.000156 0.999196
vn 0.040102 -0.000156 0.999196
vn 0.040102 -0.000156 0.999196
vn -0.296667 0.954826 0.017211
vn -0.296667 0.954826 0.017211
vn -0.296667 0.954826 0.017211
vn -0.296667 0.954826 0.017211
vn -0.040101 0.000157 -0.999196
vn -0.040101 0.000157 -0.999196
vn -0.040101 0.000157 -0.999196
vn -0.040101 0.000157 -0.999196
vn 0.296667 -0.954826 -0.017211
vn 0.296667 -0.954826 -0.017211
vn 0.296667 -0.954826 -0.017211
vn 0.296667 -0.954826 -0.017211
vn 0.909914 0.411489 -0.052272
vn 0.909914 0.411489 -0.052272
vn 0.909914 0.411489 -0.052272
vn 0.909914 0.411489 -0.052272
vn -0.909914 -0.411489 0.052272
vn -0.909914 -0.411489 0.052272
vn -0.909914 -0.411489 0.052272
vn -0.909914 -0.411489 0.052272
s off
g pCube3
usemtl initialShadingGroup
f 9/15/25 10/16/26 12/17/27 11/18/28
f 11/18/29 12/17/30 14/19/31 13/20/32
f 13/20/33 14/19/34 16/21/35 15/22/36
f 15/22/37 16/21/38 10/23/39 9/24/40
f 10/16/41 16/25/42 14/26/43 12/17/44
f 15/27/45 9/15/46 11/18/47 13/28/48
