# This file uses centimeters as units for non-parametric coordinates.

mtllib LaysChips.mtl
g default
v 0.505758 -0.771746 0.013681
v -0.488080 -0.783130 0.007470
v 0.488028 0.783196 0.000691
v -0.505810 0.771812 -0.005520
v -0.504206 0.550891 0.142743
v -0.501673 0.328756 0.144597
v -0.499140 0.106622 0.146455
v -0.496607 -0.115514 0.148311
v -0.494075 -0.337648 0.150164
v -0.491542 -0.559783 0.152023
v -0.489632 -0.562275 -0.148946
v -0.492165 -0.340141 -0.150801
v -0.494698 -0.118006 -0.152658
v -0.497231 0.104129 -0.154513
v -0.499764 0.326263 -0.156369
v -0.502297 0.548399 -0.158224
v -0.489632 -0.562275 -0.148946
v -0.492165 -0.340141 -0.150801
v -0.494698 -0.118006 -0.152658
v -0.497231 0.104129 -0.154513
v -0.499764 0.326263 -0.156369
v -0.502297 0.548399 -0.158224
v 0.504206 -0.550891 -0.142735
v 0.501673 -0.328757 -0.144590
v 0.499140 -0.106621 -0.146446
v 0.496607 0.115514 -0.148302
v 0.494074 0.337648 -0.150158
v 0.491542 0.559782 -0.152013
v 0.504206 -0.550891 -0.142735
v 0.501673 -0.328757 -0.144590
v 0.499140 -0.106621 -0.146446
v 0.496607 0.115514 -0.148302
v 0.494074 0.337648 -0.150158
v 0.491542 0.559782 -0.152013
v 0.489632 0.562275 0.148954
v 0.492166 0.340141 0.150808
v 0.494698 0.118006 0.152666
v 0.497231 -0.104129 0.154521
v 0.499763 -0.326263 0.156376
v 0.502296 -0.548399 0.158234
v -0.504206 0.550891 0.142743
v -0.501673 0.328756 0.144597
v -0.499140 0.106622 0.146455
v -0.496607 -0.115514 0.148311
v -0.494075 -0.337648 0.150164
v -0.491542 -0.559783 0.152023
v 0.502296 -0.548399 0.158233
v 0.499763 -0.326263 0.156376
v 0.497231 -0.104128 0.154521
v 0.494698 0.118006 0.152666
v 0.492166 0.340141 0.150808
v 0.489632 0.562275 0.148954
v 0.433828 -0.550440 0.007317
v 0.431295 -0.328306 0.005463
v 0.428762 -0.106171 0.003606
v 0.426229 0.115964 0.001751
v 0.423697 0.338100 -0.000104
v 0.421164 0.560234 -0.001961
v -0.441579 0.550351 -0.007353
v -0.439046 0.328216 -0.005496
v -0.436513 0.106081 -0.003641
v -0.433980 -0.116054 -0.001786
v -0.431448 -0.338188 0.000071
v -0.428915 -0.560323 0.001926
vt 0.939157 0.239947
vt 0.843802 0.239947
vt 0.846385 0.139180
vt 0.748446 0.239947
vt 0.748446 0.743779
vt 0.843802 0.743779
vt 0.846385 0.844545
vt 0.939157 0.743779
vt 0.748446 0.643012
vt 0.843802 0.643012
vt 0.939157 0.643012
vt 0.748446 0.542246
vt 0.843802 0.542246
vt 0.939157 0.542246
vt 0.748446 0.441479
vt 0.843802 0.441479
vt 0.939157 0.441479
vt 0.748446 0.340713
vt 0.843802 0.340713
vt 0.939157 0.340713
vt 0.728347 0.845156
vt 0.243173 0.845156
vt 0.728347 0.743634
vt 0.243173 0.743634
vt 0.728347 0.236023
vt 0.243173 0.236023
vt 0.728347 0.134501
vt 0.243173 0.134501
vt 0.728347 0.337545
vt 0.243173 0.337545
vt 0.728347 0.439068
vt 0.243173 0.439068
vt 0.728347 0.540590
vt 0.243173 0.540590
vt 0.728347 0.642112
vt 0.243173 0.642112
vt 0.225300 0.742749
vt 0.135858 0.742749
vt 0.138281 0.844731
vt 0.046414 0.742749
vt 0.046414 0.232839
vt 0.135858 0.232839
vt 0.138281 0.130857
vt 0.225300 0.232839
vt 0.046414 0.334821
vt 0.135858 0.334821
vt 0.225300 0.334821
vt 0.046414 0.436803
vt 0.135858 0.436803
vt 0.225300 0.436803
vt 0.046414 0.538785
vt 0.135858 0.538785
vt 0.225300 0.538785
vt 0.046414 0.640767
vt 0.135858 0.640767
vt 0.225300 0.640767
vt 0.255877 0.130539
vt 0.739331 0.130271
vt 0.255667 0.247596
vt 0.739865 0.247502
vt 0.255821 0.742902
vt 0.740020 0.741913
vt 0.256616 0.860277
vt 0.740220 0.859036
vt 0.255396 0.643535
vt 0.740048 0.643180
vt 0.255232 0.544561
vt 0.740129 0.544109
vt 0.255233 0.445484
vt 0.740239 0.445606
vt 0.255496 0.346502
vt 0.740123 0.346279
vn -0.999888 0.013512 -0.006456
vn -0.996711 0.080735 -0.006992
vn -0.966523 0.256448 -0.008256
vn -0.966523 0.256448 -0.008256
vn -0.996711 0.080735 -0.006992
vn -0.999900 0.012553 -0.006448
vn -0.999353 -0.035453 -0.006046
vn -0.994610 -0.103544 -0.005452
vn -0.960423 -0.278520 -0.003786
vn -0.960423 -0.278520 -0.003786
vn -0.994610 -0.103544 -0.005452
vn -0.999319 -0.036411 -0.006038
vn -0.999915 -0.011453 -0.006249
vn -0.999915 -0.011453 -0.006249
vn -0.999353 -0.035453 -0.006046
vn -0.999353 -0.035453 -0.006046
vn -0.999915 -0.011453 -0.006249
vn -0.994610 -0.103544 -0.005452
vn -0.999915 -0.011453 -0.006249
vn -0.999915 -0.011453 -0.006249
vn -0.994610 -0.103544 -0.005452
vn -0.999915 -0.011453 -0.006249
vn -0.999319 -0.036411 -0.006038
vn -0.994610 -0.103544 -0.005452
vn -0.999915 -0.011454 -0.006249
vn -0.999915 -0.011454 -0.006249
vn -0.999915 -0.011453 -0.006249
vn -0.999915 -0.011453 -0.006249
vn -0.999915 -0.011454 -0.006249
vn -0.999915 -0.011453 -0.006249
vn -0.999915 -0.011454 -0.006249
vn -0.999915 -0.011454 -0.006249
vn -0.999915 -0.011453 -0.006249
vn -0.999915 -0.011454 -0.006249
vn -0.999915 -0.011453 -0.006249
vn -0.999915 -0.011453 -0.006249
vn -0.999915 -0.011452 -0.006249
vn -0.999915 -0.011452 -0.006249
vn -0.999915 -0.011454 -0.006249
vn -0.999915 -0.011454 -0.006249
vn -0.999915 -0.011452 -0.006249
vn -0.999915 -0.011454 -0.006249
vn -0.999915 -0.011452 -0.006249
vn -0.999915 -0.011452 -0.006249
vn -0.999915 -0.011454 -0.006249
vn -0.999915 -0.011452 -0.006249
vn -0.999915 -0.011454 -0.006249
vn -0.999915 -0.011454 -0.006249
vn -0.999915 -0.011453 -0.006249
vn -0.999915 -0.011453 -0.006249
vn -0.999915 -0.011452 -0.006249
vn -0.999915 -0.011452 -0.006249
vn -0.999915 -0.011453 -0.006249
vn -0.999915 -0.011452 -0.006249
vn -0.999915 -0.011453 -0.006249
vn -0.999915 -0.011453 -0.006249
vn -0.999915 -0.011452 -0.006249
vn -0.999915 -0.011453 -0.006249
vn -0.999915 -0.011452 -0.006249
vn -0.999915 -0.011452 -0.006249
vn -0.999900 0.012553 -0.006448
vn -0.996711 0.080735 -0.006992
vn -0.999915 -0.011453 -0.006249
vn -0.999915 -0.011453 -0.006249
vn -0.996711 0.080735 -0.006992
vn -0.999915 -0.011453 -0.006249
vn -0.996711 0.080735 -0.006992
vn -0.999888 0.013512 -0.006456
vn -0.999915 -0.011453 -0.006249
vn -0.999888 0.013512 -0.006456
vn -0.999915 -0.011453 -0.006249
vn -0.999915 -0.011453 -0.006249
vn -0.001304 0.564272 -0.825588
vn -0.001304 0.564272 -0.825588
vn 0.002246 0.320714 -0.947174
vn 0.002246 0.320714 -0.947174
vn -0.001304 0.564272 -0.825588
vn 0.002246 0.320714 -0.947174
vn 0.009738 -0.336357 -0.941684
vn 0.009738 -0.336357 -0.941684
vn 0.011719 -0.577867 -0.816047
vn 0.011719 -0.577867 -0.816047
vn 0.009738 -0.336357 -0.941684
vn 0.011719 -0.577867 -0.816047
vn 0.006344 -0.008282 -0.999946
vn 0.006344 -0.008282 -0.999946
vn 0.009738 -0.336357 -0.941684
vn 0.009738 -0.336357 -0.941684
vn 0.006344 -0.008282 -0.999946
vn 0.009738 -0.336357 -0.941684
vn 0.006344 -0.008282 -0.999946
vn 0.006344 -0.008282 -0.999946
vn 0.006344 -0.008282 -0.999946
vn 0.006344 -0.008282 -0.999946
vn 0.006344 -0.008282 -0.999946
vn 0.006344 -0.008282 -0.999946
vn 0.006344 -0.008282 -0.999946
vn 0.006344 -0.008282 -0.999946
vn 0.006344 -0.008282 -0.999946
vn 0.006344 -0.008282 -0.999946
vn 0.006344 -0.008282 -0.999946
vn 0.006344 -0.008282 -0.999946
vn 0.006344 -0.008282 -0.999946
vn 0.006344 -0.008282 -0.999946
vn 0.006344 -0.008282 -0.999946
vn 0.006344 -0.008282 -0.999946
vn 0.006344 -0.008282 -0.999946
vn 0.006344 -0.008282 -0.999946
vn 0.002246 0.320714 -0.947174
vn 0.002246 0.320714 -0.947174
vn 0.006344 -0.008282 -0.999946
vn 0.006344 -0.008282 -0.999946
vn 0.002246 0.320714 -0.947174
vn 0.006344 -0.008282 -0.999946
vn 0.999832 -0.017161 0.006485
vn 0.995714 -0.092212 0.007081
vn 0.957793 -0.287336 0.008456
vn 0.957793 -0.287336 0.008456
vn 0.995714 -0.092212 0.007081
vn 0.999849 -0.016109 0.006477
vn 0.999221 0.039006 0.006016
vn 0.993352 0.114995 0.005350
vn 0.950991 0.309199 0.003473
vn 0.950991 0.309199 0.003473
vn 0.993352 0.114995 0.005350
vn 0.999179 0.040058 0.006007
vn 0.999915 0.011453 0.006249
vn 0.999915 0.011453 0.006249
vn 0.999221 0.039006 0.006016
vn 0.999221 0.039006 0.006016
vn 0.999915 0.011453 0.006249
vn 0.993352 0.114995 0.005350
vn 0.999915 0.011453 0.006249
vn 0.999915 0.011453 0.006249
vn 0.993352 0.114995 0.005350
vn 0.999915 0.011453 0.006249
vn 0.999179 0.040058 0.006007
vn 0.993352 0.114995 0.005350
vn 0.999915 0.011453 0.006249
vn 0.999915 0.011453 0.006249
vn 0.999915 0.011453 0.006249
vn 0.999915 0.011453 0.006249
vn 0.999915 0.011453 0.006249
vn 0.999915 0.011453 0.006249
vn 0.999915 0.011453 0.006249
vn 0.999915 0.011453 0.006249
vn 0.999915 0.011453 0.006249
vn 0.999915 0.011453 0.006249
vn 0.999915 0.011453 0.006249
vn 0.999915 0.011453 0.006249
vn 0.999915 0.011452 0.006249
vn 0.999915 0.011452 0.006249
vn 0.999915 0.011453 0.006249
vn 0.999915 0.011453 0.006249
vn 0.999915 0.011452 0.006249
vn 0.999915 0.011453 0.006249
vn 0.999915 0.011452 0.006249
vn 0.999915 0.011452 0.006249
vn 0.999915 0.011453 0.006249
vn 0.999915 0.011452 0.006249
vn 0.999915 0.011453 0.006249
vn 0.999915 0.011453 0.006249
vn 0.999915 0.011453 0.006249
vn 0.999915 0.011453 0.006249
vn 0.999915 0.011452 0.006249
vn 0.999915 0.011452 0.006249
vn 0.999915 0.011453 0.006249
vn 0.999915 0.011452 0.006249
vn 0.999915 0.011453 0.006249
vn 0.999915 0.011453 0.006249
vn 0.999915 0.011452 0.006249
vn 0.999915 0.011453 0.006249
vn 0.999915 0.011452 0.006249
vn 0.999915 0.011452 0.006249
vn 0.999849 -0.016109 0.006477
vn 0.995714 -0.092212 0.007081
vn 0.999915 0.011453 0.006249
vn 0.999915 0.011453 0.006249
vn 0.995714 -0.092212 0.007081
vn 0.999915 0.011453 0.006249
vn 0.995714 -0.092212 0.007081
vn 0.999832 -0.017161 0.006485
vn 0.999915 0.011453 0.006249
vn 0.999832 -0.017161 0.006485
vn 0.999915 0.011453 0.006249
vn 0.999915 0.011453 0.006249
vn 0.000978 -0.543328 0.839520
vn 0.000978 -0.543328 0.839520
vn -0.002457 -0.305075 0.952325
vn -0.002457 -0.305075 0.952325
vn 0.000978 -0.543328 0.839520
vn -0.002457 -0.305075 0.952325
vn -0.009593 0.320807 0.947096
vn -0.009593 0.320807 0.947096
vn -0.011571 0.557158 0.830326
vn -0.011571 0.557158 0.830326
vn -0.009593 0.320807 0.947096
vn -0.011571 0.557156 0.830327
vn -0.006344 0.008282 0.999946
vn -0.006344 0.008282 0.999946
vn -0.009593 0.320807 0.947096
vn -0.009593 0.320807 0.947096
vn -0.006344 0.008282 0.999946
vn -0.009593 0.320807 0.947096
vn -0.006343 0.008287 0.999946
vn -0.006343 0.008287 0.999946
vn -0.006344 0.008282 0.999946
vn -0.006344 0.008282 0.999946
vn -0.006343 0.008287 0.999946
vn -0.006344 0.008282 0.999946
vn -0.006343 0.008278 0.999946
vn -0.006343 0.008278 0.999946
vn -0.006343 0.008287 0.999946
vn -0.006343 0.008287 0.999946
vn -0.006343 0.008278 0.999946
vn -0.006343 0.008287 0.999946
vn -0.006343 0.008282 0.999946
vn -0.006343 0.008282 0.999946
vn -0.006343 0.008278 0.999946
vn -0.006343 0.008278 0.999946
vn -0.006343 0.008282 0.999946
vn -0.006343 0.008278 0.999946
vn -0.002457 -0.305075 0.952325
vn -0.002457 -0.305075 0.952325
vn -0.006343 0.008282 0.999946
vn -0.006343 0.008282 0.999946
vn -0.002457 -0.305075 0.952325
vn -0.006343 0.008282 0.999946
s off
g initialShadingGroup pCube25
f 10/1/1 64/2/2 2/3/3
f 2/3/4 64/2/5 11/4/6
f 16/5/7 59/6/8 4/7/9
f 4/7/10 59/6/11 5/8/12
f 15/9/13 60/10/14 16/5/15
f 16/5/16 60/10/17 59/6/18
f 60/10/19 6/11/20 59/6/21
f 6/11/22 5/8/23 59/6/24
f 14/12/25 61/13/26 15/9/27
f 15/9/28 61/13/29 60/10/30
f 61/13/31 7/14/32 60/10/33
f 7/14/34 6/11/35 60/10/36
f 13/15/37 62/16/38 14/12/39
f 14/12/40 62/16/41 61/13/42
f 62/16/43 8/17/44 61/13/45
f 8/17/46 7/14/47 61/13/48
f 12/18/49 63/19/50 13/15/51
f 13/15/52 63/19/53 62/16/54
f 63/19/55 9/20/56 62/16/57
f 9/20/58 8/17/59 62/16/60
f 11/4/61 64/2/62 12/18/63
f 12/18/64 64/2/65 63/19/66
f 64/2/67 10/1/68 63/19/69
f 10/1/70 9/20/71 63/19/72
f 4/21/73 3/22/74 22/23/75
f 22/23/76 3/22/77 28/24/78
f 17/25/79 23/26/80 2/27/81
f 2/27/82 23/26/83 1/28/84
f 18/29/85 24/30/86 17/25/87
f 17/25/88 24/30/89 23/26/90
f 19/31/91 25/32/92 18/29/93
f 18/29/94 25/32/95 24/30/96
f 20/33/97 26/34/98 19/31/99
f 19/31/100 26/34/101 25/32/102
f 21/35/103 27/36/104 20/33/105
f 20/33/106 27/36/107 26/34/108
f 22/23/109 28/24/110 21/35/111
f 21/35/112 28/24/113 27/36/114
f 35/37/115 58/38/116 3/39/117
f 3/39/118 58/38/119 34/40/120
f 29/41/121 53/42/122 1/43/123
f 1/43/124 53/42/125 40/44/126
f 30/45/127 54/46/128 29/41/129
f 29/41/130 54/46/131 53/42/132
f 54/46/133 39/47/134 53/42/135
f 39/47/136 40/44/137 53/42/138
f 31/48/139 55/49/140 30/45/141
f 30/45/142 55/49/143 54/46/144
f 55/49/145 38/50/146 54/46/147
f 38/50/148 39/47/149 54/46/150
f 32/51/151 56/52/152 31/48/153
f 31/48/154 56/52/155 55/49/156
f 56/52/157 37/53/158 55/49/159
f 37/53/160 38/50/161 55/49/162
f 33/54/163 57/55/164 32/51/165
f 32/51/166 57/55/167 56/52/168
f 57/55/169 36/56/170 56/52/171
f 36/56/172 37/53/173 56/52/174
f 34/40/175 58/38/176 33/54/177
f 33/54/178 58/38/179 57/55/180
f 58/38/181 35/37/182 57/55/183
f 35/37/184 36/56/185 57/55/186
f 2/57/187 1/58/188 46/59/189
f 46/59/190 1/58/191 47/60/192
f 41/61/193 52/62/194 4/63/195
f 4/63/196 52/62/197 3/64/198
f 42/65/199 51/66/200 41/61/201
f 41/61/202 51/66/203 52/62/204
f 43/67/205 50/68/206 42/65/207
f 42/65/208 50/68/209 51/66/210
f 44/69/211 49/70/212 43/67/213
f 43/67/214 49/70/215 50/68/216
f 45/71/217 48/72/218 44/69/219
f 44/69/220 48/72/221 49/70/222
f 46/59/223 47/60/224 45/71/225
f 45/71/226 47/60/227 48/72/228
