# This file uses centimeters as units for non-parametric coordinates.

mtllib LaysChips.mtl
g default
v 0.475381 -0.011427 0.790856
v -0.517404 0.027536 0.763613
v 0.517725 -0.019381 -0.763645
v -0.475060 0.019582 -0.790887
v -0.475351 0.167019 -0.569408
v -0.481400 0.168154 -0.347336
v -0.487449 0.169292 -0.125265
v -0.493498 0.170429 0.096807
v -0.499548 0.171562 0.318878
v -0.505597 0.172702 0.540950
v -0.517433 -0.128048 0.542166
v -0.511384 -0.129184 0.320095
v -0.505335 -0.130321 0.098023
v -0.499286 -0.131457 -0.124049
v -0.493237 -0.132593 -0.346120
v -0.487188 -0.133729 -0.568192
v -0.517433 -0.128048 0.542166
v -0.511384 -0.129184 0.320095
v -0.505335 -0.130321 0.098023
v -0.499286 -0.131457 -0.124049
v -0.493237 -0.132593 -0.346120
v -0.487188 -0.133729 -0.568192
v 0.475352 -0.167011 0.569408
v 0.481401 -0.168147 0.347337
v 0.487450 -0.169283 0.125265
v 0.493499 -0.170420 -0.096807
v 0.499548 -0.171556 -0.318878
v 0.505598 -0.172692 -0.540949
v 0.475352 -0.167011 0.569408
v 0.481401 -0.168147 0.347337
v 0.487450 -0.169283 0.125265
v 0.493499 -0.170420 -0.096807
v 0.499548 -0.171556 -0.318878
v 0.505598 -0.172692 -0.540949
v 0.517434 0.128056 -0.542166
v 0.511385 0.129191 -0.320095
v 0.505336 0.130329 -0.098023
v 0.499287 0.131465 0.124049
v 0.493237 0.132600 0.346120
v 0.487188 0.133739 0.568192
v -0.475351 0.167019 -0.569408
v -0.481400 0.168154 -0.347336
v -0.487449 0.169292 -0.125265
v -0.493498 0.170429 0.096807
v -0.499548 0.171562 0.318878
v -0.505597 0.172702 0.540950
v 0.487188 0.133738 0.568192
v 0.493237 0.132600 0.346120
v 0.499287 0.131465 0.124048
v 0.505336 0.130329 -0.098023
v 0.511385 0.129191 -0.320095
v 0.517434 0.128056 -0.542166
v 0.411920 -0.013913 0.566897
v 0.417969 -0.015048 0.344826
v 0.424018 -0.016185 0.122754
v 0.430067 -0.017321 -0.099318
v 0.436117 -0.018456 -0.321390
v 0.442166 -0.019594 -0.543461
v -0.419663 0.014229 -0.567109
v -0.425712 0.015367 -0.345038
v -0.431761 0.016502 -0.122966
v -0.437810 0.017638 0.099106
v -0.443859 0.018775 0.321177
v -0.449908 0.019911 0.543249
vt 0.846385 0.139180
vt 0.939157 0.239947
vt 0.843802 0.239947
vt 0.748446 0.239947
vt 0.748446 0.743779
vt 0.843802 0.743779
vt 0.939157 0.743779
vt 0.846385 0.844545
vt 0.748446 0.643012
vt 0.843802 0.643012
vt 0.939157 0.643012
vt 0.748446 0.542246
vt 0.843802 0.542246
vt 0.939157 0.542246
vt 0.748446 0.441479
vt 0.843802 0.441479
vt 0.939157 0.441479
vt 0.748446 0.340713
vt 0.843802 0.340713
vt 0.939157 0.340713
vt 0.728347 0.845156
vt 0.243173 0.845156
vt 0.243173 0.743634
vt 0.728347 0.743634
vt 0.728347 0.236023
vt 0.243173 0.236023
vt 0.243173 0.134501
vt 0.728347 0.134501
vt 0.728347 0.337545
vt 0.243173 0.337545
vt 0.728347 0.439068
vt 0.243173 0.439068
vt 0.728347 0.540590
vt 0.243173 0.540590
vt 0.728347 0.642112
vt 0.243173 0.642112
vt 0.138281 0.844731
vt 0.225300 0.742749
vt 0.135858 0.742749
vt 0.046414 0.742749
vt 0.046414 0.232839
vt 0.135858 0.232839
vt 0.225300 0.232839
vt 0.138281 0.130857
vt 0.046414 0.334821
vt 0.135858 0.334821
vt 0.225300 0.334821
vt 0.046414 0.436803
vt 0.135858 0.436803
vt 0.225300 0.436803
vt 0.046414 0.538785
vt 0.135858 0.538785
vt 0.225300 0.538785
vt 0.046414 0.640767
vt 0.135858 0.640767
vt 0.225300 0.640767
vt 0.255877 0.130539
vt 0.739331 0.130271
vt 0.739865 0.247502
vt 0.255667 0.247596
vt 0.255821 0.742902
vt 0.740020 0.741913
vt 0.740220 0.859036
vt 0.256616 0.860277
vt 0.255396 0.643535
vt 0.740048 0.643180
vt 0.255232 0.544561
vt 0.740129 0.544109
vt 0.255233 0.445484
vt 0.740239 0.445606
vt 0.255496 0.346502
vt 0.740123 0.346279
vn -0.997864 0.039061 -0.052355
vn -0.992096 0.038563 -0.119406
vn -0.955168 0.036404 -0.293818
vn -0.997914 0.039067 -0.051397
vn -0.999221 0.039313 -0.003405
vn -0.997115 0.039506 0.064821
vn -0.969736 0.039141 0.240998
vn -0.999224 0.039317 -0.002446
vn -0.998855 0.039201 -0.027409
vn -0.998855 0.039201 -0.027409
vn -0.999221 0.039313 -0.003405
vn -0.997115 0.039506 0.064821
vn -0.998855 0.039201 -0.027409
vn -0.999224 0.039317 -0.002446
vn -0.998855 0.039201 -0.027408
vn -0.998855 0.039201 -0.027408
vn -0.998855 0.039201 -0.027409
vn -0.998855 0.039201 -0.027409
vn -0.998855 0.039201 -0.027408
vn -0.998855 0.039201 -0.027409
vn -0.998855 0.039201 -0.027410
vn -0.998855 0.039201 -0.027410
vn -0.998855 0.039201 -0.027408
vn -0.998855 0.039201 -0.027408
vn -0.998855 0.039201 -0.027410
vn -0.998855 0.039201 -0.027408
vn -0.998855 0.039201 -0.027409
vn -0.998855 0.039201 -0.027409
vn -0.998855 0.039201 -0.027410
vn -0.998855 0.039201 -0.027410
vn -0.998855 0.039201 -0.027409
vn -0.998855 0.039201 -0.027410
vn -0.997914 0.039067 -0.051397
vn -0.992096 0.038563 -0.119406
vn -0.998855 0.039201 -0.027409
vn -0.998855 0.039201 -0.027409
vn -0.997864 0.039061 -0.052355
vn -0.998855 0.039201 -0.027409
vn -0.016730 -0.823141 -0.567590
vn -0.016730 -0.823141 -0.567590
vn -0.028196 -0.945423 -0.324625
vn -0.028196 -0.945423 -0.324625
vn -0.046089 -0.942061 0.332259
vn -0.046089 -0.942062 0.332259
vn -0.047833 -0.817299 0.574224
vn -0.047833 -0.817299 0.574224
vn -0.039326 -0.999218 0.004042
vn -0.039326 -0.999218 0.004042
vn -0.046089 -0.942061 0.332259
vn -0.046089 -0.942062 0.332259
vn -0.039326 -0.999218 0.004042
vn -0.039326 -0.999218 0.004042
vn -0.039326 -0.999218 0.004042
vn -0.039326 -0.999218 0.004042
vn -0.039326 -0.999218 0.004042
vn -0.039326 -0.999218 0.004042
vn -0.039326 -0.999218 0.004042
vn -0.039326 -0.999218 0.004042
vn -0.039326 -0.999218 0.004042
vn -0.039326 -0.999218 0.004042
vn -0.039326 -0.999218 0.004042
vn -0.039326 -0.999218 0.004042
vn -0.028196 -0.945423 -0.324625
vn -0.028196 -0.945423 -0.324625
vn -0.039326 -0.999218 0.004042
vn -0.039326 -0.999218 0.004042
vn 0.997667 -0.039039 0.055999
vn 0.990658 -0.038460 0.130836
vn 0.945258 -0.035891 0.324344
vn 0.997725 -0.039045 0.054949
vn 0.999226 -0.039327 -0.000151
vn 0.996300 -0.039520 -0.076312
vn 0.961503 -0.038942 -0.272021
vn 0.999225 -0.039332 -0.001203
vn 0.998855 -0.039201 0.027409
vn 0.998855 -0.039201 0.027409
vn 0.999226 -0.039327 -0.000151
vn 0.996300 -0.039520 -0.076312
vn 0.998855 -0.039201 0.027409
vn 0.999225 -0.039332 -0.001203
vn 0.998855 -0.039201 0.027409
vn 0.998855 -0.039201 0.027409
vn 0.998855 -0.039201 0.027409
vn 0.998855 -0.039201 0.027409
vn 0.998855 -0.039201 0.027409
vn 0.998855 -0.039201 0.027409
vn 0.998855 -0.039201 0.027410
vn 0.998855 -0.039201 0.027410
vn 0.998855 -0.039201 0.027409
vn 0.998855 -0.039201 0.027409
vn 0.998855 -0.039201 0.027410
vn 0.998855 -0.039201 0.027409
vn 0.998855 -0.039201 0.027409
vn 0.998855 -0.039201 0.027409
vn 0.998855 -0.039201 0.027410
vn 0.998855 -0.039201 0.027410
vn 0.998855 -0.039201 0.027409
vn 0.998855 -0.039201 0.027410
vn 0.997725 -0.039045 0.054949
vn 0.990658 -0.038460 0.130836
vn 0.998855 -0.039201 0.027409
vn 0.998855 -0.039201 0.027409
vn 0.997667 -0.039039 0.055999
vn 0.998855 -0.039201 0.027409
vn 0.017853 0.837131 0.546712
vn 0.017853 0.837131 0.546712
vn 0.028829 0.950621 0.309013
vn 0.028829 0.950621 0.309013
vn 0.045873 0.947419 -0.316691
vn 0.045873 0.947419 -0.316691
vn 0.047820 0.831501 -0.553461
vn 0.047820 0.831502 -0.553460
vn 0.039326 0.999218 -0.004042
vn 0.039326 0.999218 -0.004042
vn 0.045873 0.947419 -0.316691
vn 0.045873 0.947419 -0.316691
vn 0.039327 0.999218 -0.004047
vn 0.039327 0.999218 -0.004047
vn 0.039326 0.999218 -0.004042
vn 0.039326 0.999218 -0.004042
vn 0.039327 0.999218 -0.004038
vn 0.039327 0.999218 -0.004038
vn 0.039327 0.999218 -0.004047
vn 0.039327 0.999218 -0.004047
vn 0.039327 0.999218 -0.004042
vn 0.039327 0.999218 -0.004042
vn 0.039327 0.999218 -0.004038
vn 0.039327 0.999218 -0.004038
vn 0.028829 0.950621 0.309013
vn 0.028829 0.950621 0.309013
vn 0.039327 0.999218 -0.004042
vn 0.039327 0.999218 -0.004042
s 1
g laysChips:pCube25
usemtl laysChips:lambert6SG
f 10/2/1 64/3/2 2/1/3
f 2/1/3 64/3/2 11/4/4
s 2
f 16/5/5 59/6/6 4/8/7
f 4/8/7 59/6/6 5/7/8
s 3
f 15/9/9 60/10/10 16/5/11
f 16/5/11 60/10/10 59/6/12
f 60/10/10 6/11/13 59/6/12
f 6/11/13 5/7/14 59/6/12
s 4
f 14/12/15 61/13/16 15/9/17
f 15/9/17 61/13/16 60/10/18
f 61/13/16 7/14/19 60/10/18
f 7/14/19 6/11/20 60/10/18
s 5
f 13/15/21 62/16/22 14/12/23
f 14/12/23 62/16/22 61/13/24
f 62/16/22 8/17/25 61/13/24
f 8/17/25 7/14/26 61/13/24
s 6
f 12/18/27 63/19/28 13/15/29
f 13/15/29 63/19/28 62/16/30
f 63/19/28 9/20/31 62/16/30
f 9/20/31 8/17/32 62/16/30
s 7
f 11/4/33 64/3/34 12/18/35
f 12/18/35 64/3/34 63/19/36
f 64/3/34 10/2/37 63/19/36
f 10/2/37 9/20/38 63/19/36
s 8
f 4/21/39 3/22/40 22/24/41
f 22/24/41 3/22/40 28/23/42
s 9
f 17/25/43 23/26/44 2/28/45
f 2/28/45 23/26/44 1/27/46
s 10
f 18/29/47 24/30/48 17/25/49
f 17/25/49 24/30/48 23/26/50
s 11
f 19/31/51 25/32/52 18/29/53
f 18/29/53 25/32/52 24/30/54
s 12
f 20/33/55 26/34/56 19/31/57
f 19/31/57 26/34/56 25/32/58
s 13
f 21/35/59 27/36/60 20/33/61
f 20/33/61 27/36/60 26/34/62
s 14
f 22/24/63 28/23/64 21/35/65
f 21/35/65 28/23/64 27/36/66
s 15
f 35/38/67 58/39/68 3/37/69
f 3/37/69 58/39/68 34/40/70
s 16
f 29/41/71 53/42/72 1/44/73
f 1/44/73 53/42/72 40/43/74
s 17
f 30/45/75 54/46/76 29/41/77
f 29/41/77 54/46/76 53/42/78
f 54/46/76 39/47/79 53/42/78
f 39/47/79 40/43/80 53/42/78
s 18
f 31/48/81 55/49/82 30/45/83
f 30/45/83 55/49/82 54/46/84
f 55/49/82 38/50/85 54/46/84
f 38/50/85 39/47/86 54/46/84
s 19
f 32/51/87 56/52/88 31/48/89
f 31/48/89 56/52/88 55/49/90
f 56/52/88 37/53/91 55/49/90
f 37/53/91 38/50/92 55/49/90
s 20
f 33/54/93 57/55/94 32/51/95
f 32/51/95 57/55/94 56/52/96
f 57/55/94 36/56/97 56/52/96
f 36/56/97 37/53/98 56/52/96
s 21
f 34/40/99 58/39/100 33/54/101
f 33/54/101 58/39/100 57/55/102
f 58/39/100 35/38/103 57/55/102
f 35/38/103 36/56/104 57/55/102
s 22
f 2/57/105 1/58/106 46/60/107
f 46/60/107 1/58/106 47/59/108
s 23
f 41/61/109 52/62/110 4/64/111
f 4/64/111 52/62/110 3/63/112
s 24
f 42/65/113 51/66/114 41/61/115
f 41/61/115 51/66/114 52/62/116
s 25
f 43/67/117 50/68/118 42/65/119
f 42/65/119 50/68/118 51/66/120
s 26
f 44/69/121 49/70/122 43/67/123
f 43/67/123 49/70/122 50/68/124
s 27
f 45/71/125 48/72/126 44/69/127
f 44/69/127 48/72/126 49/70/128
s 28
f 46/60/129 47/59/130 45/71/131
f 45/71/131 47/59/130 48/72/132
