# This file uses centimeters as units for non-parametric coordinates.

mtllib leftleg.mtl
g default
v 0.042056 -0.004433 0.494287
v 1.018609 -0.004433 0.488350
v 0.042056 2.365613 0.494287
v 1.018609 2.365613 0.488350
v 0.036441 2.365613 -0.429386
v 1.012994 2.365613 -0.435323
v 0.036441 -0.004433 -0.429386
v 1.012994 -0.004433 -0.435323
vt 0.182467 0.499061
vt 0.123062 0.499061
vt 0.123062 0.685311
vt 0.182467 0.685311
vt 0.064386 0.500852
vt 0.121728 0.500852
vt 0.121728 0.686094
vt 0.064386 0.686094
vt 0.121106 0.496840
vt 0.183469 0.496840
vt 0.183469 0.684817
vt 0.121106 0.684817
vt 0.184812 0.684975
vt 0.243870 0.684975
vt 0.243870 0.496801
vt 0.184812 0.496801
vt 0.068171 0.691226
vt 0.120861 0.691555
vt 0.120558 0.742806
vt 0.067868 0.742477
vt 0.125300 0.745234
vt 0.178560 0.745588
vt 0.178866 0.690541
vt 0.125606 0.690187
vn 0.006079 0.000000 0.999982
vn 0.006079 0.000000 0.999982
vn 0.006079 0.000000 0.999982
vn 0.006079 0.000000 0.999982
vn 0.000000 1.000000 0.000000
vn 0.000000 1.000000 0.000000
vn 0.000000 1.000000 0.000000
vn 0.000000 1.000000 0.000000
vn -0.006079 0.000000 -0.999982
vn -0.006079 0.000000 -0.999982
vn -0.006079 0.000000 -0.999982
vn -0.006079 0.000000 -0.999982
vn 0.000000 -1.000000 0.000000
vn 0.000000 -1.000000 0.000000
vn 0.000000 -1.000000 0.000000
vn 0.000000 -1.000000 0.000000
vn 0.999982 0.000000 -0.006079
vn 0.999982 0.000000 -0.006079
vn 0.999982 0.000000 -0.006079
vn 0.999982 0.000000 -0.006079
vn -0.999982 0.000000 0.006079
vn -0.999982 0.000000 0.006079
vn -0.999982 0.000000 0.006079
vn -0.999982 0.000000 0.006079
s off
g SP2Charmodel:pCube2
usemtl lambert2SG
f 1/5/1 2/6/2 4/7/3 3/8/4
f 3/17/5 4/18/6 6/19/7 5/20/8
f 5/13/9 6/14/10 8/15/11 7/16/12
f 7/21/13 8/22/14 2/23/15 1/24/16
f 2/9/17 8/10/18 6/11/19 4/12/20
f 7/1/21 1/2/22 3/3/23 5/4/24
