# This file uses centimeters as units for non-parametric coordinates.

mtllib Locker.mtl
g default
v -1.645747 0.578629 1.190225
v 1.671266 0.578629 1.190225
v -1.645747 10.522593 1.190225
v 1.671266 10.522593 1.190225
v -1.645747 10.522593 -1.068797
v 1.671266 10.522593 -1.068797
v -1.645747 0.578629 -1.068797
v 1.671266 0.578629 -1.068797
v -1.343486 10.287335 -1.068797
v 1.369005 10.287335 -1.068797
v 1.369005 0.813886 -1.068797
v -1.343486 0.813886 -1.068797
v -1.343486 10.287335 -1.303612
v 1.369005 10.287335 -1.303612
v 1.369005 0.813886 -1.303612
v -1.343486 0.813886 -1.303612
vt 0.039425 0.034154
vt 0.360320 0.034154
vt 0.360320 0.964537
vt 0.039425 0.964537
vt 0.083281 0.501415
vt 0.083281 0.313997
vt 0.266976 0.313997
vt 0.266976 0.501415
vt 0.967843 0.969523
vt 0.634351 0.969561
vt 0.634210 0.031552
vt 0.967702 0.031514
vt 0.081058 0.501415
vt 0.081058 0.313997
vt 0.264753 0.313997
vt 0.264753 0.501415
vt 0.043992 0.034762
vt 0.358512 0.034762
vt 0.358512 0.965144
vt 0.043992 0.965144
vt 0.044186 0.034762
vt 0.358707 0.034762
vt 0.358707 0.965144
vt 0.044186 0.965144
vt 0.488890 0.598598
vt 0.488890 0.445337
vt 0.507984 0.445337
vt 0.507984 0.598598
vt 0.042349 0.961435
vt 0.042349 0.042510
vt 0.071126 0.064250
vt 0.071126 0.939694
vt 0.329373 0.939694
vt 0.358150 0.961435
vt 0.329373 0.064250
vt 0.358150 0.042510
vt 0.487631 0.598598
vt 0.487631 0.445337
vt 0.506725 0.445337
vt 0.506725 0.598598
vt 0.480095 0.960021
vt 0.480095 0.036509
vt 0.512479 0.036509
vt 0.512479 0.960021
vt 0.480391 0.960021
vt 0.480391 0.036509
vt 0.512775 0.036509
vt 0.512775 0.960021
vn 0.000000 0.000000 1.000000
vn 0.000000 0.000000 1.000000
vn 0.000000 0.000000 1.000000
vn 0.000000 0.000000 1.000000
vn 0.000000 1.000000 0.000000
vn 0.000000 1.000000 0.000000
vn 0.000000 1.000000 0.000000
vn 0.000000 1.000000 0.000000
vn 0.000000 0.000000 -1.000000
vn 0.000000 0.000000 -1.000000
vn 0.000000 0.000000 -1.000000
vn 0.000000 0.000000 -1.000000
vn 0.000000 -1.000000 0.000000
vn 0.000000 -1.000000 0.000000
vn 0.000000 -1.000000 0.000000
vn 0.000000 -1.000000 0.000000
vn 1.000000 0.000000 0.000000
vn 1.000000 0.000000 0.000000
vn 1.000000 0.000000 0.000000
vn 1.000000 0.000000 0.000000
vn -1.000000 0.000000 0.000000
vn -1.000000 0.000000 0.000000
vn -1.000000 0.000000 0.000000
vn -1.000000 0.000000 0.000000
vn 0.000000 1.000000 0.000000
vn 0.000000 1.000000 0.000000
vn 0.000000 1.000000 0.000000
vn 0.000000 1.000000 0.000000
vn 0.000000 0.000000 -1.000000
vn 0.000000 0.000000 -1.000000
vn 0.000000 0.000000 -1.000000
vn 0.000000 0.000000 -1.000000
vn -0.000000 0.000000 -1.000000
vn -0.000000 0.000000 -1.000000
vn -0.000000 0.000000 -1.000000
vn -0.000000 0.000000 -1.000000
vn 0.000000 -1.000000 0.000000
vn 0.000000 -1.000000 0.000000
vn 0.000000 -1.000000 0.000000
vn 0.000000 -1.000000 0.000000
vn -1.000000 0.000000 0.000000
vn -1.000000 0.000000 0.000000
vn -1.000000 0.000000 0.000000
vn -1.000000 0.000000 0.000000
vn 1.000000 0.000000 0.000000
vn 1.000000 0.000000 0.000000
vn 1.000000 0.000000 0.000000
vn 1.000000 0.000000 0.000000
vn 0.000000 0.000000 -1.000000
vn 0.000000 0.000000 -1.000000
vn 0.000000 0.000000 -1.000000
vn 0.000000 0.000000 -1.000000
vn 0.000000 0.000000 -1.000000
vn 0.000000 0.000000 -1.000000
vn 0.000000 0.000000 -1.000000
vn 0.000000 0.000000 -1.000000
s off
g Locker:pCube1
usemtl Locker:lambert3SG
f 1/1/1 2/2/2 4/3/3 3/4/4
f 3/5/5 4/6/6 6/7/7 5/8/8
f 13/9/9 14/10/10 15/11/11 16/12/12
f 7/13/13 8/14/14 2/15/15 1/16/16
f 2/17/17 8/18/18 6/19/19 4/20/20
f 7/21/21 1/22/22 3/23/23 5/24/24
f 9/25/25 10/26/26 14/27/27 13/28/28
f 7/29/29 5/30/30 9/31/31 12/32/32
f 11/33/33 10/35/34 6/36/35 8/34/36
f 16/37/37 15/38/38 11/39/39 12/40/40
f 13/41/41 16/42/42 12/43/43 9/44/44
f 10/45/45 11/46/46 15/47/47 14/48/48
f 10/35/49 9/31/50 5/30/51 6/36/52
f 12/32/53 11/33/54 8/34/55 7/29/56
