# This file uses centimeters as units for non-parametric coordinates.

mtllib mcncheese.mtl
g default
v -0.481289 -0.672639 0.178851
v 0.481289 -0.672639 0.178851
v -0.481289 0.672639 0.178851
v 0.481289 0.672639 0.178851
v -0.481289 0.672639 -0.178851
v 0.481289 0.672639 -0.178851
v -0.481289 -0.672639 -0.178851
v 0.481289 -0.672639 -0.178851
vt 0.619715 0.137100
vt 0.976995 0.137100
vt 0.976995 0.857228
vt 0.619715 0.857228
vt 0.489658 0.999246
vt 0.133840 0.999245
vt 0.133840 0.856161
vt 0.489658 0.856160
vt 0.483927 0.856020
vt 0.132685 0.856020
vt 0.132685 0.135617
vt 0.483927 0.135617
vt 0.489658 0.142511
vt 0.133840 0.142511
vt 0.133840 -0.000574
vt 0.489658 -0.000574
vt 0.488463 0.133488
vt 0.613786 0.133488
vt 0.613786 0.856275
vt 0.488463 0.856275
vt 0.001436 0.144814
vt 0.126759 0.144814
vt 0.126759 0.853507
vt 0.001436 0.853507
vn 0.000000 0.000000 1.000000
vn 0.000000 0.000000 1.000000
vn 0.000000 0.000000 1.000000
vn 0.000000 0.000000 1.000000
vn 0.000000 1.000000 0.000000
vn 0.000000 1.000000 0.000000
vn 0.000000 1.000000 0.000000
vn 0.000000 1.000000 0.000000
vn 0.000000 0.000000 -1.000000
vn 0.000000 0.000000 -1.000000
vn 0.000000 0.000000 -1.000000
vn 0.000000 0.000000 -1.000000
vn 0.000000 -1.000000 0.000000
vn 0.000000 -1.000000 0.000000
vn 0.000000 -1.000000 0.000000
vn 0.000000 -1.000000 0.000000
vn 1.000000 0.000000 0.000000
vn 1.000000 0.000000 0.000000
vn 1.000000 0.000000 0.000000
vn 1.000000 0.000000 0.000000
vn -1.000000 0.000000 0.000000
vn -1.000000 0.000000 0.000000
vn -1.000000 0.000000 0.000000
vn -1.000000 0.000000 0.000000
s off
g pCube1
usemtl lambert2SG
f 1/1/1 2/2/2 4/3/3 3/4/4
f 3/5/5 4/6/6 6/7/7 5/8/8
f 5/9/9 6/10/10 8/11/11 7/12/12
f 7/13/13 8/14/14 2/15/15 1/16/16
f 2/17/17 8/18/18 6/19/19 4/20/20
f 7/21/21 1/22/22 3/23/23 5/24/24
