# This file uses centimeters as units for non-parametric coordinates.

mtllib moaties.mtl
g default
v 0.500000 0.000000 0.250000
v 0.500000 0.000000 -0.250000
v 0.500000 1.250000 0.250000
v 0.500000 1.250000 -0.250000
v -0.500000 1.250000 0.250000
v -0.500000 1.250000 -0.250000
v -0.500000 0.000000 0.250000
v -0.500000 0.000000 -0.250000
vt 0.496041 0.178709
vt 0.658123 0.178709
vt 0.658123 0.584989
vt 0.496041 0.584989
vt 0.171876 0.178709
vt 0.496041 0.747500
vt 0.171876 0.747500
vt 0.171876 0.584988
vt 0.009793 0.178709
vt 0.982288 0.584989
vt 0.982288 0.178709
vt 0.009793 0.584989
vt 0.496041 0.016197
vt 0.171876 0.016197
vn 1.000000 0.000000 0.000000
vn 1.000000 0.000000 0.000000
vn 1.000000 0.000000 0.000000
vn 1.000000 0.000000 0.000000
vn 0.000000 1.000000 0.000000
vn 0.000000 1.000000 0.000000
vn 0.000000 1.000000 0.000000
vn 0.000000 1.000000 0.000000
vn -1.000000 0.000000 -0.000000
vn -1.000000 0.000000 -0.000000
vn -1.000000 0.000000 -0.000000
vn -1.000000 0.000000 -0.000000
vn 0.000000 -1.000000 0.000000
vn 0.000000 -1.000000 0.000000
vn 0.000000 -1.000000 0.000000
vn 0.000000 -1.000000 0.000000
vn 0.000000 0.000000 -1.000000
vn 0.000000 0.000000 -1.000000
vn 0.000000 0.000000 -1.000000
vn 0.000000 0.000000 -1.000000
vn -0.000000 0.000000 1.000000
vn -0.000000 0.000000 1.000000
vn -0.000000 0.000000 1.000000
vn -0.000000 0.000000 1.000000
s off
g pCube1
usemtl lambert2SG
f 1/1/1 2/2/2 4/3/3 3/4/4
f 3/4/5 4/6/6 6/7/7 5/8/8
f 5/8/9 6/12/10 8/9/11 7/5/12
f 7/5/13 8/14/14 2/13/15 1/1/16
f 2/2/17 8/11/18 6/10/19 4/3/20
f 7/5/21 1/1/22 3/4/23 5/8/24
