# This file uses centimeters as units for non-parametric coordinates.

mtllib mountainDew.mtl
g default
v 0.000000 -0.328541 0.000000
v 0.000000 0.350300 0.000000
v -0.069279 0.337015 -0.213219
v -0.065954 0.350300 -0.202985
v -0.131777 0.337015 -0.181375
v -0.125452 0.350300 -0.172670
v -0.181375 0.337015 -0.131777
v -0.172670 0.350300 -0.125452
v -0.213219 0.337015 -0.069279
v -0.202985 0.350300 -0.065954
v -0.224192 0.337015 -0.000000
v -0.213431 0.350300 -0.000000
v -0.213219 0.337015 0.069279
v -0.202985 0.350300 0.065954
v -0.181375 0.337015 0.131777
v -0.172670 0.350300 0.125452
v -0.131777 0.337015 0.181375
v -0.125452 0.350300 0.172670
v -0.069279 0.337015 0.213219
v -0.065954 0.350300 0.202985
v -0.000000 0.337015 0.224192
v -0.000000 0.350300 0.213431
v 0.069279 0.337015 0.213219
v 0.065954 0.350300 0.202985
v 0.131777 0.337015 0.181375
v 0.125452 0.350300 0.172670
v 0.181375 0.337015 0.131777
v 0.172670 0.350300 0.125452
v 0.213219 0.337015 0.069279
v 0.202985 0.350300 0.065954
v 0.224192 0.337015 0.000000
v 0.213431 0.350300 0.000000
v 0.213219 0.337015 -0.069279
v 0.202985 0.350300 -0.065954
v 0.181375 0.337015 -0.131777
v 0.172670 0.350300 -0.125452
v 0.131777 0.337015 -0.181375
v 0.125452 0.350300 -0.172670
v 0.069279 0.337015 -0.213219
v 0.065954 0.350300 -0.202985
v 0.000000 0.337015 -0.224192
v 0.000000 0.350300 -0.213431
v -0.064292 -0.350300 -0.197869
v -0.069279 -0.330373 -0.213219
v -0.122290 -0.350300 -0.168317
v -0.131777 -0.330373 -0.181375
v -0.168317 -0.350300 -0.122290
v -0.181375 -0.330373 -0.131777
v -0.197869 -0.350300 -0.064292
v -0.213219 -0.330373 -0.069279
v -0.208052 -0.350300 -0.000000
v -0.224192 -0.330373 -0.000000
v -0.197869 -0.350300 0.064292
v -0.213219 -0.330373 0.069279
v -0.168317 -0.350300 0.122290
v -0.181375 -0.330373 0.131777
v -0.122290 -0.350300 0.168317
v -0.131777 -0.330373 0.181375
v -0.064292 -0.350300 0.197869
v -0.069279 -0.330373 0.213219
v -0.000000 -0.350300 0.208052
v -0.000000 -0.330373 0.224192
v 0.064292 -0.350300 0.197869
v 0.069279 -0.330373 0.213219
v 0.122290 -0.350300 0.168317
v 0.131777 -0.330373 0.181375
v 0.168317 -0.350300 0.122290
v 0.181375 -0.330373 0.131777
v 0.197869 -0.350300 0.064292
v 0.213219 -0.330373 0.069279
v 0.208052 -0.350300 0.000000
v 0.224192 -0.330373 0.000000
v 0.197869 -0.350300 -0.064291
v 0.213219 -0.330373 -0.069279
v 0.168317 -0.350300 -0.122290
v 0.181375 -0.330373 -0.131777
v 0.122290 -0.350300 -0.168317
v 0.131777 -0.330373 -0.181375
v 0.064291 -0.350300 -0.197869
v 0.069279 -0.330373 -0.213219
v 0.000000 -0.350300 -0.208052
v 0.000000 -0.330373 -0.224192
vt 0.206903 0.429277
vt 0.205659 0.437234
vt 0.156277 0.437234
vt 0.155032 0.429277
vt 0.208026 0.437234
vt 0.253697 0.429277
vt 0.252574 0.437234
vt 0.254588 0.437234
vt 0.290833 0.429277
vt 0.289942 0.437234
vt 0.291956 0.437234
vt 0.337627 0.429277
vt 0.336504 0.437234
vt 0.338872 0.437234
vt 0.389499 0.429277
vt 0.388254 0.437234
vt 0.390743 0.437234
vt 0.441370 0.429277
vt 0.440125 0.437234
vt 0.442493 0.437234
vt 0.488164 0.429277
vt 0.487041 0.437234
vt 0.489055 0.437234
vt 0.525300 0.429277
vt 0.524409 0.437234
vt 0.526423 0.437234
vt 0.572094 0.429277
vt 0.570971 0.437234
vt 0.573338 0.437234
vt 0.623965 0.429277
vt 0.622720 0.437234
vt 0.625210 0.437234
vt 0.675836 0.429277
vt 0.674592 0.437234
vt 0.676959 0.437234
vt 0.722630 0.429277
vt 0.721507 0.437234
vt 0.723521 0.437234
vt 0.759766 0.429277
vt 0.758875 0.437234
vt 0.760889 0.437234
vt 0.806560 0.429277
vt 0.805437 0.437234
vt 0.807805 0.437234
vt 0.858431 0.429277
vt 0.857187 0.437234
vt 0.859676 0.437234
vt 0.910303 0.429277
vt 0.909058 0.437234
vt 0.911426 0.437234
vt 0.957097 0.429277
vt 0.955974 0.437234
vt 0.020122 0.437234
vt 0.019231 0.429277
vt 0.056367 0.429277
vt 0.055475 0.437234
vt 0.057490 0.437234
vt 0.103161 0.429277
vt 0.102038 0.437234
vt 0.104405 0.437234
vt 0.153787 0.437234
vt 0.347599 0.694450
vt 0.324900 0.738998
vt 0.195617 0.645068
vt 0.289547 0.774352
vt 0.244999 0.797050
vt 0.195617 0.804871
vt 0.146235 0.797050
vt 0.101687 0.774352
vt 0.066334 0.738998
vt 0.043635 0.694450
vt 0.035814 0.645068
vt 0.043635 0.595686
vt 0.066333 0.551138
vt 0.101687 0.515785
vt 0.146235 0.493086
vt 0.195617 0.485265
vt 0.244999 0.493087
vt 0.289547 0.515785
vt 0.324900 0.551138
vt 0.347598 0.595686
vt 0.355420 0.645068
vt 0.425307 0.693205
vt 0.413814 0.696940
vt 0.405598 0.645068
vt 0.417683 0.645068
vt 0.447433 0.736630
vt 0.437656 0.743733
vt 0.481895 0.771093
vt 0.474792 0.780869
vt 0.525320 0.793219
vt 0.521586 0.804712
vt 0.573457 0.800843
vt 0.573457 0.812928
vt 0.621594 0.793219
vt 0.625329 0.804712
vt 0.665020 0.771093
vt 0.672123 0.780869
vt 0.699482 0.736630
vt 0.709259 0.743733
vt 0.721608 0.693205
vt 0.733101 0.696940
vt 0.729232 0.645068
vt 0.741317 0.645068
vt 0.721608 0.596931
vt 0.733101 0.593197
vt 0.699482 0.553506
vt 0.709259 0.546403
vt 0.665020 0.519044
vt 0.672123 0.509267
vt 0.621594 0.496917
vt 0.625329 0.485424
vt 0.573457 0.489293
vt 0.573457 0.477209
vt 0.525320 0.496917
vt 0.521586 0.485424
vt 0.481895 0.519044
vt 0.474792 0.509267
vt 0.447433 0.553506
vt 0.437656 0.546403
vt 0.425307 0.596931
vt 0.413814 0.593197
vt 0.573457 0.645068
vt 0.206903 0.029521
vt 0.253697 0.029521
vt 0.290833 0.029521
vt 0.337627 0.029521
vt 0.389499 0.029521
vt 0.441370 0.029521
vt 0.488164 0.029521
vt 0.525300 0.029521
vt 0.572094 0.029521
vt 0.623965 0.029521
vt 0.675836 0.029521
vt 0.722630 0.029521
vt 0.759766 0.029521
vt 0.806560 0.029521
vt 0.858432 0.029521
vt 0.910303 0.029521
vt 0.957097 0.029521
vt 0.019231 0.029521
vt 0.056367 0.029521
vt 0.103161 0.029521
vt 0.155032 0.029521
vn -0.240129 0.629408 -0.739042
vn -0.240129 0.629408 -0.739042
vn 0.000001 0.629408 -0.777075
vn 0.000001 0.629408 -0.777075
vn -0.240129 0.629408 -0.739042
vn -0.240129 0.629408 -0.739042
vn -0.456753 0.629408 -0.628667
vn -0.456753 0.629408 -0.628667
vn -0.456753 0.629408 -0.628667
vn -0.456753 0.629408 -0.628667
vn -0.628667 0.629409 -0.456753
vn -0.628667 0.629408 -0.456753
vn -0.628667 0.629408 -0.456753
vn -0.628667 0.629409 -0.456753
vn -0.739042 0.629408 -0.240129
vn -0.739042 0.629408 -0.240129
vn -0.739042 0.629408 -0.240129
vn -0.739042 0.629408 -0.240129
vn -0.777074 0.629409 -0.000000
vn -0.777074 0.629409 -0.000000
vn -0.777074 0.629409 -0.000000
vn -0.777074 0.629409 -0.000000
vn -0.739042 0.629408 0.240129
vn -0.739042 0.629408 0.240129
vn -0.739042 0.629408 0.240129
vn -0.739042 0.629408 0.240129
vn -0.628667 0.629408 0.456753
vn -0.628667 0.629408 0.456753
vn -0.628667 0.629408 0.456753
vn -0.628667 0.629408 0.456753
vn -0.456753 0.629408 0.628667
vn -0.456753 0.629408 0.628667
vn -0.456753 0.629408 0.628667
vn -0.456753 0.629408 0.628667
vn -0.240129 0.629408 0.739042
vn -0.240129 0.629408 0.739042
vn -0.240129 0.629408 0.739042
vn -0.240129 0.629408 0.739042
vn -0.000000 0.629408 0.777075
vn -0.000000 0.629408 0.777075
vn -0.000000 0.629408 0.777075
vn -0.000000 0.629408 0.777075
vn 0.240130 0.629408 0.739042
vn 0.240130 0.629408 0.739042
vn 0.240130 0.629408 0.739042
vn 0.240130 0.629408 0.739042
vn 0.456753 0.629408 0.628666
vn 0.456754 0.629408 0.628666
vn 0.456754 0.629408 0.628666
vn 0.456753 0.629408 0.628666
vn 0.628667 0.629408 0.456753
vn 0.628667 0.629408 0.456753
vn 0.628667 0.629408 0.456753
vn 0.628667 0.629408 0.456753
vn 0.739042 0.629408 0.240129
vn 0.739042 0.629408 0.240129
vn 0.739042 0.629408 0.240129
vn 0.739042 0.629408 0.240129
vn 0.777075 0.629408 0.000000
vn 0.777075 0.629408 0.000000
vn 0.777075 0.629408 0.000000
vn 0.777075 0.629408 0.000000
vn 0.739042 0.629408 -0.240129
vn 0.739042 0.629408 -0.240129
vn 0.739042 0.629408 -0.240129
vn 0.739042 0.629408 -0.240129
vn 0.628667 0.629408 -0.456753
vn 0.628667 0.629408 -0.456753
vn 0.628667 0.629408 -0.456753
vn 0.628667 0.629408 -0.456753
vn 0.456753 0.629408 -0.628667
vn 0.456753 0.629408 -0.628667
vn 0.456753 0.629408 -0.628667
vn 0.456753 0.629408 -0.628667
vn 0.240129 0.629408 -0.739042
vn 0.240129 0.629408 -0.739042
vn 0.240129 0.629408 -0.739042
vn 0.240129 0.629408 -0.739042
vn 0.000001 0.629408 -0.777075
vn 0.000001 0.629408 -0.777075
vn 0.000000 1.000000 0.000000
vn 0.000000 1.000000 0.000000
vn 0.000000 1.000000 0.000000
vn 0.000000 1.000000 0.000000
vn 0.000000 1.000000 0.000000
vn 0.000000 1.000000 0.000000
vn 0.000000 1.000000 0.000000
vn 0.000000 1.000000 0.000000
vn 0.000000 1.000000 0.000000
vn 0.000000 1.000000 0.000000
vn 0.000000 1.000000 0.000000
vn 0.000000 1.000000 0.000000
vn 0.000000 1.000000 0.000000
vn 0.000000 1.000000 0.000000
vn 0.000000 1.000000 0.000000
vn 0.000000 1.000000 0.000000
vn 0.000000 1.000000 0.000000
vn 0.000000 1.000000 0.000000
vn 0.000000 1.000000 0.000000
vn 0.000000 1.000000 0.000000
vn 0.000000 1.000000 0.000000
vn 0.000000 1.000000 0.000000
vn 0.000000 1.000000 0.000000
vn 0.000000 1.000000 0.000000
vn 0.000000 1.000000 0.000000
vn 0.000000 1.000000 0.000000
vn 0.000000 1.000000 0.000000
vn 0.000000 1.000000 0.000000
vn 0.000000 1.000000 0.000000
vn 0.000000 1.000000 0.000000
vn 0.000000 1.000000 0.000000
vn 0.000000 1.000000 0.000000
vn 0.000000 1.000000 0.000000
vn 0.000000 1.000000 0.000000
vn 0.000000 1.000000 0.000000
vn 0.000000 1.000000 0.000000
vn 0.000000 1.000000 0.000000
vn 0.000000 1.000000 0.000000
vn 0.000000 1.000000 0.000000
vn 0.000000 1.000000 0.000000
vn 0.000000 1.000000 0.000000
vn 0.000000 1.000000 0.000000
vn 0.000000 1.000000 0.000000
vn 0.000000 1.000000 0.000000
vn 0.000000 1.000000 0.000000
vn 0.000000 1.000000 0.000000
vn 0.000000 1.000000 0.000000
vn 0.000000 1.000000 0.000000
vn 0.000000 1.000000 0.000000
vn 0.000000 1.000000 0.000000
vn 0.000000 1.000000 0.000000
vn 0.000000 1.000000 0.000000
vn 0.000000 1.000000 0.000000
vn 0.000000 1.000000 0.000000
vn 0.000000 1.000000 0.000000
vn 0.000001 1.000000 0.000000
vn 0.000000 1.000000 0.000000
vn 0.000001 1.000000 0.000000
vn 0.000000 1.000000 0.000000
vn 0.000000 1.000000 0.000000
vn -0.240128 -0.629409 -0.739042
vn -0.240128 -0.629409 -0.739042
vn 0.000001 -0.629409 -0.777074
vn 0.000001 -0.629409 -0.777074
vn -0.240128 -0.629409 -0.739042
vn -0.240128 -0.629409 -0.739042
vn -0.456753 -0.629409 -0.628666
vn -0.456753 -0.629409 -0.628666
vn -0.456753 -0.629409 -0.628666
vn -0.456753 -0.629409 -0.628666
vn -0.628666 -0.629409 -0.456753
vn -0.628666 -0.629409 -0.456753
vn -0.628666 -0.629409 -0.456753
vn -0.628666 -0.629409 -0.456753
vn -0.739042 -0.629409 -0.240129
vn -0.739042 -0.629409 -0.240129
vn -0.739042 -0.629409 -0.240129
vn -0.739042 -0.629409 -0.240129
vn -0.777074 -0.629409 -0.000000
vn -0.777074 -0.629409 -0.000000
vn -0.777074 -0.629409 -0.000000
vn -0.777074 -0.629409 -0.000000
vn -0.739042 -0.629409 0.240129
vn -0.739042 -0.629409 0.240129
vn -0.739042 -0.629409 0.240129
vn -0.739042 -0.629409 0.240129
vn -0.628667 -0.629409 0.456753
vn -0.628667 -0.629409 0.456753
vn -0.628667 -0.629409 0.456753
vn -0.628667 -0.629409 0.456753
vn -0.456753 -0.629409 0.628666
vn -0.456753 -0.629409 0.628666
vn -0.456753 -0.629409 0.628666
vn -0.456753 -0.629409 0.628666
vn -0.240129 -0.629409 0.739042
vn -0.240129 -0.629408 0.739042
vn -0.240129 -0.629408 0.739042
vn -0.240129 -0.629409 0.739042
vn -0.000000 -0.629408 0.777075
vn -0.000000 -0.629408 0.777075
vn -0.000000 -0.629408 0.777075
vn -0.000000 -0.629408 0.777075
vn 0.240129 -0.629408 0.739042
vn 0.240129 -0.629408 0.739042
vn 0.240129 -0.629408 0.739042
vn 0.240129 -0.629408 0.739042
vn 0.456753 -0.629409 0.628666
vn 0.456753 -0.629409 0.628666
vn 0.456753 -0.629409 0.628666
vn 0.456753 -0.629409 0.628666
vn 0.628666 -0.629409 0.456753
vn 0.628666 -0.629409 0.456753
vn 0.628666 -0.629409 0.456753
vn 0.628666 -0.629409 0.456753
vn 0.739041 -0.629409 0.240129
vn 0.739041 -0.629409 0.240129
vn 0.739041 -0.629409 0.240129
vn 0.739041 -0.629409 0.240129
vn 0.777074 -0.629409 0.000000
vn 0.777074 -0.629409 0.000000
vn 0.777074 -0.629409 0.000000
vn 0.777074 -0.629409 0.000000
vn 0.739041 -0.629409 -0.240129
vn 0.739041 -0.629409 -0.240129
vn 0.739041 -0.629409 -0.240129
vn 0.739041 -0.629409 -0.240129
vn 0.628666 -0.629409 -0.456753
vn 0.628666 -0.629409 -0.456753
vn 0.628666 -0.629409 -0.456753
vn 0.628666 -0.629409 -0.456753
vn 0.456753 -0.629409 -0.628666
vn 0.456753 -0.629409 -0.628666
vn 0.456753 -0.629409 -0.628666
vn 0.456753 -0.629409 -0.628666
vn 0.240129 -0.629409 -0.739041
vn 0.240129 -0.629409 -0.739042
vn 0.240129 -0.629409 -0.739042
vn 0.240129 -0.629409 -0.739041
vn 0.000001 -0.629409 -0.777074
vn 0.000001 -0.629409 -0.777074
vn 0.061139 -0.994576 0.084151
vn 0.032143 -0.994576 0.098926
vn 0.000000 -1.000000 0.000000
vn 0.084151 -0.994576 0.061139
vn 0.061139 -0.994576 0.084151
vn 0.000000 -1.000000 0.000000
vn 0.098926 -0.994576 0.032143
vn 0.084151 -0.994576 0.061139
vn 0.000000 -1.000000 0.000000
vn 0.104017 -0.994576 0.000000
vn 0.098926 -0.994576 0.032143
vn 0.000000 -1.000000 0.000000
vn 0.098926 -0.994576 -0.032143
vn 0.104017 -0.994576 0.000000
vn 0.000000 -1.000000 0.000000
vn 0.084151 -0.994576 -0.061139
vn 0.098926 -0.994576 -0.032143
vn 0.000000 -1.000000 0.000000
vn 0.061140 -0.994576 -0.084151
vn 0.084151 -0.994576 -0.061139
vn 0.000000 -1.000000 0.000000
vn 0.032143 -0.994576 -0.098926
vn 0.061140 -0.994576 -0.084151
vn 0.000000 -1.000000 0.000000
vn -0.000001 -0.994576 -0.104017
vn 0.032143 -0.994576 -0.098926
vn 0.000000 -1.000000 0.000000
vn -0.032143 -0.994576 -0.098926
vn -0.000001 -0.994576 -0.104017
vn 0.000000 -1.000000 0.000000
vn -0.061140 -0.994576 -0.084151
vn -0.032143 -0.994576 -0.098926
vn 0.000000 -1.000000 0.000000
vn -0.084151 -0.994576 -0.061139
vn -0.061140 -0.994576 -0.084151
vn 0.000000 -1.000000 0.000000
vn -0.098926 -0.994576 -0.032143
vn -0.084151 -0.994576 -0.061139
vn 0.000000 -1.000000 0.000000
vn -0.104017 -0.994576 -0.000000
vn -0.098926 -0.994576 -0.032143
vn 0.000000 -1.000000 0.000000
vn -0.098926 -0.994576 0.032143
vn -0.104017 -0.994576 -0.000000
vn 0.000000 -1.000000 0.000000
vn -0.084151 -0.994576 0.061139
vn -0.098926 -0.994576 0.032143
vn 0.000000 -1.000000 0.000000
vn -0.061139 -0.994576 0.084151
vn -0.084151 -0.994576 0.061139
vn 0.000000 -1.000000 0.000000
vn -0.032142 -0.994576 0.098926
vn -0.061139 -0.994576 0.084151
vn 0.000000 -1.000000 0.000000
vn -0.000000 -0.994576 0.104017
vn -0.032142 -0.994576 0.098926
vn 0.000000 -1.000000 0.000000
vn 0.032143 -0.994576 0.098926
vn -0.000000 -0.994576 0.104017
vn 0.000000 -1.000000 0.000000
vn -0.309016 0.000000 -0.951057
vn -0.587785 0.000000 -0.809017
vn -0.587785 0.000000 -0.809017
vn -0.309016 0.000000 -0.951057
vn -0.587785 0.000000 -0.809017
vn -0.809017 0.000000 -0.587785
vn -0.809017 0.000000 -0.587785
vn -0.587785 0.000000 -0.809017
vn -0.809017 0.000000 -0.587785
vn -0.951057 0.000000 -0.309017
vn -0.951057 0.000000 -0.309017
vn -0.809017 0.000000 -0.587785
vn -0.951057 0.000000 -0.309017
vn -1.000000 0.000000 -0.000000
vn -1.000000 0.000000 -0.000000
vn -0.951057 0.000000 -0.309017
vn -1.000000 0.000000 -0.000000
vn -0.951056 0.000000 0.309017
vn -0.951056 0.000000 0.309017
vn -1.000000 0.000000 -0.000000
vn -0.951056 0.000000 0.309017
vn -0.809017 0.000000 0.587785
vn -0.809017 0.000000 0.587785
vn -0.951056 0.000000 0.309017
vn -0.809017 0.000000 0.587785
vn -0.587785 0.000000 0.809017
vn -0.587785 0.000000 0.809017
vn -0.809017 0.000000 0.587785
vn -0.587785 0.000000 0.809017
vn -0.309017 0.000000 0.951057
vn -0.309017 0.000000 0.951057
vn -0.587785 0.000000 0.809017
vn -0.309017 0.000000 0.951057
vn -0.000000 0.000000 1.000000
vn -0.000000 0.000000 1.000000
vn -0.309017 0.000000 0.951057
vn -0.000000 0.000000 1.000000
vn 0.309017 0.000000 0.951057
vn 0.309017 0.000000 0.951057
vn -0.000000 0.000000 1.000000
vn 0.309017 0.000000 0.951057
vn 0.587785 0.000000 0.809017
vn 0.587785 0.000000 0.809017
vn 0.309017 0.000000 0.951057
vn 0.587785 0.000000 0.809017
vn 0.809017 0.000000 0.587785
vn 0.809017 0.000000 0.587785
vn 0.587785 0.000000 0.809017
vn 0.809017 0.000000 0.587785
vn 0.951057 0.000000 0.309017
vn 0.951057 0.000000 0.309017
vn 0.809017 0.000000 0.587785
vn 0.951057 0.000000 0.309017
vn 1.000000 0.000000 0.000000
vn 1.000000 0.000000 0.000000
vn 0.951057 0.000000 0.309017
vn 1.000000 0.000000 0.000000
vn 0.951057 0.000000 -0.309017
vn 0.951057 0.000000 -0.309017
vn 1.000000 0.000000 0.000000
vn 0.951057 0.000000 -0.309017
vn 0.809017 0.000000 -0.587785
vn 0.809017 0.000000 -0.587785
vn 0.951057 0.000000 -0.309017
vn 0.809017 0.000000 -0.587785
vn 0.587785 0.000000 -0.809017
vn 0.587785 0.000000 -0.809017
vn 0.809017 0.000000 -0.587785
vn 0.587785 0.000000 -0.809017
vn 0.309017 0.000000 -0.951057
vn 0.309017 0.000000 -0.951057
vn 0.587785 0.000000 -0.809017
vn 0.309017 0.000000 -0.951057
vn 0.000001 0.000000 -1.000000
vn 0.000001 0.000000 -1.000000
vn 0.309017 0.000000 -0.951057
vn 0.000001 0.000000 -1.000000
vn -0.309016 0.000000 -0.951057
vn -0.309016 0.000000 -0.951057
vn 0.000001 0.000000 -1.000000
s off
g mountainDew:pCylinder1
usemtl initialShadingGroup
f 3/1/1 4/2/2 42/3/3 41/4/4
f 4/5/5 3/1/6 5/6/7 6/7/8
f 6/8/9 5/6/10 7/9/11 8/10/12
f 8/11/13 7/9/14 9/12/15 10/13/16
f 10/14/17 9/12/18 11/15/19 12/16/20
f 12/17/21 11/15/22 13/18/23 14/19/24
f 14/20/25 13/18/26 15/21/27 16/22/28
f 16/23/29 15/21/30 17/24/31 18/25/32
f 18/26/33 17/24/34 19/27/35 20/28/36
f 20/29/37 19/27/38 21/30/39 22/31/40
f 22/32/41 21/30/42 23/33/43 24/34/44
f 24/35/45 23/33/46 25/36/47 26/37/48
f 26/38/49 25/36/50 27/39/51 28/40/52
f 28/41/53 27/39/54 29/42/55 30/43/56
f 30/44/57 29/42/58 31/45/59 32/46/60
f 32/47/61 31/45/62 33/48/63 34/49/64
f 34/50/65 33/48/66 35/51/67 36/52/68
f 36/53/69 35/54/70 37/55/71 38/56/72
f 38/57/73 37/55/74 39/58/75 40/59/76
f 40/60/77 39/58/78 41/4/79 42/61/80
f 4/62/81 6/63/82 2/64/83
f 6/63/84 8/65/85 2/64/86
f 8/65/87 10/66/88 2/64/89
f 10/66/90 12/67/91 2/64/92
f 12/67/93 14/68/94 2/64/95
f 14/68/96 16/69/97 2/64/98
f 16/69/99 18/70/100 2/64/101
f 18/70/102 20/71/103 2/64/104
f 20/71/105 22/72/106 2/64/107
f 22/72/108 24/73/109 2/64/110
f 24/73/111 26/74/112 2/64/113
f 26/74/114 28/75/115 2/64/116
f 28/75/117 30/76/118 2/64/119
f 30/76/120 32/77/121 2/64/122
f 32/77/123 34/78/124 2/64/125
f 34/78/126 36/79/127 2/64/128
f 36/79/129 38/80/130 2/64/131
f 38/80/132 40/81/133 2/64/134
f 40/81/135 42/82/136 2/64/137
f 42/82/138 4/62/139 2/64/140
f 43/83/141 44/84/142 82/85/143 81/86/144
f 44/84/145 43/83/146 45/87/147 46/88/148
f 46/88/149 45/87/150 47/89/151 48/90/152
f 48/90/153 47/89/154 49/91/155 50/92/156
f 50/92/157 49/91/158 51/93/159 52/94/160
f 52/94/161 51/93/162 53/95/163 54/96/164
f 54/96/165 53/95/166 55/97/167 56/98/168
f 56/98/169 55/97/170 57/99/171 58/100/172
f 58/100/173 57/99/174 59/101/175 60/102/176
f 60/102/177 59/101/178 61/103/179 62/104/180
f 62/104/181 61/103/182 63/105/183 64/106/184
f 64/106/185 63/105/186 65/107/187 66/108/188
f 66/108/189 65/107/190 67/109/191 68/110/192
f 68/110/193 67/109/194 69/111/195 70/112/196
f 70/112/197 69/111/198 71/113/199 72/114/200
f 72/114/201 71/113/202 73/115/203 74/116/204
f 74/116/205 73/115/206 75/117/207 76/118/208
f 76/118/209 75/117/210 77/119/211 78/120/212
f 78/120/213 77/119/214 79/121/215 80/122/216
f 80/122/217 79/121/218 81/86/219 82/85/220
f 45/87/221 43/83/222 1/123/223
f 47/89/224 45/87/225 1/123/226
f 49/91/227 47/89/228 1/123/229
f 51/93/230 49/91/231 1/123/232
f 53/95/233 51/93/234 1/123/235
f 55/97/236 53/95/237 1/123/238
f 57/99/239 55/97/240 1/123/241
f 59/101/242 57/99/243 1/123/244
f 61/103/245 59/101/246 1/123/247
f 63/105/248 61/103/249 1/123/250
f 65/107/251 63/105/252 1/123/253
f 67/109/254 65/107/255 1/123/256
f 69/111/257 67/109/258 1/123/259
f 71/113/260 69/111/261 1/123/262
f 73/115/263 71/113/264 1/123/265
f 75/117/266 73/115/267 1/123/268
f 77/119/269 75/117/270 1/123/271
f 79/121/272 77/119/273 1/123/274
f 81/86/275 79/121/276 1/123/277
f 43/83/278 81/86/279 1/123/280
f 44/124/281 46/125/282 5/6/283 3/1/284
f 46/125/285 48/126/286 7/9/287 5/6/288
f 48/126/289 50/127/290 9/12/291 7/9/292
f 50/127/293 52/128/294 11/15/295 9/12/296
f 52/128/297 54/129/298 13/18/299 11/15/300
f 54/129/301 56/130/302 15/21/303 13/18/304
f 56/130/305 58/131/306 17/24/307 15/21/308
f 58/131/309 60/132/310 19/27/311 17/24/312
f 60/132/313 62/133/314 21/30/315 19/27/316
f 62/133/317 64/134/318 23/33/319 21/30/320
f 64/134/321 66/135/322 25/36/323 23/33/324
f 66/135/325 68/136/326 27/39/327 25/36/328
f 68/136/329 70/137/330 29/42/331 27/39/332
f 70/137/333 72/138/334 31/45/335 29/42/336
f 72/138/337 74/139/338 33/48/339 31/45/340
f 74/139/341 76/140/342 35/51/343 33/48/344
f 76/141/345 78/142/346 37/55/347 35/54/348
f 78/142/349 80/143/350 39/58/351 37/55/352
f 80/143/353 82/144/354 41/4/355 39/58/356
f 82/144/357 44/124/358 3/1/359 41/4/360
