# This file uses centimeters as units for non-parametric coordinates.

mtllib mountainDew.mtl
g default
v 0.000000 -0.547568 0.000000
v 0.000000 0.583833 0.000000
v 0.355365 0.561691 -0.115465
v 0.338309 0.583833 -0.109923
v 0.302292 0.561691 -0.219628
v 0.287783 0.583833 -0.209087
v 0.219628 0.561691 -0.302292
v 0.209087 0.583833 -0.287783
v 0.115465 0.561691 -0.355365
v 0.109923 0.583833 -0.338309
v 0.000000 0.561691 -0.373653
v 0.000000 0.583833 -0.355719
v -0.115465 0.561691 -0.355365
v -0.109923 0.583833 -0.338309
v -0.219628 0.561691 -0.302292
v -0.209087 0.583833 -0.287783
v -0.302292 0.561691 -0.219628
v -0.287783 0.583833 -0.209087
v -0.355365 0.561691 -0.115465
v -0.338309 0.583833 -0.109923
v -0.373653 0.561691 0.000000
v -0.355719 0.583833 0.000000
v -0.355365 0.561691 0.115465
v -0.338309 0.583833 0.109923
v -0.302292 0.561691 0.219628
v -0.287783 0.583833 0.209087
v -0.219628 0.561691 0.302292
v -0.209087 0.583833 0.287783
v -0.115465 0.561691 0.355365
v -0.109923 0.583833 0.338309
v -0.000000 0.561691 0.373653
v -0.000000 0.583833 0.355719
v 0.115465 0.561691 0.355365
v 0.109923 0.583833 0.338309
v 0.219628 0.561691 0.302292
v 0.209086 0.583833 0.287783
v 0.302292 0.561691 0.219628
v 0.287783 0.583833 0.209087
v 0.355365 0.561691 0.115465
v 0.338309 0.583833 0.109923
v 0.373653 0.561691 0.000000
v 0.355719 0.583833 -0.000000
v 0.329782 -0.583833 -0.107153
v 0.355365 -0.550621 -0.115465
v 0.280529 -0.583833 -0.203816
v 0.302292 -0.550621 -0.219628
v 0.203816 -0.583833 -0.280529
v 0.219628 -0.550621 -0.302292
v 0.107153 -0.583833 -0.329782
v 0.115465 -0.550621 -0.355365
v 0.000000 -0.583833 -0.346753
v 0.000000 -0.550621 -0.373653
v -0.107153 -0.583833 -0.329782
v -0.115465 -0.550621 -0.355365
v -0.203816 -0.583833 -0.280529
v -0.219628 -0.550621 -0.302292
v -0.280529 -0.583833 -0.203816
v -0.302292 -0.550621 -0.219628
v -0.329782 -0.583833 -0.107153
v -0.355365 -0.550621 -0.115465
v -0.346753 -0.583833 0.000000
v -0.373653 -0.550621 0.000000
v -0.329782 -0.583833 0.107153
v -0.355365 -0.550621 0.115465
v -0.280529 -0.583833 0.203816
v -0.302292 -0.550621 0.219628
v -0.203816 -0.583833 0.280529
v -0.219628 -0.550621 0.302292
v -0.107153 -0.583833 0.329781
v -0.115465 -0.550621 0.355365
v -0.000000 -0.583833 0.346753
v -0.000000 -0.550621 0.373653
v 0.107152 -0.583833 0.329781
v 0.115465 -0.550621 0.355365
v 0.203816 -0.583833 0.280529
v 0.219628 -0.550621 0.302292
v 0.280529 -0.583833 0.203816
v 0.302292 -0.550621 0.219628
v 0.329781 -0.583833 0.107152
v 0.355365 -0.550621 0.115465
v 0.346753 -0.583833 -0.000000
v 0.373653 -0.550621 0.000000
vt 0.205659 0.437234
vt 0.156277 0.437234
vt 0.208026 0.437234
vt 0.252574 0.437234
vt 0.254588 0.437234
vt 0.289942 0.437234
vt 0.291956 0.437234
vt 0.336504 0.437234
vt 0.338872 0.437234
vt 0.388254 0.437234
vt 0.390743 0.437234
vt 0.440125 0.437234
vt 0.442493 0.437234
vt 0.487041 0.437234
vt 0.489055 0.437234
vt 0.524409 0.437234
vt 0.526423 0.437234
vt 0.570971 0.437234
vt 0.573338 0.437234
vt 0.622720 0.437234
vt 0.625210 0.437234
vt 0.674592 0.437234
vt 0.676959 0.437234
vt 0.721507 0.437234
vt 0.723521 0.437234
vt 0.758875 0.437234
vt 0.760889 0.437234
vt 0.805437 0.437234
vt 0.807805 0.437234
vt 0.857187 0.437234
vt 0.859676 0.437234
vt 0.909058 0.437234
vt 0.911426 0.437234
vt 0.957097 0.429277
vt 0.955974 0.437234
vt 0.020122 0.437234
vt 0.055475 0.437234
vt 0.057490 0.437234
vt 0.102038 0.437234
vt 0.104405 0.437234
vt 0.153787 0.437234
vt 0.324900 0.738998
vt 0.289547 0.774352
vt 0.244999 0.797050
vt 0.195617 0.804871
vt 0.146235 0.797050
vt 0.101687 0.774352
vt 0.066334 0.738998
vt 0.043635 0.694450
vt 0.035814 0.645068
vt 0.043635 0.595686
vt 0.066333 0.551138
vt 0.101687 0.515785
vt 0.146235 0.493086
vt 0.195617 0.485265
vt 0.244999 0.493087
vt 0.289547 0.515785
vt 0.324900 0.551138
vt 0.347598 0.595686
vt 0.355420 0.645068
vt 0.347599 0.694450
vt 0.195617 0.645068
vt 0.413814 0.696940
vt 0.437656 0.743733
vt 0.474792 0.780869
vt 0.521586 0.804712
vt 0.573457 0.812928
vt 0.625329 0.804712
vt 0.672123 0.780869
vt 0.709259 0.743733
vt 0.733101 0.696940
vt 0.741317 0.645068
vt 0.733101 0.593197
vt 0.709259 0.546403
vt 0.672123 0.509267
vt 0.625329 0.485424
vt 0.573457 0.477209
vt 0.521586 0.485424
vt 0.474792 0.509267
vt 0.437656 0.546403
vt 0.413814 0.593197
vt 0.405598 0.645068
vt 0.425307 0.693205
vt 0.447433 0.736630
vt 0.481895 0.771093
vt 0.525320 0.793219
vt 0.573457 0.800843
vt 0.621594 0.793219
vt 0.665020 0.771093
vt 0.699482 0.736630
vt 0.721608 0.693205
vt 0.729232 0.645068
vt 0.721608 0.596931
vt 0.699482 0.553506
vt 0.665020 0.519044
vt 0.621594 0.496917
vt 0.573457 0.489293
vt 0.525320 0.496917
vt 0.481895 0.519044
vt 0.447433 0.553506
vt 0.425307 0.596931
vt 0.573457 0.645068
vt 0.417683 0.645068
vt 0.253697 0.029521
vt 0.206903 0.429277
vt 0.290833 0.029521
vt 0.253697 0.429277
vt 0.337627 0.029521
vt 0.290833 0.429277
vt 0.389499 0.029521
vt 0.337627 0.429277
vt 0.441370 0.029521
vt 0.389499 0.429277
vt 0.488164 0.029521
vt 0.441370 0.429277
vt 0.525300 0.029521
vt 0.488164 0.429277
vt 0.572094 0.029521
vt 0.525300 0.429277
vt 0.623965 0.029521
vt 0.572094 0.429277
vt 0.675836 0.029521
vt 0.623965 0.429277
vt 0.722630 0.029521
vt 0.675836 0.429277
vt 0.759766 0.029521
vt 0.722630 0.429277
vt 0.806560 0.029521
vt 0.759766 0.429277
vt 0.858432 0.029521
vt 0.806560 0.429277
vt 0.910303 0.029521
vt 0.858431 0.429277
vt 0.957097 0.029521
vt 0.910303 0.429277
vt 0.019231 0.029521
vt 0.056367 0.029521
vt 0.019231 0.429277
vt 0.103161 0.029521
vt 0.056367 0.429277
vt 0.155032 0.029521
vt 0.103161 0.429277
vt 0.206903 0.029521
vt 0.155032 0.429277
vn 0.739042 0.629408 -0.240129
vn 0.739042 0.629408 -0.240129
vn 0.777075 0.629408 0.000001
vn 0.777075 0.629408 0.000001
vn 0.628667 0.629408 -0.456753
vn 0.628667 0.629408 -0.456753
vn 0.456753 0.629409 -0.628667
vn 0.456753 0.629408 -0.628667
vn 0.240129 0.629408 -0.739042
vn 0.240129 0.629408 -0.739042
vn 0.000000 0.629409 -0.777075
vn 0.000000 0.629409 -0.777075
vn -0.240129 0.629408 -0.739042
vn -0.240129 0.629408 -0.739042
vn -0.456753 0.629408 -0.628667
vn -0.456753 0.629408 -0.628667
vn -0.628667 0.629408 -0.456753
vn -0.628667 0.629408 -0.456753
vn -0.739042 0.629408 -0.240129
vn -0.739042 0.629408 -0.240129
vn -0.777075 0.629408 -0.000000
vn -0.777075 0.629408 -0.000000
vn -0.739042 0.629408 0.240130
vn -0.739042 0.629408 0.240130
vn -0.628666 0.629408 0.456753
vn -0.628666 0.629408 0.456754
vn -0.456753 0.629408 0.628667
vn -0.456753 0.629408 0.628667
vn -0.240129 0.629408 0.739042
vn -0.240129 0.629408 0.739042
vn 0.000000 0.629408 0.777075
vn 0.000000 0.629408 0.777075
vn 0.240129 0.629408 0.739042
vn 0.240129 0.629408 0.739042
vn 0.456753 0.629408 0.628667
vn 0.456753 0.629408 0.628667
vn 0.628667 0.629408 0.456753
vn 0.628667 0.629408 0.456753
vn 0.739042 0.629408 0.240129
vn 0.739042 0.629408 0.240129
vn 0.000000 1.000000 0.000000
vn 0.000000 1.000000 0.000000
vn 0.000000 1.000000 0.000000
vn 0.000000 1.000000 0.000000
vn 0.000000 1.000000 0.000000
vn 0.000000 1.000000 -0.000000
vn 0.000000 1.000000 -0.000000
vn 0.000000 1.000000 0.000000
vn 0.000000 1.000000 0.000000
vn 0.000000 1.000000 0.000000
vn 0.000000 1.000000 0.000000
vn 0.000000 1.000000 0.000000
vn 0.000000 1.000000 -0.000000
vn 0.000000 1.000000 -0.000000
vn 0.000000 1.000000 0.000000
vn 0.000000 1.000000 -0.000000
vn 0.000000 1.000000 -0.000000
vn 0.000000 1.000000 0.000000
vn 0.000000 1.000000 0.000000
vn 0.000000 1.000000 0.000000
vn 0.000000 1.000000 0.000001
vn 0.739042 -0.629409 -0.240128
vn 0.739042 -0.629409 -0.240128
vn 0.777074 -0.629409 0.000001
vn 0.777074 -0.629409 0.000001
vn 0.628666 -0.629409 -0.456753
vn 0.628666 -0.629409 -0.456753
vn 0.456753 -0.629409 -0.628666
vn 0.456753 -0.629409 -0.628666
vn 0.240129 -0.629409 -0.739042
vn 0.240129 -0.629409 -0.739042
vn -0.000000 -0.629409 -0.777074
vn -0.000000 -0.629409 -0.777074
vn -0.240129 -0.629409 -0.739042
vn -0.240129 -0.629409 -0.739042
vn -0.456753 -0.629409 -0.628667
vn -0.456753 -0.629409 -0.628667
vn -0.628666 -0.629409 -0.456753
vn -0.628666 -0.629409 -0.456753
vn -0.739042 -0.629409 -0.240129
vn -0.739042 -0.629408 -0.240129
vn -0.777075 -0.629408 0.000000
vn -0.777075 -0.629408 0.000000
vn -0.739042 -0.629408 0.240129
vn -0.739042 -0.629408 0.240129
vn -0.628666 -0.629409 0.456753
vn -0.628666 -0.629409 0.456753
vn -0.456753 -0.629409 0.628666
vn -0.456753 -0.629409 0.628666
vn -0.240129 -0.629409 0.739041
vn -0.240129 -0.629409 0.739041
vn -0.000000 -0.629409 0.777074
vn -0.000000 -0.629409 0.777074
vn 0.240129 -0.629409 0.739041
vn 0.240129 -0.629409 0.739041
vn 0.456753 -0.629409 0.628666
vn 0.456753 -0.629409 0.628666
vn 0.628666 -0.629409 0.456753
vn 0.628666 -0.629409 0.456753
vn 0.739041 -0.629409 0.240129
vn 0.739042 -0.629409 0.240129
vn -0.084151 -0.994576 0.061139
vn -0.098926 -0.994576 0.032143
vn 0.000000 -1.000000 0.000000
vn -0.061139 -0.994576 0.084151
vn -0.032143 -0.994576 0.098926
vn 0.000000 -0.994576 0.104017
vn 0.032143 -0.994576 0.098926
vn 0.061139 -0.994576 0.084151
vn 0.084151 -0.994576 0.061140
vn 0.098926 -0.994576 0.032143
vn 0.104017 -0.994576 -0.000001
vn 0.098926 -0.994576 -0.032143
vn 0.084151 -0.994576 -0.061140
vn 0.061139 -0.994576 -0.084151
vn 0.032143 -0.994576 -0.098926
vn 0.000000 -0.994576 -0.104017
vn -0.032143 -0.994576 -0.098926
vn -0.061139 -0.994576 -0.084151
vn -0.084151 -0.994576 -0.061139
vn -0.098926 -0.994576 -0.032142
vn -0.104017 -0.994576 0.000000
vn 0.951057 0.000000 -0.309016
vn 0.809017 0.000000 -0.587785
vn 0.809017 0.000000 -0.587785
vn 0.951057 0.000000 -0.309016
vn 0.587785 0.000000 -0.809017
vn 0.587785 0.000000 -0.809017
vn 0.309017 0.000000 -0.951057
vn 0.309017 0.000000 -0.951057
vn -0.000000 0.000000 -1.000000
vn -0.000000 0.000000 -1.000000
vn -0.309017 0.000000 -0.951056
vn -0.309017 0.000000 -0.951056
vn -0.587785 0.000000 -0.809017
vn -0.587785 0.000000 -0.809017
vn -0.809017 0.000000 -0.587785
vn -0.809017 0.000000 -0.587785
vn -0.951057 0.000000 -0.309017
vn -0.951057 0.000000 -0.309017
vn -1.000000 0.000000 0.000000
vn -1.000000 0.000000 0.000000
vn -0.951057 0.000000 0.309017
vn -0.951057 0.000000 0.309017
vn -0.809017 0.000000 0.587785
vn -0.809017 0.000000 0.587785
vn -0.587785 0.000000 0.809017
vn -0.587785 0.000000 0.809017
vn -0.309017 0.000000 0.951057
vn -0.309017 0.000000 0.951057
vn 0.000000 0.000000 1.000000
vn 0.000000 0.000000 1.000000
vn 0.309017 0.000000 0.951057
vn 0.309017 0.000000 0.951057
vn 0.587785 0.000000 0.809017
vn 0.587785 0.000000 0.809017
vn 0.809017 0.000000 0.587785
vn 0.809017 0.000000 0.587785
vn 0.951057 0.000000 0.309017
vn 0.951057 0.000000 0.309017
vn 1.000000 0.000000 0.000001
vn 1.000000 0.000000 0.000001
s 1
g Mountain_Dew:pCylinder1
usemtl Mountain_Dew:lambert2SG
f 3/105/1 4/1/2 42/2/3 41/144/4
f 4/3/2 3/105/1 5/107/5 6/4/6
f 6/5/6 5/107/5 7/109/7 8/6/8
f 8/7/8 7/109/7 9/111/9 10/8/10
f 10/9/10 9/111/9 11/113/11 12/10/12
f 12/11/12 11/113/11 13/115/13 14/12/14
f 14/13/14 13/115/13 15/117/15 16/14/16
f 16/15/16 15/117/15 17/119/17 18/16/18
f 18/17/18 17/119/17 19/121/19 20/18/20
f 20/19/20 19/121/19 21/123/21 22/20/22
f 22/21/22 21/123/21 23/125/23 24/22/24
f 24/23/24 23/125/23 25/127/25 26/24/26
f 26/25/26 25/127/25 27/129/27 28/26/28
f 28/27/28 27/129/27 29/131/29 30/28/30
f 30/29/30 29/131/29 31/133/31 32/30/32
f 32/31/32 31/133/31 33/135/33 34/32/34
f 34/33/34 33/135/33 35/34/35 36/35/36
f 36/36/36 35/138/35 37/140/37 38/37/38
f 38/38/38 37/140/37 39/142/39 40/39/40
f 40/40/40 39/142/39 41/144/4 42/41/3
s 2
f 4/61/41 6/42/42 2/62/43
f 6/42/42 8/43/44 2/62/43
f 8/43/44 10/44/45 2/62/43
f 10/44/45 12/45/46 2/62/43
f 12/45/46 14/46/47 2/62/43
f 14/46/47 16/47/48 2/62/43
f 16/47/48 18/48/49 2/62/43
f 18/48/49 20/49/50 2/62/43
f 20/49/50 22/50/51 2/62/43
f 22/50/51 24/51/52 2/62/43
f 24/51/52 26/52/53 2/62/43
f 26/52/53 28/53/54 2/62/43
f 28/53/54 30/54/55 2/62/43
f 30/54/55 32/55/56 2/62/43
f 32/55/56 34/56/57 2/62/43
f 34/56/57 36/57/58 2/62/43
f 36/57/58 38/58/59 2/62/43
f 38/58/59 40/59/60 2/62/43
f 40/59/60 42/60/61 2/62/43
f 42/60/61 4/61/41 2/62/43
s 3
f 43/83/62 44/63/63 82/82/64 81/103/65
f 44/63/63 43/83/62 45/84/66 46/64/67
f 46/64/67 45/84/66 47/85/68 48/65/69
f 48/65/69 47/85/68 49/86/70 50/66/71
f 50/66/71 49/86/70 51/87/72 52/67/73
f 52/67/73 51/87/72 53/88/74 54/68/75
f 54/68/75 53/88/74 55/89/76 56/69/77
f 56/69/77 55/89/76 57/90/78 58/70/79
f 58/70/79 57/90/78 59/91/80 60/71/81
f 60/71/81 59/91/80 61/92/82 62/72/83
f 62/72/83 61/92/82 63/93/84 64/73/85
f 64/73/85 63/93/84 65/94/86 66/74/87
f 66/74/87 65/94/86 67/95/88 68/75/89
f 68/75/89 67/95/88 69/96/90 70/76/91
f 70/76/91 69/96/90 71/97/92 72/77/93
f 72/77/93 71/97/92 73/98/94 74/78/95
f 74/78/95 73/98/94 75/99/96 76/79/97
f 76/79/97 75/99/96 77/100/98 78/80/99
f 78/80/99 77/100/98 79/101/100 80/81/101
f 80/81/101 79/101/100 81/103/65 82/82/64
s 4
f 45/84/102 43/83/103 1/102/104
f 47/85/105 45/84/102 1/102/104
f 49/86/106 47/85/105 1/102/104
f 51/87/107 49/86/106 1/102/104
f 53/88/108 51/87/107 1/102/104
f 55/89/109 53/88/108 1/102/104
f 57/90/110 55/89/109 1/102/104
f 59/91/111 57/90/110 1/102/104
f 61/92/112 59/91/111 1/102/104
f 63/93/113 61/92/112 1/102/104
f 65/94/114 63/93/113 1/102/104
f 67/95/115 65/94/114 1/102/104
f 69/96/116 67/95/115 1/102/104
f 71/97/117 69/96/116 1/102/104
f 73/98/118 71/97/117 1/102/104
f 75/99/119 73/98/118 1/102/104
f 77/100/120 75/99/119 1/102/104
f 79/101/121 77/100/120 1/102/104
f 81/103/122 79/101/121 1/102/104
f 43/83/103 81/103/122 1/102/104
s 5
f 44/143/123 46/104/124 5/107/125 3/105/126
f 46/104/124 48/106/127 7/109/128 5/107/125
f 48/106/127 50/108/129 9/111/130 7/109/128
f 50/108/129 52/110/131 11/113/132 9/111/130
f 52/110/131 54/112/133 13/115/134 11/113/132
f 54/112/133 56/114/135 15/117/136 13/115/134
f 56/114/135 58/116/137 17/119/138 15/117/136
f 58/116/137 60/118/139 19/121/140 17/119/138
f 60/118/139 62/120/141 21/123/142 19/121/140
f 62/120/141 64/122/143 23/125/144 21/123/142
f 64/122/143 66/124/145 25/127/146 23/125/144
f 66/124/145 68/126/147 27/129/148 25/127/146
f 68/126/147 70/128/149 29/131/150 27/129/148
f 70/128/149 72/130/151 31/133/152 29/131/150
f 72/130/151 74/132/153 33/135/154 31/133/152
f 74/132/153 76/134/155 35/34/156 33/135/154
f 76/136/155 78/137/157 37/140/158 35/138/156
f 78/137/157 80/139/159 39/142/160 37/140/158
f 80/139/159 82/141/161 41/144/162 39/142/160
f 82/141/161 44/143/123 3/105/126 41/144/162
