# This file uses centimeters as units for non-parametric coordinates.

mtllib PoliceVan.mtl
g default
v -2.691071 -0.952578 9.536872
v 2.691071 -0.952578 9.536872
v -2.691071 0.538214 9.536872
v 2.691071 0.538214 9.536872
v -2.691071 0.538214 7.284587
v 2.691071 0.538214 7.284587
v -2.691071 0.538214 4.171426
v 2.691071 0.538214 4.171426
v -2.691071 0.538214 -4.246027
v 2.691071 0.538214 -4.246027
v -2.691071 0.538214 -7.649632
v 2.691071 0.538214 -7.649632
v -2.691071 0.538214 -9.321027
v 2.691071 0.538214 -9.321027
v -2.691071 -0.952578 -9.321027
v 2.691071 -0.952578 -9.321027
v -2.691071 -0.952578 -7.649632
v 2.691071 -0.952578 -7.649632
v -2.691071 -0.952578 -4.246027
v 2.691071 -0.952578 -4.246027
v -2.691071 -0.952578 4.171427
v 2.691071 -0.952578 4.171427
v -2.691071 -0.952578 7.284587
v 2.691071 -0.952578 7.284587
v 3.767500 -0.952578 -9.321027
v 3.767500 -0.952578 -7.649632
v 3.767500 0.538214 -9.321027
v 3.767500 0.538214 -7.649632
v 3.767500 -0.952579 -4.246027
v 3.767500 -0.952579 4.171427
v 3.767500 0.538214 -4.246028
v 3.767500 0.538214 4.171426
v 3.767500 -0.952578 7.284587
v 3.767500 -0.952578 9.536872
v 3.767500 0.538214 7.284587
v 3.767500 0.538214 9.536872
v -3.767500 -0.952578 -9.321027
v -3.767500 -0.952578 -7.649632
v -3.767500 0.538214 -7.649632
v -3.767500 0.538214 -9.321027
v -3.767500 -0.952578 -4.246027
v -3.767500 -0.952578 4.171427
v -3.767500 0.538214 4.171426
v -3.767500 0.538214 -4.246028
v -3.767500 -0.952578 7.284587
v -3.767500 -0.952578 9.536872
v -3.767500 0.538214 9.536872
v -3.767500 0.538214 7.284587
v -2.691071 0.699679 7.284587
v 2.691071 0.699679 7.284587
v 2.691071 0.699679 4.171426
v -2.691071 0.699679 4.171426
v -2.691071 0.699679 -4.246027
v 2.691071 0.699679 -4.246027
v 2.691071 0.699679 -7.649632
v -2.691071 0.699679 -7.649632
v 3.767500 7.158250 -9.321027
v 2.691071 7.158250 -9.321027
v -2.691071 7.158250 -9.321027
v -3.767500 7.158250 -9.321027
v -3.767500 7.158250 4.171426
v -2.691071 7.158250 4.171426
v 2.691071 7.158250 4.171426
v 3.767500 7.158250 4.171426
v -2.691071 2.852536 9.536872
v 2.691071 2.852536 9.536872
v 2.691071 6.081821 4.171426
v -2.691071 6.081821 4.171426
v -3.767500 2.852536 9.536872
v -3.767500 6.081821 4.171426
v 3.767500 2.852536 9.536872
v 3.767500 6.081821 4.171426
v -2.691071 0.699679 5.171426
v 2.691071 0.699679 5.171426
v 2.691071 7.158250 5.171426
v -2.691071 7.158250 5.171426
vt 0.375000 0.300000
vt 0.625000 0.300000
vt 0.375000 0.350000
vt 0.625000 0.350000
vt 0.375000 0.400000
vt 0.625000 0.400000
vt 0.375000 0.450000
vt 0.625000 0.450000
vt 0.852303 0.311338
vt 0.825000 0.250000
vt 0.725000 0.250000
vt 0.225000 0.250000
vt 0.325000 0.250000
vt 0.875000 0.250000
vt 0.825000 0.250000
vt 0.725000 0.250000
vt 0.675000 0.250000
vt 0.175000 0.250000
vt 0.275000 0.250000
vt 0.325000 0.250000
vt 0.625000 0.300000
vt 0.625000 0.350000
vt 0.375000 0.350000
vt 0.375000 0.300000
vt 0.625000 0.400000
vt 0.625000 0.450000
vt 0.375000 0.450000
vt 0.375000 0.400000
vt 0.825000 0.250000
vt 0.225000 0.250000
vt 0.725000 0.250000
vt 0.325000 0.250000
vt 0.225000 0.250000
vt 0.225000 0.250000
vt 0.225000 0.250000
vt 0.775000 0.250000
vt 0.625000 0.400000
vt 0.625000 0.400000
vt 0.325000 0.250000
vt 0.325000 0.250000
vt 0.325000 0.250000
vt 0.675000 0.250000
vt 0.625000 0.300000
vt 0.625000 0.300000
vt 0.812500 0.250000
vt 0.625000 0.500000
vt 0.375000 0.300000
vt 0.625000 0.300000
vt 0.625000 0.350000
vt 0.375000 0.350000
vt 0.325000 0.250000
vt 0.325000 0.250000
vt 0.325000 0.250000
vt 0.325000 0.250000
vt 0.675000 0.250000
vt 0.675000 0.250000
vt 0.625000 0.300000
vt 0.625000 0.275000
vt 0.350000 0.250000
vt 0.350000 0.250000
vt 0.650000 0.250000
vt 0.375000 0.350000
vt 0.725000 0.250000
vt 0.055182 0.421752
vt 0.055182 0.123641
vt 0.130447 0.123641
vt 0.283717 0.123641
vt 0.662769 0.123641
vt 0.662769 0.421752
vt 0.662769 0.421752
vt 0.055182 0.421753
vt 0.055182 0.123641
vt 0.434233 0.123641
vt 0.587503 0.123641
vt 0.662769 0.123641
vt 0.813177 0.477082
vt 0.813177 0.493806
vt 0.813177 0.473737
vt 0.813177 0.497151
vt 0.820369 0.473737
vt 0.820369 0.477082
vt 0.820369 0.493806
vt 0.820369 0.497151
vt 0.971745 0.494308
vt 0.955020 0.494308
vt 0.955020 0.473737
vt 0.971745 0.473737
vt 0.820663 0.473737
vt 0.824008 0.474238
vt 0.824008 0.494308
vt 0.820663 0.494308
vt 0.824303 0.474238
vt 0.827648 0.473737
vt 0.827648 0.494308
vt 0.824303 0.494308
vt 0.843171 0.494460
vt 0.846515 0.494460
vt 0.846515 0.511133
vt 0.843171 0.511133
vt 0.839592 0.494460
vt 0.842937 0.494460
vt 0.842937 0.511133
vt 0.839592 0.511133
vt 0.241534 0.882293
vt 0.241534 0.649597
vt 0.473508 0.649597
vt 0.473508 0.882293
vt 0.244226 0.472077
vt 0.449391 0.472077
vt 0.449391 0.837414
vt 0.095795 0.624596
vt 0.449453 0.472285
vt 0.244288 0.472285
vt 0.095857 0.624804
vt 0.449453 0.837622
vt 0.397564 0.485379
vt 0.396096 0.485379
vt 0.396096 0.477120
vt 0.397564 0.477120
vt 0.399216 0.485379
vt 0.397747 0.485379
vt 0.397747 0.477120
vt 0.399216 0.477120
vt 0.400867 0.484674
vt 0.399399 0.484674
vt 0.399399 0.477120
vt 0.400867 0.477120
vt 0.402518 0.484674
vt 0.401050 0.484674
vt 0.401050 0.477120
vt 0.402518 0.477120
vt 0.663839 0.703461
vt 0.903187 0.703461
vt 0.903187 0.990679
vt 0.663838 0.990680
vt 0.927122 0.780389
vt 0.639903 0.780389
vt 0.639903 0.727024
vt 0.927122 0.727024
vt 0.989107 0.774541
vt 0.989107 0.843668
vt 0.834891 0.843668
vt 0.834891 0.774541
vt 0.644053 0.905060
vt 0.644053 0.726887
vt 0.671640 0.726887
vt 0.671640 0.905060
vt 0.307232 0.550142
vt 0.299232 0.550142
vt 0.259229 0.550142
vt 0.251228 0.550142
vt 0.251228 0.449858
vt 0.259229 0.449858
vt 0.299232 0.449858
vt 0.307232 0.449858
vt 0.450348 0.449858
vt 0.456973 0.449858
vt 0.456973 0.499817
vt 0.456201 0.500184
vt 0.462826 0.500184
vt 0.456201 0.550142
vt 0.090720 0.557931
vt 0.071881 0.557931
vt 0.071881 0.442069
vt 0.090720 0.442069
vt 0.942074 0.542353
vt 0.942074 0.457647
vt 0.978497 0.457647
vt 0.978497 0.542353
vt 0.494097 0.507340
vt 0.494097 0.517856
vt 0.491184 0.517856
vt 0.491184 0.507340
vt 0.494097 0.519959
vt 0.491184 0.519959
vt 0.491184 0.505237
vt 0.494097 0.505237
vt 0.490922 0.507340
vt 0.490922 0.517856
vt 0.488009 0.517856
vt 0.488009 0.507340
vt 0.490922 0.519959
vt 0.488009 0.519959
vt 0.488009 0.505237
vt 0.490922 0.505237
vt 0.513374 0.519959
vt 0.502858 0.519959
vt 0.502858 0.516694
vt 0.513374 0.516694
vt 0.500755 0.519959
vt 0.500755 0.516694
vt 0.502858 0.510043
vt 0.513374 0.510043
vt 0.515478 0.516694
vt 0.515478 0.519959
vt 0.502858 0.493596
vt 0.513374 0.493596
vt 0.500755 0.510043
vt 0.500755 0.493596
vt 0.502858 0.487513
vt 0.513374 0.487513
vt 0.515478 0.493596
vt 0.515478 0.510043
vt 0.502858 0.483112
vt 0.513374 0.483112
vt 0.500755 0.487513
vt 0.500755 0.483112
vt 0.515478 0.483112
vt 0.515478 0.487513
vt 0.488286 0.501812
vt 0.488286 0.505078
vt 0.485373 0.505078
vt 0.485373 0.501812
vt 0.487747 0.513309
vt 0.487747 0.519959
vt 0.484835 0.519959
vt 0.484835 0.513309
vt 0.497272 0.503512
vt 0.497272 0.519959
vt 0.494359 0.519959
vt 0.494359 0.503512
vt 0.481398 0.513876
vt 0.481398 0.519959
vt 0.478485 0.519959
vt 0.478485 0.513876
vt 0.485130 0.508750
vt 0.485130 0.513150
vt 0.482217 0.513150
vt 0.482217 0.508750
vt 0.491443 0.501812
vt 0.491443 0.505078
vt 0.488530 0.505078
vt 0.488530 0.501812
vt 0.484572 0.513309
vt 0.484572 0.519959
vt 0.481660 0.519959
vt 0.481660 0.513309
vt 0.500447 0.503512
vt 0.500447 0.519959
vt 0.497534 0.519959
vt 0.497534 0.503512
vt 0.478816 0.507635
vt 0.478816 0.513718
vt 0.475903 0.513718
vt 0.475903 0.507635
vt 0.481973 0.508750
vt 0.481973 0.513150
vt 0.479060 0.513150
vt 0.479060 0.508750
vt 0.493790 0.502165
vt 0.493790 0.505078
vt 0.491687 0.505078
vt 0.491687 0.502165
vt 0.503178 0.480041
vt 0.503178 0.482954
vt 0.501075 0.482954
vt 0.501075 0.480041
vt 0.496137 0.500441
vt 0.496137 0.503354
vt 0.494034 0.503354
vt 0.494034 0.500441
vt 0.505525 0.480041
vt 0.505525 0.482954
vt 0.503422 0.482954
vt 0.503422 0.480041
vt 0.496381 0.503354
vt 0.496381 0.500441
vt 0.498484 0.500441
vt 0.498484 0.503354
vt 0.498728 0.482954
vt 0.498728 0.480041
vt 0.500831 0.480041
vt 0.500831 0.482954
vt 0.505769 0.482954
vt 0.505769 0.480041
vt 0.507872 0.480041
vt 0.507872 0.482954
vt 0.508116 0.482954
vt 0.508116 0.480041
vt 0.510219 0.480041
vt 0.510219 0.482954
vn 0.000000 0.000000 1.000000
vn 0.000000 0.000000 1.000000
vn 0.000000 0.000000 1.000000
vn 0.000000 0.000000 1.000000
vn 0.000000 0.856786 0.515671
vn 0.000000 0.856786 0.515671
vn 0.000000 0.856786 0.515671
vn 0.000000 0.856786 0.515671
vn 0.000000 0.000000 -1.000000
vn 0.000000 0.000000 -1.000000
vn 0.000000 0.000000 -1.000000
vn 0.000000 0.000000 -1.000000
vn 0.000000 -1.000000 0.000000
vn 0.000000 -1.000000 0.000000
vn 0.000000 -1.000000 0.000000
vn 0.000000 -1.000000 0.000000
vn 0.000000 -1.000000 0.000000
vn -0.000000 -1.000000 0.000000
vn 0.000000 -1.000000 0.000000
vn -0.000000 -1.000000 0.000000
vn 0.000000 -1.000000 0.000000
vn 0.000000 -1.000000 0.000000
vn 0.000000 -1.000000 0.000000
vn 0.000000 -1.000000 0.000000
vn 1.000000 0.000000 0.000000
vn 1.000000 0.000000 0.000000
vn 1.000000 0.000000 0.000000
vn 1.000000 0.000000 0.000000
vn 1.000000 0.000000 0.000000
vn 1.000000 0.000000 0.000000
vn 1.000000 0.000000 0.000000
vn 1.000000 0.000000 0.000000
vn 1.000000 -0.000000 0.000000
vn 1.000000 0.000000 0.000000
vn 1.000000 -0.000000 0.000000
vn 1.000000 0.000000 0.000000
vn 1.000000 0.000000 0.000000
vn 1.000000 0.000000 0.000000
vn 1.000000 0.000000 0.000000
vn 1.000000 0.000000 0.000000
vn 1.000000 0.000000 0.000000
vn 1.000000 0.000000 0.000000
vn 1.000000 0.000000 0.000000
vn 1.000000 0.000000 0.000000
vn -1.000000 0.000000 0.000000
vn -1.000000 0.000000 0.000000
vn -1.000000 0.000000 0.000000
vn -1.000000 0.000001 0.000000
vn -1.000000 0.000000 0.000000
vn -1.000000 0.000000 0.000000
vn -1.000000 0.000000 0.000000
vn -1.000000 0.000000 0.000000
vn -1.000000 -0.000000 0.000000
vn -1.000000 0.000000 0.000000
vn -1.000000 0.000000 0.000000
vn -1.000000 0.000000 0.000000
vn -1.000000 0.000000 0.000000
vn -1.000000 0.000000 0.000000
vn -1.000000 0.000000 0.000000
vn -1.000000 0.000000 0.000000
vn -1.000000 0.000000 0.000000
vn -1.000000 0.000000 0.000000
vn -1.000000 0.000000 0.000000
vn -1.000000 0.000000 0.000000
vn 0.000000 -1.000000 0.000000
vn 0.000000 -1.000000 0.000000
vn 0.000000 0.000000 -1.000000
vn 0.000000 0.000000 -1.000000
vn 0.000001 0.000000 1.000000
vn 0.000000 0.000000 1.000000
vn 0.000000 0.000000 1.000000
vn 0.000000 0.000000 1.000000
vn -0.000000 -1.000000 0.000000
vn -0.000000 -1.000000 0.000000
vn -0.000000 0.000000 -1.000000
vn -0.000000 -0.000000 -1.000000
vn -0.000000 -0.000000 -1.000000
vn -0.000001 -0.000000 -1.000000
vn 0.000000 0.000001 1.000000
vn -0.000000 0.000001 1.000000
vn -0.000000 0.000001 1.000000
vn -0.000001 0.000001 1.000000
vn 0.000000 -1.000000 0.000000
vn 0.000000 -1.000000 0.000000
vn 0.000000 0.000000 -1.000000
vn -0.000001 0.000000 -1.000000
vn -0.000001 0.000000 -1.000000
vn -0.000001 0.000000 -1.000000
vn 0.000000 0.000000 1.000000
vn 0.000000 0.000000 1.000000
vn 0.000000 -1.000000 0.000000
vn 0.000000 -1.000000 0.000000
vn 0.000000 0.000000 1.000000
vn 0.000000 0.000000 1.000000
vn 0.000000 0.000000 1.000000
vn 0.000000 0.000000 1.000000
vn 0.000000 0.000000 -1.000000
vn 0.000000 0.000000 -1.000000
vn 0.000000 -1.000000 0.000000
vn 0.000000 -1.000000 0.000000
vn 0.000000 0.000001 1.000000
vn -0.000000 0.000001 1.000000
vn -0.000000 0.000001 1.000000
vn -0.000001 0.000001 1.000000
vn 0.000000 0.000000 -1.000000
vn 0.000000 -0.000000 -1.000000
vn 0.000000 -0.000000 -1.000000
vn 0.000000 -0.000000 -1.000000
vn 0.000000 -1.000000 0.000000
vn 0.000000 -1.000000 0.000000
vn 0.000000 0.000000 1.000000
vn 0.000000 0.000000 1.000000
vn 0.000001 0.000000 -1.000000
vn 0.000000 0.000000 -1.000000
vn 0.000000 0.000000 -1.000000
vn 0.000000 0.000000 -1.000000
vn 1.000000 0.000000 0.000000
vn 1.000000 0.000000 0.000000
vn 1.000000 0.000000 0.000000
vn 1.000000 0.000000 0.000000
vn -1.000000 0.000000 0.000000
vn -1.000000 0.000000 0.000000
vn -1.000000 0.000000 0.000000
vn -1.000000 0.000000 0.000000
vn 1.000000 0.000000 0.000000
vn 1.000000 0.000000 0.000000
vn 1.000000 0.000000 0.000000
vn 1.000000 0.000000 0.000000
vn -1.000000 0.000000 0.000000
vn -1.000000 0.000000 0.000000
vn -1.000000 0.000000 0.000000
vn -1.000000 0.000000 0.000000
vn 0.000000 0.000000 1.000000
vn 0.000000 0.000000 1.000000
vn 0.000000 0.000000 1.000000
vn 0.000000 0.000000 1.000000
vn 0.000000 0.000000 1.000000
vn 0.000000 0.000000 1.000000
vn 0.000000 0.000000 -1.000000
vn 0.000000 0.000000 -1.000000
vn 0.000000 0.000000 -1.000000
vn 0.000000 0.000000 1.000000
vn 0.000000 0.000000 1.000000
vn 0.000000 0.000000 1.000000
vn 0.000000 0.000000 1.000000
vn 0.000000 0.000000 1.000000
vn 0.000000 0.000000 1.000000
vn 0.000000 0.000000 -1.000000
vn 0.000000 0.000000 -1.000000
vn 0.000000 0.000000 -1.000000
vn 0.000000 0.000000 -1.000000
vn 0.000000 0.000000 -1.000000
vn 0.000000 0.000000 -1.000000
vn 0.000000 0.000000 -1.000000
vn 0.000000 0.000000 -1.000000
vn 0.000000 0.000000 -1.000000
vn 0.000000 -1.000000 0.000000
vn 0.000000 -1.000000 0.000000
vn 0.000000 -1.000000 0.000000
vn 0.000000 -1.000000 0.000000
vn 1.000000 0.000000 0.000000
vn 1.000000 0.000000 0.000000
vn 1.000000 0.000000 0.000000
vn 1.000000 0.000000 0.000000
vn -0.000000 -1.000000 -0.000000
vn -0.000000 -1.000000 -0.000000
vn -0.000000 -1.000000 -0.000000
vn -0.000000 -1.000000 0.000000
vn -1.000000 0.000000 0.000000
vn -1.000000 0.000000 0.000000
vn -1.000000 0.000000 0.000000
vn -1.000000 0.000000 0.000000
vn 0.000000 1.000000 0.000000
vn 0.000000 1.000000 0.000000
vn 0.000000 1.000000 0.000000
vn 0.000000 1.000000 0.000000
vn 0.000000 1.000000 0.000000
vn 0.000000 1.000000 0.000000
vn 0.000000 1.000000 0.000000
vn 0.000000 1.000000 0.000000
vn 0.000000 -1.000000 0.000000
vn 0.000000 -1.000000 0.000000
vn 0.000000 -1.000000 0.000000
vn 0.000000 -1.000000 0.000000
vn 0.000000 0.856786 0.515671
vn 0.000000 0.856786 0.515671
vn 0.000000 0.856786 0.515672
vn 0.000000 0.856786 0.515672
vn 1.000000 0.000000 0.000000
vn 1.000000 0.000000 0.000000
vn 1.000000 0.000000 0.000000
vn 1.000000 0.000000 0.000000
vn -0.000000 -1.000000 0.000000
vn -0.000000 -1.000000 0.000000
vn -0.000000 -1.000000 0.000000
vn -0.000000 -1.000000 0.000000
vn -1.000000 0.000000 0.000000
vn -1.000000 0.000000 0.000000
vn -1.000000 0.000000 0.000000
vn -1.000000 0.000000 0.000000
vn 0.000000 0.856786 0.515672
vn 0.000000 0.856786 0.515672
vn 0.000000 0.856786 0.515671
vn 0.000000 0.856786 0.515671
vn 0.000000 0.000000 -1.000000
vn 0.000000 0.000000 -1.000000
vn 0.000000 0.000000 -1.000000
vn 0.000000 0.000000 -1.000000
vn -1.000000 0.000000 0.000000
vn -1.000000 0.000000 0.000000
vn -0.000001 0.000000 1.000000
vn -0.000001 0.000000 1.000000
vn -0.000000 0.000000 1.000000
vn 0.000000 0.000000 1.000000
vn 0.000000 0.000000 1.000000
vn 0.000000 0.000000 1.000000
vn 0.000000 0.000000 1.000000
vn 0.000000 0.000000 1.000000
vn 0.000001 0.000000 1.000000
vn 0.000000 0.000000 1.000000
vn 0.000000 0.000000 1.000000
vn 0.000000 0.000000 1.000000
vn 1.000000 0.000000 0.000000
vn 1.000000 -0.000000 0.000000
vn 0.000000 -0.722883 0.690971
vn 0.000000 -0.722883 0.690971
vn 0.000000 -0.722883 0.690971
vn 0.000000 -0.722883 0.690971
vn 1.000000 -0.000000 0.000000
vn 1.000000 -0.000000 0.000000
vn 1.000000 -0.000000 0.000000
vn 1.000000 0.000000 0.000000
vn 0.000000 0.000000 -1.000000
vn 0.000000 0.000000 -1.000000
vn 0.000000 0.000000 -1.000000
vn 0.000000 0.000000 -1.000000
vn -1.000000 -0.000000 0.000000
vn -1.000000 -0.000000 0.000000
vn -1.000000 -0.000000 0.000000
vn -1.000000 0.000000 0.000000
vn 0.104049 -0.693651 0.712757
vn 0.084145 -0.699926 0.709242
vn 0.022884 -0.717208 0.696483
vn 0.000000 -0.722883 0.690971
vn 1.000000 0.000000 0.000000
vn 1.000000 0.000000 0.000000
vn 1.000000 0.000000 0.000000
vn 1.000000 0.000000 0.000000
vn -0.000000 0.000000 -1.000000
vn -0.000000 0.000000 -1.000000
vn -0.000000 0.000000 -1.000000
vn 0.000000 0.000000 -1.000000
vn -1.000000 0.000000 0.000000
vn -1.000000 0.000000 0.000000
vn -1.000000 0.000000 0.000000
vn -1.000000 0.000000 0.000000
vn -0.104049 -0.693651 0.712757
vn -0.022884 -0.717208 0.696483
vn -0.084144 -0.699926 0.709242
vn 0.000000 -0.722883 0.690971
vn 1.000000 0.000000 0.000000
vn 1.000000 0.000000 0.000000
vn 1.000000 0.000000 0.000000
vn 1.000000 0.000000 0.000000
vn 0.000000 0.000000 -1.000000
vn 0.000000 0.000000 -1.000000
vn 0.000000 0.000000 -1.000000
vn 0.000000 0.000000 -1.000000
vn -1.000000 0.000000 0.000000
vn -1.000000 0.000000 0.000000
vn -1.000000 0.000000 0.000000
vn -1.000000 0.000000 0.000000
vn 0.000000 0.722883 -0.690971
vn 0.000000 0.722883 -0.690971
vn 0.000000 0.722883 -0.690971
vn 0.000000 0.722883 -0.690971
vn -0.104049 0.693651 -0.712757
vn -0.022884 0.717208 -0.696483
vn -0.084144 0.699926 -0.709242
vn 0.000000 0.722883 -0.690971
vn -1.000000 0.000000 0.000000
vn 0.000000 0.000000 1.000000
vn 0.000000 0.000000 1.000000
vn 0.000000 0.000000 1.000000
vn 0.000000 0.000000 1.000000
vn 1.000000 0.000000 0.000000
vn 0.104049 0.693651 -0.712757
vn 0.084145 0.699926 -0.709242
vn 0.022884 0.717208 -0.696483
vn 0.000000 0.722883 -0.690971
vn 0.000000 -1.000000 0.000000
vn 0.000000 -1.000000 0.000000
vn 0.000000 -1.000000 0.000000
vn 0.000000 -1.000000 0.000000
vn 1.000000 0.000000 0.000000
vn 1.000000 0.000000 0.000000
vn 1.000000 0.000000 0.000000
vn 1.000000 0.000000 0.000000
vn 0.000000 1.000000 0.000000
vn 0.000000 1.000000 0.000000
vn -1.000000 0.000000 0.000000
vn -1.000000 0.000000 0.000000
vn -1.000000 0.000000 0.000000
vn -1.000000 0.000000 0.000000
s 1
g pCube1
usemtl lambert2SG
f 1/170/1 2/171/2 3/173/3
f 3/173/3 2/171/2 4/172/4
s 2
f 65/104/5 66/105/6 68/107/7
f 68/107/7 66/105/6 67/106/8
s 3
f 13/178/9 14/179/10 15/181/11
f 15/181/11 14/179/10 16/180/12
s 4
f 15/186/13 16/187/14 17/189/15
f 17/189/15 16/187/14 18/188/16
f 17/189/15 18/188/16 19/193/17
f 19/193/17 18/188/16 20/192/18
f 19/193/17 20/192/18 21/197/19
f 21/197/19 20/192/18 22/196/20
f 21/197/19 22/196/20 23/201/21
f 23/201/21 22/196/20 24/200/22
f 23/201/21 24/200/22 1/205/23
f 1/205/23 24/200/22 2/204/24
s 5
f 26/210/25 25/211/26 28/213/27
f 28/213/27 25/211/26 27/212/28
s 6
f 20/214/29 18/215/30 10/217/31
f 10/217/31 18/215/30 12/216/32
s 5
f 30/218/33 29/219/34 32/221/35
f 32/221/35 29/219/34 31/220/36
s 8
f 24/222/37 22/223/38 6/225/39
f 6/225/39 22/223/38 8/224/40
s 9
f 34/226/41 33/227/42 36/229/43
f 36/229/43 33/227/42 35/228/44
s 10
f 37/230/45 38/231/46 40/233/47
f 40/233/47 38/231/46 39/232/48
s 11
f 17/234/49 19/235/50 11/237/51
f 11/237/51 19/235/50 9/236/52
s 10
f 41/238/53 42/239/54 44/241/55
f 44/241/55 42/239/54 43/240/56
s 13
f 21/242/57 23/243/58 7/245/59
f 7/245/59 23/243/58 5/244/60
s 14
f 45/246/61 46/247/62 48/249/63
f 48/249/63 46/247/62 47/248/64
s 4
f 18/188/16 16/187/14 26/191/65
f 26/191/65 16/187/14 25/190/66
s 3
f 16/180/12 14/179/10 25/183/67
f 25/183/67 14/179/10 27/182/68
s 15
f 12/250/69 18/251/70 28/253/71
f 28/253/71 18/251/70 26/252/72
s 4
f 22/196/20 20/192/18 30/199/73
f 30/199/73 20/192/18 29/198/74
s 16
f 20/254/75 10/255/76 29/257/77
f 29/257/77 10/255/76 31/256/78
s 17
f 8/258/79 22/259/80 32/261/81
f 32/261/81 22/259/80 30/260/82
s 4
f 2/204/24 24/200/22 34/207/83
f 34/207/83 24/200/22 33/206/84
s 18
f 24/262/85 6/263/86 33/265/87
f 33/265/87 6/263/86 35/264/88
s 1
f 4/172/4 2/171/2 36/175/89
f 36/175/89 2/171/2 34/174/90
s 4
f 15/186/13 17/189/15 37/195/91
f 37/195/91 17/189/15 38/194/92
s 19
f 17/266/93 11/267/94 38/269/95
f 38/269/95 11/267/94 39/268/96
s 3
f 13/178/9 15/181/11 40/185/97
f 40/185/97 15/181/11 37/184/98
s 4
f 19/193/17 21/197/19 41/203/99
f 41/203/99 21/197/19 42/202/100
s 20
f 21/270/101 7/271/102 42/273/103
f 42/273/103 7/271/102 43/272/104
s 21
f 9/274/105 19/275/106 44/277/107
f 44/277/107 19/275/106 41/276/108
s 4
f 23/201/21 1/205/23 45/209/109
f 45/209/109 1/205/23 46/208/110
s 1
f 1/170/1 3/173/3 46/177/111
f 46/177/111 3/173/3 47/176/112
s 22
f 5/278/113 23/279/114 48/281/115
f 48/281/115 23/279/114 45/280/116
s 23
f 6/2/117 8/4/118 50/21/119
s 24
f 50/21/119 8/4/118 51/22/120
s 25
f 7/3/121 5/1/122 52/23/123
s off
f 52/23/123 5/1/122 49/24/124
s 26
f 10/6/125 12/8/126 54/25/127
s 27
f 54/25/127 12/8/126 55/26/128
s 28
f 11/7/129 9/5/130 56/27/131
s off
f 56/27/131 9/5/130 53/28/132
f 39/18/133 11/7/134 56/27/135
f 12/10/136 28/15/137 55/29/138
f 11/33/139 39/34/140 56/35/141
f 43/19/142 7/3/143 52/23/144
f 8/11/145 32/16/146 51/31/147
f 28/36/148 12/37/149 55/38/150
f 7/39/151 43/40/152 52/41/153
f 32/42/154 8/43/155 51/44/156
s 29
f 9/116/157 44/117/158 11/119/159
f 11/119/159 44/117/158 39/118/160
s off
f 53/30/161 9/12/162 56/35/163
s 28
f 56/35/163 9/12/162 11/33/164
s 30
f 31/120/165 10/121/166 28/123/167
f 28/123/167 10/121/166 12/122/168
s 27
f 10/6/169 54/25/170 12/37/171
s 26
f 12/37/171 54/25/170 55/38/172
s 31
f 57/148/173 58/149/174 64/155/175
f 64/155/175 58/149/174 63/154/176
f 58/149/174 59/150/177 63/154/176
f 63/154/176 59/150/177 62/153/178
f 59/150/177 60/151/179 62/153/178
f 60/151/179 61/152/180 62/153/178
s 32
f 5/124/181 48/125/182 7/127/183
f 7/127/183 48/125/182 43/126/184
s 33
f 69/96/185 65/97/186 70/99/187
f 70/99/187 65/97/186 68/98/188
s off
f 49/32/189 5/13/190 52/41/191
s 25
f 52/41/191 5/13/190 7/39/192
s 34
f 35/128/193 6/129/194 32/131/195
f 32/131/195 6/129/194 8/130/196
s 24
f 6/2/197 50/21/198 8/43/199
s 23
f 8/43/199 50/21/198 51/44/200
s 35
f 66/100/201 71/101/202 67/103/203
f 67/103/203 71/101/202 72/102/204
s 3
f 27/14/68 14/9/10 57/45/205
f 57/45/205 14/9/10 58/46/206
f 14/84/10 13/85/9 58/87/206
f 58/87/206 13/85/9 59/86/207
f 13/162/9 40/163/97 59/165/207
f 59/165/207 40/163/97 60/164/208
s 10
f 60/64/209 40/65/47 61/69/210
f 40/65/47 39/66/48 61/69/210
f 39/66/48 44/67/55 61/69/210
f 44/67/55 43/68/56 61/69/210
s 36
f 43/88/211 52/89/212 61/91/213
f 61/91/213 52/89/212 62/90/214
s 37
f 73/132/215 74/133/216 76/135/217
f 76/135/217 74/133/216 75/134/218
s 38
f 32/93/219 64/94/220 51/92/221
f 51/92/221 64/94/220 63/95/222
s 5
f 57/70/223 64/71/224 27/75/28
f 27/75/28 64/71/224 28/74/27
f 28/74/27 64/71/224 31/73/36
f 64/71/224 32/72/35 31/73/36
s 39
f 49/24/225 50/21/226 65/47/227
f 65/47/227 50/21/226 66/48/228
s 40
f 50/21/229 51/22/230 66/48/231
s 41
f 66/48/231 51/22/230 67/49/232
s 42
f 51/22/233 52/23/234 67/49/235
f 67/49/235 52/23/234 68/50/236
s 43
f 49/24/237 65/47/238 52/23/239
s 44
f 52/23/239 65/47/238 68/50/240
s 45
f 48/20/241 49/32/242 69/51/243
s 46
f 69/51/243 49/32/242 65/52/244
s 44
f 49/32/245 52/41/246 65/52/247
s 43
f 65/52/247 52/41/246 68/53/248
s 47
f 43/40/249 70/54/250 52/41/251
f 52/41/251 70/54/250 68/53/252
s 48
f 48/113/253 69/114/254 43/112/255
f 43/112/255 69/114/254 70/115/256
s 49
f 35/17/257 71/55/258 50/21/259
s 50
f 50/21/259 71/55/258 66/48/260
s 51
f 35/108/261 32/109/262 71/111/263
f 71/111/263 32/109/262 72/110/264
s 52
f 32/42/265 51/44/266 72/56/267
f 72/56/267 51/44/266 67/57/268
s 41
f 50/21/269 66/48/270 51/44/271
s 40
f 51/44/271 66/48/270 67/57/272
s 53
f 50/21/273 49/32/274 66/58/275
f 66/58/275 49/32/274 65/59/276
s 46
f 48/20/277 69/60/278 49/32/279
s 45
f 49/32/279 69/60/278 65/59/280
s 14
f 48/156/63 47/157/64 69/158/281
s 1
f 47/79/112 3/77/3 69/83/282
f 69/83/282 3/77/3 65/82/283
f 3/166/3 4/167/4 65/169/283
f 65/169/283 4/167/4 66/168/284
f 4/76/4 36/78/89 66/81/284
f 66/81/284 36/78/89 71/80/285
s 9
f 36/159/43 35/160/44 71/161/286
s 50
f 35/17/287 50/21/288 71/61/289
s 49
f 71/61/289 50/21/288 66/58/290
s 54
f 52/23/291 51/31/292 73/62/293
f 73/62/293 51/31/292 74/63/294
s 55
f 51/140/295 63/141/296 74/143/297
f 74/143/297 63/141/296 75/142/298
s 31
f 63/136/176 62/137/178 75/139/299
f 75/139/299 62/137/178 76/138/300
s 56
f 62/144/301 52/145/302 76/147/303
f 76/147/303 52/145/302 73/146/304
