# This file uses centimeters as units for non-parametric coordinates.

mtllib PoliceVanWheel.mtl
g default
v 0.500000 1.331480 -0.432624
v 0.500000 1.132625 -0.822900
v 0.500000 0.822900 -1.132625
v 0.500000 0.432624 -1.331480
v 0.500000 -0.000000 -1.400001
v 0.500000 -0.432624 -1.331480
v 0.500000 -0.822900 -1.132624
v 0.500000 -1.132624 -0.822900
v 0.500000 -1.331479 -0.432624
v 0.500000 -1.400000 0.000000
v 0.500000 -1.331479 0.432624
v 0.500000 -1.132624 0.822900
v 0.500000 -0.822900 1.132624
v 0.500000 -0.432624 1.331479
v 0.500000 -0.000000 1.400000
v 0.500000 0.432624 1.331479
v 0.500000 0.822899 1.132624
v 0.500000 1.132624 0.822899
v 0.500000 1.331479 0.432624
v 0.500000 1.400000 0.000000
v -0.500000 1.331480 -0.432624
v -0.500000 1.132625 -0.822900
v -0.500000 0.822900 -1.132625
v -0.500000 0.432624 -1.331480
v -0.500000 0.000000 -1.400001
v -0.500000 -0.432624 -1.331480
v -0.500000 -0.822900 -1.132624
v -0.500000 -1.132624 -0.822900
v -0.500000 -1.331479 -0.432624
v -0.500000 -1.400000 0.000000
v -0.500000 -1.331479 0.432624
v -0.500000 -1.132624 0.822900
v -0.500000 -0.822900 1.132624
v -0.500000 -0.432624 1.331479
v -0.500000 -0.000000 1.400000
v -0.500000 0.432624 1.331479
v -0.500000 0.822899 1.132624
v -0.500000 1.132624 0.822899
v -0.500000 1.331479 0.432624
v -0.500000 1.400000 0.000000
v 0.500000 -0.000000 0.000000
v -0.500000 0.000000 0.000000
vt 0.278081 0.104978
vt 0.262198 0.073807
vt 0.237461 0.049069
vt 0.206289 0.033186
vt 0.171735 0.027713
vt 0.137181 0.033186
vt 0.106010 0.049069
vt 0.081272 0.073807
vt 0.065389 0.104978
vt 0.059917 0.139532
vt 0.065389 0.174086
vt 0.081272 0.205257
vt 0.106010 0.229995
vt 0.137181 0.245878
vt 0.171735 0.251351
vt 0.206289 0.245878
vt 0.237461 0.229995
vt 0.262198 0.205257
vt 0.278081 0.174086
vt 0.283554 0.139532
vt 0.232340 0.199523
vt 0.232852 0.199523
vt 0.233365 0.199523
vt 0.233877 0.199523
vt 0.234389 0.199523
vt 0.234902 0.199523
vt 0.235414 0.199523
vt 0.235926 0.199523
vt 0.236439 0.199523
vt 0.236951 0.199523
vt 0.237464 0.199523
vt 0.237976 0.199523
vt 0.238488 0.199523
vt 0.239001 0.199523
vt 0.239513 0.199523
vt 0.240025 0.199523
vt 0.240538 0.199523
vt 0.241050 0.199523
vt 0.241563 0.199523
vt 0.242075 0.199523
vt 0.242587 0.199523
vt 0.232340 0.214933
vt 0.232852 0.214933
vt 0.233365 0.214933
vt 0.233877 0.214933
vt 0.234389 0.214933
vt 0.234902 0.214933
vt 0.235414 0.214933
vt 0.235926 0.214933
vt 0.236439 0.214933
vt 0.236951 0.214933
vt 0.237464 0.214933
vt 0.237976 0.214933
vt 0.238488 0.214933
vt 0.239001 0.214933
vt 0.239513 0.214933
vt 0.240025 0.214933
vt 0.240538 0.214933
vt 0.241050 0.214933
vt 0.241563 0.214933
vt 0.242075 0.214933
vt 0.242587 0.214933
vt 0.278081 0.105478
vt 0.262198 0.074306
vt 0.237461 0.049569
vt 0.206289 0.033686
vt 0.171735 0.028213
vt 0.137181 0.033686
vt 0.106010 0.049569
vt 0.081272 0.074306
vt 0.065389 0.105478
vt 0.059917 0.140032
vt 0.065389 0.174586
vt 0.081272 0.205757
vt 0.106010 0.230495
vt 0.137181 0.246378
vt 0.171735 0.251850
vt 0.206289 0.246378
vt 0.237461 0.230495
vt 0.262198 0.205757
vt 0.278081 0.174586
vt 0.283554 0.140032
vt 0.171735 0.135059
vt 0.171735 0.135559
vn 0.000000 0.951057 -0.309016
vn 0.000000 0.809017 -0.587785
vn 0.000000 0.951057 -0.309016
vn 0.000000 0.809017 -0.587785
vn 0.000000 0.587785 -0.809017
vn 0.000000 0.587785 -0.809017
vn 0.000000 0.309017 -0.951057
vn 0.000000 0.309017 -0.951057
vn -0.000000 -0.000000 -1.000000
vn -0.000000 -0.000000 -1.000000
vn -0.000000 -0.309017 -0.951056
vn -0.000000 -0.309017 -0.951056
vn -0.000000 -0.587785 -0.809017
vn -0.000000 -0.587785 -0.809017
vn -0.000000 -0.809017 -0.587785
vn -0.000000 -0.809017 -0.587785
vn -0.000000 -0.951057 -0.309017
vn -0.000000 -0.951057 -0.309017
vn -0.000000 -1.000000 0.000000
vn -0.000000 -1.000000 -0.000000
vn -0.000000 -0.951057 0.309017
vn -0.000000 -0.951057 0.309017
vn -0.000000 -0.809017 0.587785
vn -0.000000 -0.809017 0.587785
vn -0.000000 -0.587785 0.809017
vn -0.000000 -0.587785 0.809017
vn -0.000000 -0.309017 0.951057
vn -0.000000 -0.309017 0.951057
vn 0.000000 0.000000 1.000000
vn 0.000000 0.000000 1.000000
vn 0.000000 0.309017 0.951057
vn 0.000000 0.309017 0.951057
vn 0.000000 0.587785 0.809017
vn 0.000000 0.587785 0.809017
vn 0.000000 0.809017 0.587785
vn 0.000000 0.809017 0.587785
vn 0.000000 0.951057 0.309017
vn 0.000000 0.951057 0.309017
vn 0.000000 1.000000 0.000001
vn 0.000000 1.000000 0.000001
vn 1.000000 -0.000000 0.000000
vn 1.000000 -0.000000 0.000000
vn 1.000000 -0.000000 -0.000000
vn 1.000000 -0.000000 0.000000
vn 1.000000 -0.000000 0.000000
vn 1.000000 -0.000000 0.000000
vn 1.000000 -0.000000 0.000000
vn 1.000000 -0.000000 0.000000
vn 1.000000 -0.000000 0.000000
vn 1.000000 -0.000000 0.000000
vn 1.000000 -0.000000 0.000000
vn 1.000000 -0.000000 0.000000
vn 1.000000 -0.000000 0.000000
vn 1.000000 -0.000000 0.000000
vn 1.000000 -0.000000 -0.000000
vn 1.000000 -0.000000 -0.000000
vn 1.000000 -0.000000 0.000000
vn 1.000000 -0.000000 0.000000
vn 1.000000 -0.000000 0.000000
vn 1.000000 -0.000000 0.000000
vn 1.000000 -0.000000 0.000000
vn -1.000000 0.000000 0.000000
vn -1.000000 0.000000 0.000000
vn -1.000000 0.000000 0.000000
vn -1.000000 0.000000 0.000000
vn -1.000000 0.000000 0.000000
vn -1.000000 0.000000 0.000000
vn -1.000000 0.000000 0.000000
vn -1.000000 0.000000 0.000000
vn -1.000000 0.000000 0.000000
vn -1.000000 0.000000 0.000000
vn -1.000000 0.000000 0.000000
vn -1.000000 0.000000 0.000000
vn -1.000000 0.000000 0.000000
vn -1.000000 0.000000 0.000000
vn -1.000000 0.000000 0.000000
vn -1.000000 0.000000 0.000000
vn -1.000000 0.000000 0.000000
vn -1.000000 0.000000 0.000000
vn -1.000000 0.000000 0.000000
vn -1.000000 0.000000 0.000000
vn -1.000000 0.000000 0.000000
s 1
g pCylinder1
usemtl lambert2SG
f 1/21/1 2/22/2 21/42/3
f 21/42/3 2/22/2 22/43/4
f 2/22/2 3/23/5 22/43/4
f 22/43/4 3/23/5 23/44/6
f 3/23/5 4/24/7 23/44/6
f 23/44/6 4/24/7 24/45/8
f 4/24/7 5/25/9 24/45/8
f 24/45/8 5/25/9 25/46/10
f 5/25/9 6/26/11 25/46/10
f 25/46/10 6/26/11 26/47/12
f 6/26/11 7/27/13 26/47/12
f 26/47/12 7/27/13 27/48/14
f 7/27/13 8/28/15 27/48/14
f 27/48/14 8/28/15 28/49/16
f 8/28/15 9/29/17 28/49/16
f 28/49/16 9/29/17 29/50/18
f 9/29/17 10/30/19 29/50/18
f 29/50/18 10/30/19 30/51/20
f 10/30/19 11/31/21 30/51/20
f 30/51/20 11/31/21 31/52/22
f 11/31/21 12/32/23 31/52/22
f 31/52/22 12/32/23 32/53/24
f 12/32/23 13/33/25 32/53/24
f 32/53/24 13/33/25 33/54/26
f 13/33/25 14/34/27 33/54/26
f 33/54/26 14/34/27 34/55/28
f 14/34/27 15/35/29 34/55/28
f 34/55/28 15/35/29 35/56/30
f 15/35/29 16/36/31 35/56/30
f 35/56/30 16/36/31 36/57/32
f 16/36/31 17/37/33 36/57/32
f 36/57/32 17/37/33 37/58/34
f 17/37/33 18/38/35 37/58/34
f 37/58/34 18/38/35 38/59/36
f 18/38/35 19/39/37 38/59/36
f 38/59/36 19/39/37 39/60/38
f 19/39/37 20/40/39 39/60/38
f 39/60/38 20/40/39 40/61/40
f 20/40/39 1/41/1 40/61/40
f 40/61/40 1/41/1 21/62/3
s 2
f 2/2/41 1/1/42 41/83/43
f 3/3/44 2/2/41 41/83/43
f 4/4/45 3/3/44 41/83/43
f 5/5/46 4/4/45 41/83/43
f 6/6/47 5/5/46 41/83/43
f 7/7/48 6/6/47 41/83/43
f 8/8/49 7/7/48 41/83/43
f 9/9/50 8/8/49 41/83/43
f 10/10/51 9/9/50 41/83/43
f 11/11/52 10/10/51 41/83/43
f 12/12/53 11/11/52 41/83/43
f 13/13/54 12/12/53 41/83/43
f 14/14/55 13/13/54 41/83/43
f 15/15/56 14/14/55 41/83/43
f 16/16/57 15/15/56 41/83/43
f 17/17/58 16/16/57 41/83/43
f 18/18/59 17/17/58 41/83/43
f 19/19/60 18/18/59 41/83/43
f 20/20/61 19/19/60 41/83/43
f 1/1/42 20/20/61 41/83/43
s 3
f 21/81/62 22/80/63 42/84/64
f 22/80/63 23/79/65 42/84/64
f 23/79/65 24/78/66 42/84/64
f 24/78/66 25/77/67 42/84/64
f 25/77/67 26/76/68 42/84/64
f 26/76/68 27/75/69 42/84/64
f 27/75/69 28/74/70 42/84/64
f 28/74/70 29/73/71 42/84/64
f 29/73/71 30/72/72 42/84/64
f 30/72/72 31/71/73 42/84/64
f 31/71/73 32/70/74 42/84/64
f 32/70/74 33/69/75 42/84/64
f 33/69/75 34/68/76 42/84/64
f 34/68/76 35/67/77 42/84/64
f 35/67/77 36/66/78 42/84/64
f 36/66/78 37/65/79 42/84/64
f 37/65/79 38/64/80 42/84/64
f 38/64/80 39/63/81 42/84/64
f 39/63/81 40/82/82 42/84/64
f 40/82/82 21/81/62 42/84/64
