# This file uses centimeters as units for non-parametric coordinates.

mtllib rifle.mtl
g default
v -0.362823 0.363822 0.071642
v 0.362405 0.363822 0.071642
v -0.362823 0.590215 0.071642
v 0.362405 0.590215 0.071642
v -0.362823 0.590215 -0.041830
v 0.362405 0.590215 -0.041830
v -0.362823 0.363822 -0.041830
v 0.362405 0.363822 -0.041830
vt 0.375000 0.000000
vt 0.625000 0.000000
vt 0.625000 0.250000
vt 0.375000 0.250000
vt 0.625000 0.500000
vt 0.375000 0.500000
vt 0.625000 0.750000
vt 0.375000 0.750000
vt 0.625000 1.000000
vt 0.375000 1.000000
vt 0.875000 0.000000
vt 0.875000 0.250000
vt 0.125000 0.000000
vt 0.125000 0.250000
vn 0.000000 0.000000 1.000000
vn 0.000000 0.000000 1.000000
vn 0.000000 0.000000 1.000000
vn 0.000000 0.000000 1.000000
vn 0.000000 1.000000 0.000000
vn 0.000000 1.000000 0.000000
vn 0.000000 1.000000 0.000000
vn 0.000000 1.000000 0.000000
vn 0.000000 0.000000 -1.000000
vn 0.000000 0.000000 -1.000000
vn 0.000000 0.000000 -1.000000
vn 0.000000 0.000000 -1.000000
vn 0.000000 -1.000000 0.000000
vn 0.000000 -1.000000 0.000000
vn 0.000000 -1.000000 0.000000
vn 0.000000 -1.000000 0.000000
vn 1.000000 0.000000 0.000000
vn 1.000000 0.000000 0.000000
vn 1.000000 0.000000 0.000000
vn 1.000000 0.000000 0.000000
vn -1.000000 0.000000 0.000000
vn -1.000000 0.000000 0.000000
vn -1.000000 0.000000 0.000000
vn -1.000000 0.000000 0.000000
s off
g pCube1
usemtl initialShadingGroup
f 1/1/1 2/2/2 4/3/3 3/4/4
f 3/4/5 4/3/6 6/5/7 5/6/8
f 5/6/9 6/5/10 8/7/11 7/8/12
f 7/8/13 8/7/14 2/9/15 1/10/16
f 2/2/17 8/11/18 6/12/19 4/3/20
f 7/13/21 1/1/22 3/4/23 5/14/24
g default
v -0.363303 0.573225 0.001262
v -0.363197 0.562703 -0.016573
v -0.363096 0.544806 -0.031264
v -0.363010 0.521286 -0.041372
v -0.362947 0.494444 -0.045910
v -0.362914 0.466909 -0.044431
v -0.362913 0.441376 -0.037082
v -0.362946 0.420343 -0.024580
v -0.363007 0.405872 -0.008151
v -0.363093 0.399375 0.010597
v -0.363193 0.401492 0.029831
v -0.363300 0.412014 0.047666
v -0.363401 0.429912 0.062357
v -0.363487 0.453432 0.072466
v -0.363550 0.480273 0.077003
v -0.363583 0.507808 0.075524
v -0.363583 0.533342 0.068175
v -0.363551 0.554373 0.055673
v -0.363490 0.568846 0.039244
v -0.363404 0.575341 0.020495
v -0.752185 0.572664 0.000325
v -0.752079 0.562143 -0.017510
v -0.751978 0.544245 -0.032201
v -0.751891 0.520725 -0.042309
v -0.751829 0.493884 -0.046847
v -0.751796 0.466349 -0.045368
v -0.751795 0.440815 -0.038018
v -0.751827 0.419783 -0.025517
v -0.751889 0.405310 -0.009089
v -0.751975 0.398815 0.009660
v -0.752076 0.400931 0.028893
v -0.752182 0.411454 0.046729
v -0.752283 0.429350 0.061420
v -0.752369 0.452871 0.071529
v -0.752432 0.479712 0.076066
v -0.752465 0.507247 0.074587
v -0.752466 0.532780 0.067237
v -0.752434 0.553813 0.054736
v -0.752371 0.568285 0.038307
v -0.752286 0.574781 0.019558
v -0.363248 0.487359 0.015546
v -0.752131 0.486798 0.014609
vt 0.375000 0.312500
vt 0.387500 0.312500
vt 0.387500 0.688440
vt 0.375000 0.688440
vt 0.400000 0.312500
vt 0.400000 0.688440
vt 0.412500 0.312500
vt 0.412500 0.688440
vt 0.425000 0.312500
vt 0.425000 0.688440
vt 0.437500 0.312500
vt 0.437500 0.688440
vt 0.450000 0.312500
vt 0.450000 0.688440
vt 0.462500 0.312500
vt 0.462500 0.688440
vt 0.475000 0.312500
vt 0.475000 0.688440
vt 0.487500 0.312500
vt 0.487500 0.688440
vt 0.500000 0.312500
vt 0.500000 0.688440
vt 0.512500 0.312500
vt 0.512500 0.688440
vt 0.525000 0.312500
vt 0.525000 0.688440
vt 0.537500 0.312500
vt 0.537500 0.688440
vt 0.550000 0.312500
vt 0.550000 0.688440
vt 0.562500 0.312500
vt 0.562500 0.688440
vt 0.575000 0.312500
vt 0.575000 0.688440
vt 0.587500 0.312500
vt 0.587500 0.688440
vt 0.600000 0.312500
vt 0.600000 0.688440
vt 0.612500 0.312500
vt 0.612500 0.688440
vt 0.625000 0.312500
vt 0.625000 0.688440
vt 0.626409 0.064408
vt 0.648603 0.107966
vt 0.500000 0.150000
vt 0.591842 0.029841
vt 0.548284 0.007647
vt 0.500000 -0.000000
vt 0.451716 0.007647
vt 0.408159 0.029841
vt 0.373591 0.064409
vt 0.351397 0.107966
vt 0.343750 0.156250
vt 0.351397 0.204534
vt 0.373591 0.248091
vt 0.408159 0.282659
vt 0.451716 0.304853
vt 0.500000 0.312500
vt 0.548284 0.304853
vt 0.591841 0.282659
vt 0.626409 0.248091
vt 0.648603 0.204534
vt 0.656250 0.156250
vt 0.648603 0.892034
vt 0.626409 0.935591
vt 0.500000 0.837500
vt 0.591841 0.970159
vt 0.548284 0.992353
vt 0.500000 1.000000
vt 0.451716 0.992353
vt 0.408159 0.970159
vt 0.373591 0.935591
vt 0.351397 0.892034
vt 0.343750 0.843750
vt 0.351397 0.795466
vt 0.373591 0.751909
vt 0.408159 0.717341
vt 0.451716 0.695147
vt 0.500000 0.687500
vt 0.548284 0.695147
vt 0.591842 0.717341
vt 0.626409 0.751908
vt 0.648603 0.795466
vt 0.656250 0.843750
vn -0.000017 0.861291 -0.508111
vn -0.000017 0.861291 -0.508111
vn -0.000017 0.861291 -0.508111
vn -0.000017 0.861291 -0.508111
vn 0.000499 0.753051 -0.657962
vn 0.001327 0.513726 -0.857953
vn 0.001327 0.513726 -0.857953
vn 0.000499 0.753051 -0.657962
vn 0.001327 0.513726 -0.857953
vn 0.001910 0.279250 -0.960216
vn 0.001910 0.279250 -0.960216
vn 0.001327 0.513726 -0.857953
vn 0.001910 0.279250 -0.960216
vn 0.002325 0.056164 -0.998419
vn 0.002325 0.056164 -0.998419
vn 0.001910 0.279250 -0.960216
vn 0.002325 0.056164 -0.998419
vn 0.002613 -0.164098 -0.986441
vn 0.002613 -0.164098 -0.986441
vn 0.002325 0.056164 -0.998419
vn 0.002613 -0.164098 -0.986441
vn 0.002781 -0.392153 -0.919896
vn 0.002781 -0.392153 -0.919896
vn 0.002613 -0.164098 -0.986441
vn 0.002781 -0.392153 -0.919896
vn 0.002778 -0.631684 -0.775221
vn 0.002778 -0.631684 -0.775221
vn 0.002781 -0.392153 -0.919896
vn 0.002778 -0.631684 -0.775221
vn 0.002472 -0.858986 -0.511994
vn 0.002472 -0.858986 -0.511994
vn 0.002778 -0.631684 -0.775221
vn 0.002472 -0.858986 -0.511994
vn 0.001709 -0.993419 -0.114527
vn 0.001709 -0.993419 -0.114527
vn 0.002472 -0.858986 -0.511994
vn 0.001709 -0.993419 -0.114527
vn 0.000587 -0.946497 0.322713
vn 0.000587 -0.946497 0.322713
vn 0.001709 -0.993419 -0.114527
vn 0.000587 -0.946497 0.322713
vn -0.000499 -0.753051 0.657962
vn -0.000499 -0.753051 0.657962
vn 0.000587 -0.946497 0.322713
vn -0.000499 -0.753051 0.657962
vn -0.001327 -0.513726 0.857953
vn -0.001327 -0.513726 0.857953
vn -0.000499 -0.753051 0.657962
vn -0.001327 -0.513726 0.857953
vn -0.001910 -0.279250 0.960216
vn -0.001910 -0.279250 0.960216
vn -0.001327 -0.513726 0.857953
vn -0.001910 -0.279250 0.960216
vn -0.002325 -0.056164 0.998419
vn -0.002325 -0.056164 0.998419
vn -0.001910 -0.279250 0.960216
vn -0.002325 -0.056164 0.998419
vn -0.002613 0.164098 0.986441
vn -0.002613 0.164098 0.986441
vn -0.002325 -0.056164 0.998419
vn -0.002613 0.164098 0.986441
vn -0.002781 0.392153 0.919896
vn -0.002781 0.392153 0.919896
vn -0.002613 0.164098 0.986441
vn -0.002781 0.392153 0.919896
vn -0.002778 0.631684 0.775221
vn -0.002778 0.631684 0.775221
vn -0.002781 0.392153 0.919896
vn -0.002778 0.631684 0.775221
vn -0.002472 0.858986 0.511994
vn -0.002472 0.858986 0.511994
vn -0.002778 0.631684 0.775221
vn -0.002472 0.858986 0.511994
vn -0.001709 0.993419 0.114528
vn -0.001709 0.993419 0.114528
vn -0.002472 0.858986 0.511994
vn -0.001709 0.993419 0.114528
vn -0.000587 0.946497 -0.322712
vn -0.000587 0.946497 -0.322712
vn -0.001709 0.993419 0.114528
vn 0.999986 0.001482 0.005075
vn 0.999986 0.001482 0.005075
vn 0.999986 0.001482 0.005075
vn 0.999986 0.001482 0.005075
vn 0.999986 0.001482 0.005075
vn 0.999986 0.001482 0.005075
vn 0.999986 0.001482 0.005075
vn 0.999986 0.001482 0.005075
vn 0.999986 0.001482 0.005075
vn 0.999986 0.001482 0.005075
vn 0.999986 0.001482 0.005075
vn 0.999986 0.001482 0.005075
vn 0.999986 0.001482 0.005075
vn 0.999986 0.001482 0.005075
vn 0.999986 0.001482 0.005075
vn 0.999986 0.001482 0.005075
vn 0.999986 0.001482 0.005075
vn 0.999986 0.001482 0.005075
vn 0.999986 0.001482 0.005075
vn 0.999986 0.001482 0.005075
vn 0.999986 0.001482 0.005075
vn 0.999986 0.001482 0.005075
vn 0.999986 0.001482 0.005075
vn 0.999986 0.001482 0.005075
vn 0.999986 0.001482 0.005075
vn 0.999986 0.001482 0.005075
vn 0.999986 0.001482 0.005075
vn 0.999986 0.001482 0.005073
vn 0.999986 0.001482 0.005075
vn 0.999986 0.001482 0.005075
vn 0.999986 0.001482 0.005075
vn 0.999986 0.001482 0.005073
vn 0.999986 0.001482 0.005075
vn 0.999986 0.001482 0.005075
vn 0.999986 0.001482 0.005075
vn 0.999986 0.001482 0.005075
vn 0.999986 0.001482 0.005075
vn 0.999986 0.001482 0.005075
vn 0.999986 0.001482 0.005075
vn 0.999986 0.001482 0.005075
vn 0.999986 0.001482 0.005075
vn 0.999986 0.001482 0.005075
vn 0.999986 0.001482 0.005075
vn 0.999986 0.001482 0.005075
vn 0.999986 0.001482 0.005075
vn 0.999986 0.001482 0.005075
vn 0.999986 0.001482 0.005075
vn 0.999986 0.001482 0.005075
vn 0.999986 0.001482 0.005075
vn 0.999986 0.001482 0.005075
vn 0.999986 0.001482 0.005075
vn 0.999986 0.001482 0.005075
vn 0.999986 0.001482 0.005075
vn 0.999986 0.001482 0.005075
vn 0.999986 0.001482 0.005075
vn 0.999986 0.001482 0.005075
vn 0.999986 0.001482 0.005075
vn 0.999986 0.001482 0.005075
vn 0.999986 0.001482 0.005075
vn 0.999986 0.001482 0.005075
vn -0.999986 -0.001482 -0.005073
vn -0.999986 -0.001482 -0.005075
vn -0.999986 -0.001482 -0.005075
vn -0.999986 -0.001482 -0.005075
vn -0.999986 -0.001482 -0.005075
vn -0.999986 -0.001482 -0.005075
vn -0.999986 -0.001482 -0.005075
vn -0.999986 -0.001482 -0.005075
vn -0.999986 -0.001482 -0.005075
vn -0.999986 -0.001482 -0.005075
vn -0.999986 -0.001482 -0.005075
vn -0.999986 -0.001482 -0.005075
vn -0.999986 -0.001482 -0.005075
vn -0.999986 -0.001482 -0.005075
vn -0.999986 -0.001482 -0.005075
vn -0.999986 -0.001482 -0.005075
vn -0.999986 -0.001482 -0.005075
vn -0.999986 -0.001482 -0.005075
vn -0.999986 -0.001482 -0.005075
vn -0.999986 -0.001482 -0.005075
vn -0.999986 -0.001482 -0.005075
vn -0.999986 -0.001482 -0.005075
vn -0.999986 -0.001482 -0.005075
vn -0.999986 -0.001482 -0.005075
vn -0.999986 -0.001482 -0.005075
vn -0.999986 -0.001482 -0.005075
vn -0.999986 -0.001482 -0.005075
vn -0.999986 -0.001482 -0.005075
vn -0.999986 -0.001482 -0.005075
vn -0.999986 -0.001482 -0.005075
vn -0.999986 -0.001482 -0.005075
vn -0.999986 -0.001482 -0.005075
vn -0.999986 -0.001482 -0.005075
vn -0.999986 -0.001482 -0.005075
vn -0.999986 -0.001482 -0.005075
vn -0.999986 -0.001482 -0.005075
vn -0.999986 -0.001482 -0.005075
vn -0.999986 -0.001482 -0.005075
vn -0.999986 -0.001482 -0.005075
vn -0.999986 -0.001482 -0.005075
vn -0.999986 -0.001482 -0.005075
vn -0.999986 -0.001482 -0.005075
vn -0.999986 -0.001482 -0.005075
vn -0.999986 -0.001482 -0.005075
vn -0.999986 -0.001482 -0.005075
vn -0.999986 -0.001482 -0.005075
vn -0.999986 -0.001482 -0.005075
vn -0.999986 -0.001482 -0.005075
vn -0.999986 -0.001482 -0.005075
vn -0.999986 -0.001482 -0.005075
vn -0.999986 -0.001482 -0.005075
vn -0.999986 -0.001482 -0.005075
vn -0.999986 -0.001482 -0.005075
vn -0.999986 -0.001482 -0.005075
vn -0.999986 -0.001482 -0.005075
vn -0.999986 -0.001482 -0.005075
vn -0.999986 -0.001482 -0.005075
vn -0.999986 -0.001482 -0.005075
vn -0.999986 -0.001482 -0.005073
vn -0.999986 -0.001482 -0.005075
s off
g pCylinder1
usemtl initialShadingGroup
f 9/15/25 10/16/26 30/17/27 29/18/28
f 10/16/29 11/19/30 31/20/31 30/17/32
f 11/19/33 12/21/34 32/22/35 31/20/36
f 12/21/37 13/23/38 33/24/39 32/22/40
f 13/23/41 14/25/42 34/26/43 33/24/44
f 14/25/45 15/27/46 35/28/47 34/26/48
f 15/27/49 16/29/50 36/30/51 35/28/52
f 16/29/53 17/31/54 37/32/55 36/30/56
f 17/31/57 18/33/58 38/34/59 37/32/60
f 18/33/61 19/35/62 39/36/63 38/34/64
f 19/35/65 20/37/66 40/38/67 39/36/68
f 20/37/69 21/39/70 41/40/71 40/38/72
f 21/39/73 22/41/74 42/42/75 41/40/76
f 22/41/77 23/43/78 43/44/79 42/42/80
f 23/43/81 24/45/82 44/46/83 43/44/84
f 24/45/85 25/47/86 45/48/87 44/46/88
f 25/47/89 26/49/90 46/50/91 45/48/92
f 26/49/93 27/51/94 47/52/95 46/50/96
f 27/51/97 28/53/98 48/54/99 47/52/100
f 28/53/101 9/55/102 29/56/103 48/54/104
f 10/57/105 9/58/106 49/59/107
f 11/60/108 10/57/109 49/59/110
f 12/61/111 11/60/112 49/59/113
f 13/62/114 12/61/115 49/59/116
f 14/63/117 13/62/118 49/59/119
f 15/64/120 14/63/121 49/59/122
f 16/65/123 15/64/124 49/59/125
f 17/66/126 16/65/127 49/59/128
f 18/67/129 17/66/130 49/59/131
f 19/68/132 18/67/133 49/59/134
f 20/69/135 19/68/136 49/59/137
f 21/70/138 20/69/139 49/59/140
f 22/71/141 21/70/142 49/59/143
f 23/72/144 22/71/145 49/59/146
f 24/73/147 23/72/148 49/59/149
f 25/74/150 24/73/151 49/59/152
f 26/75/153 25/74/154 49/59/155
f 27/76/156 26/75/157 49/59/158
f 28/77/159 27/76/160 49/59/161
f 9/58/162 28/77/163 49/59/164
f 29/78/165 30/79/166 50/80/167
f 30/79/168 31/81/169 50/80/170
f 31/81/171 32/82/172 50/80/173
f 32/82/174 33/83/175 50/80/176
f 33/83/177 34/84/178 50/80/179
f 34/84/180 35/85/181 50/80/182
f 35/85/183 36/86/184 50/80/185
f 36/86/186 37/87/187 50/80/188
f 37/87/189 38/88/190 50/80/191
f 38/88/192 39/89/193 50/80/194
f 39/89/195 40/90/196 50/80/197
f 40/90/198 41/91/199 50/80/200
f 41/91/201 42/92/202 50/80/203
f 42/92/204 43/93/205 50/80/206
f 43/93/207 44/94/208 50/80/209
f 44/94/210 45/95/211 50/80/212
f 45/95/213 46/96/214 50/80/215
f 46/96/216 47/97/217 50/80/218
f 47/97/219 48/98/220 50/80/221
f 48/98/222 29/78/223 50/80/224
g default
v -0.844980 0.454597 0.037582
v -0.678093 0.454597 0.037582
v -0.844980 0.524447 0.037582
v -0.678093 0.524447 0.037582
v -0.844980 0.524447 -0.002595
v -0.678093 0.524447 -0.002595
v -0.844980 0.454597 -0.002595
v -0.678093 0.454597 -0.002595
vt 0.375000 0.000000
vt 0.625000 0.000000
vt 0.625000 0.250000
vt 0.375000 0.250000
vt 0.625000 0.500000
vt 0.375000 0.500000
vt 0.625000 0.750000
vt 0.375000 0.750000
vt 0.625000 1.000000
vt 0.375000 1.000000
vt 0.875000 0.000000
vt 0.875000 0.250000
vt 0.125000 0.000000
vt 0.125000 0.250000
vn 0.000000 0.000000 1.000000
vn 0.000000 0.000000 1.000000
vn 0.000000 0.000000 1.000000
vn 0.000000 0.000000 1.000000
vn 0.000000 1.000000 0.000000
vn 0.000000 1.000000 0.000000
vn 0.000000 1.000000 0.000000
vn 0.000000 1.000000 0.000000
vn 0.000000 0.000000 -1.000000
vn 0.000000 0.000000 -1.000000
vn 0.000000 0.000000 -1.000000
vn 0.000000 0.000000 -1.000000
vn 0.000000 -1.000000 0.000000
vn 0.000000 -1.000000 0.000000
vn 0.000000 -1.000000 0.000000
vn 0.000000 -1.000000 0.000000
vn 1.000000 0.000000 0.000000
vn 1.000000 0.000000 0.000000
vn 1.000000 0.000000 0.000000
vn 1.000000 0.000000 0.000000
vn -1.000000 0.000000 0.000000
vn -1.000000 0.000000 0.000000
vn -1.000000 0.000000 0.000000
vn -1.000000 0.000000 0.000000
s off
g pCube2
usemtl initialShadingGroup
f 51/99/225 52/100/226 54/101/227 53/102/228
f 53/102/229 54/101/230 56/103/231 55/104/232
f 55/104/233 56/103/234 58/105/235 57/106/236
f 57/106/237 58/105/238 52/107/239 51/108/240
f 52/100/241 58/109/242 56/110/243 54/101/244
f 57/111/245 51/99/246 53/102/247 55/112/248
g default
v 0.245289 0.478427 0.068596
v 0.569429 0.366868 0.063841
v 0.280642 0.578500 0.067380
v 0.604781 0.466941 0.062626
v 0.276803 0.577121 -0.041079
v 0.600943 0.465563 -0.045834
v 0.241451 0.477048 -0.039864
v 0.565590 0.365489 -0.044619
vt 0.375000 0.000000
vt 0.625000 0.000000
vt 0.625000 0.250000
vt 0.375000 0.250000
vt 0.625000 0.500000
vt 0.375000 0.500000
vt 0.625000 0.750000
vt 0.375000 0.750000
vt 0.625000 1.000000
vt 0.375000 1.000000
vt 0.875000 0.000000
vt 0.875000 0.250000
vt 0.125000 0.000000
vt 0.125000 0.250000
vn 0.016802 0.006205 0.999840
vn 0.016802 0.006205 0.999840
vn 0.016802 0.006205 0.999840
vn 0.016802 0.006205 0.999840
vn 0.325035 0.945409 -0.023527
vn 0.325035 0.945409 -0.023527
vn 0.325035 0.945409 -0.023527
vn 0.325035 0.945409 -0.023527
vn -0.016802 -0.006205 -0.999840
vn -0.016802 -0.006205 -0.999840
vn -0.016802 -0.006205 -0.999840
vn -0.016802 -0.006205 -0.999840
vn -0.325035 -0.945409 0.023527
vn -0.325035 -0.945409 0.023527
vn -0.325035 -0.945409 0.023527
vn -0.325035 -0.945409 0.023527
vn 0.942382 -0.333270 -0.029114
vn 0.942382 -0.333270 -0.029114
vn 0.942382 -0.333270 -0.029114
vn 0.942382 -0.333270 -0.029114
vn -0.942382 0.333270 0.029114
vn -0.942382 0.333270 0.029114
vn -0.942382 0.333270 0.029114
vn -0.942382 0.333270 0.029114
s off
g pCube3
usemtl initialShadingGroup
f 59/113/249 60/114/250 62/115/251 61/116/252
f 61/116/253 62/115/254 64/117/255 63/118/256
f 63/118/257 64/117/258 66/119/259 65/120/260
f 65/120/261 66/119/262 60/121/263 59/122/264
f 60/114/265 66/123/266 64/124/267 62/115/268
f 65/125/269 59/113/270 61/116/271 63/126/272
g default
v 0.354488 0.465752 0.074866
v 0.601264 0.465752 0.074866
v 0.354488 0.583453 0.074866
v 0.601264 0.583453 0.074866
v 0.354488 0.583453 -0.046096
v 0.601264 0.583453 -0.046096
v 0.354488 0.465752 -0.046096
v 0.601264 0.465752 -0.046096
vt 0.375000 0.000000
vt 0.625000 0.000000
vt 0.625000 0.250000
vt 0.375000 0.250000
vt 0.625000 0.500000
vt 0.375000 0.500000
vt 0.625000 0.750000
vt 0.375000 0.750000
vt 0.625000 1.000000
vt 0.375000 1.000000
vt 0.875000 0.000000
vt 0.875000 0.250000
vt 0.125000 0.000000
vt 0.125000 0.250000
vn 0.000000 0.000000 1.000000
vn 0.000000 0.000000 1.000000
vn 0.000000 0.000000 1.000000
vn 0.000000 0.000000 1.000000
vn 0.000000 1.000000 0.000000
vn 0.000000 1.000000 0.000000
vn 0.000000 1.000000 0.000000
vn 0.000000 1.000000 0.000000
vn 0.000000 0.000000 -1.000000
vn 0.000000 0.000000 -1.000000
vn 0.000000 0.000000 -1.000000
vn 0.000000 0.000000 -1.000000
vn 0.000000 -1.000000 0.000000
vn 0.000000 -1.000000 0.000000
vn 0.000000 -1.000000 0.000000
vn 0.000000 -1.000000 0.000000
vn 1.000000 0.000000 0.000000
vn 1.000000 0.000000 0.000000
vn 1.000000 0.000000 0.000000
vn 1.000000 0.000000 0.000000
vn -1.000000 0.000000 0.000000
vn -1.000000 0.000000 0.000000
vn -1.000000 0.000000 0.000000
vn -1.000000 0.000000 0.000000
s off
g pCube4
usemtl initialShadingGroup
f 67/127/273 68/128/274 70/129/275 69/130/276
f 69/130/277 70/129/278 72/131/279 71/132/280
f 71/132/281 72/131/282 74/133/283 73/134/284
f 73/134/285 74/133/286 68/135/287 67/136/288
f 68/128/289 74/137/290 72/138/291 70/129/292
f 73/139/293 67/127/294 69/130/295 71/140/296
g default
v -0.359515 0.121889 0.064833
v -0.194784 0.051877 0.067884
v -0.218978 0.444093 0.069254
v -0.054246 0.374081 0.072304
v -0.214317 0.445143 -0.038505
v -0.049585 0.375131 -0.035454
v -0.354854 0.122940 -0.042925
v -0.190122 0.052927 -0.039875
vt 0.375000 0.000000
vt 0.625000 0.000000
vt 0.625000 0.250000
vt 0.375000 0.250000
vt 0.625000 0.500000
vt 0.375000 0.500000
vt 0.625000 0.750000
vt 0.375000 0.750000
vt 0.625000 1.000000
vt 0.375000 1.000000
vt 0.875000 0.000000
vt 0.875000 0.250000
vt 0.125000 0.000000
vt 0.125000 0.250000
vn -0.020536 -0.004759 0.999778
vn -0.020536 -0.004759 0.999778
vn -0.020536 -0.004759 0.999778
vn -0.020536 -0.004759 0.999778
vn 0.390609 0.920193 0.025873
vn 0.390609 0.920193 0.025873
vn 0.390609 0.920193 0.025873
vn 0.390609 0.920193 0.025873
vn 0.020536 0.004759 -0.999778
vn 0.020536 0.004759 -0.999778
vn 0.020536 0.004759 -0.999778
vn 0.020536 0.004759 -0.999778
vn -0.390609 -0.920193 -0.025873
vn -0.390609 -0.920193 -0.025873
vn -0.390609 -0.920193 -0.025873
vn -0.390609 -0.920193 -0.025873
vn 0.915839 -0.399955 0.035714
vn 0.915839 -0.399955 0.035714
vn 0.915839 -0.399955 0.035714
vn 0.915839 -0.399955 0.035714
vn -0.915839 0.399955 -0.035714
vn -0.915839 0.399955 -0.035714
vn -0.915839 0.399955 -0.035714
vn -0.915839 0.399955 -0.035714
s off
g pCube5
usemtl initialShadingGroup
f 75/141/297 76/142/298 78/143/299 77/144/300
f 77/144/301 78/143/302 80/145/303 79/146/304
f 79/146/305 80/145/306 82/147/307 81/148/308
f 81/148/309 82/147/310 76/149/311 75/150/312
f 76/142/313 82/151/314 80/152/315 78/143/316
f 81/153/317 75/141/318 77/144/319 79/154/320
g default
v 0.258941 0.108041 0.065616
v 0.411608 0.174198 0.065093
v 0.126606 0.405334 0.071393
v 0.279273 0.471490 0.070869
v 0.124239 0.408816 -0.041778
v 0.276906 0.474972 -0.042302
v 0.256573 0.111522 -0.047556
v 0.409240 0.177680 -0.048079
vt 0.375000 0.000000
vt 0.625000 0.000000
vt 0.625000 0.250000
vt 0.375000 0.250000
vt 0.625000 0.500000
vt 0.375000 0.500000
vt 0.625000 0.750000
vt 0.375000 0.750000
vt 0.625000 1.000000
vt 0.375000 1.000000
vt 0.875000 0.000000
vt 0.875000 0.250000
vt 0.125000 0.000000
vt 0.125000 0.250000
vn 0.009930 -0.015007 0.999838
vn 0.009930 -0.015007 0.999838
vn 0.009930 -0.015007 0.999838
vn 0.009930 -0.015007 0.999838
vn -0.397242 0.916987 0.036519
vn -0.397242 0.916987 0.036519
vn -0.397242 0.916987 0.036519
vn -0.397242 0.916987 0.036519
vn -0.009932 0.015007 -0.999838
vn -0.009932 0.015007 -0.999838
vn -0.009932 0.015007 -0.999838
vn -0.009932 0.015007 -0.999838
vn 0.397242 -0.916987 -0.036519
vn 0.397242 -0.916987 -0.036519
vn 0.397242 -0.916987 -0.036519
vn 0.397242 -0.916987 -0.036519
vn 0.913511 0.406761 -0.006597
vn 0.913511 0.406761 -0.006597
vn 0.913511 0.406761 -0.006597
vn 0.913511 0.406761 -0.006597
vn -0.913511 -0.406761 0.006597
vn -0.913511 -0.406761 0.006597
vn -0.913511 -0.406761 0.006597
vn -0.913511 -0.406761 0.006597
s off
g pCube6
usemtl initialShadingGroup
f 83/155/321 84/156/322 86/157/323 85/158/324
f 85/158/325 86/157/326 88/159/327 87/160/328
f 87/160/329 88/159/330 90/161/331 89/162/332
f 89/162/333 90/161/334 84/163/335 83/164/336
f 84/156/337 90/165/338 88/166/339 86/157/340
f 89/167/341 83/155/342 85/158/343 87/168/344
g default
v -0.265168 0.586512 0.056215
v -0.235099 0.586512 0.056215
v -0.265168 0.694786 0.056215
v -0.235099 0.694786 0.056215
v -0.265168 0.694786 -0.023895
v -0.235099 0.694786 -0.023895
v -0.265168 0.586512 -0.023895
v -0.235099 0.586512 -0.023895
vt 0.375000 0.000000
vt 0.625000 0.000000
vt 0.625000 0.250000
vt 0.375000 0.250000
vt 0.625000 0.500000
vt 0.375000 0.500000
vt 0.625000 0.750000
vt 0.375000 0.750000
vt 0.625000 1.000000
vt 0.375000 1.000000
vt 0.875000 0.000000
vt 0.875000 0.250000
vt 0.125000 0.000000
vt 0.125000 0.250000
vn 0.000000 0.000000 1.000000
vn 0.000000 0.000000 1.000000
vn 0.000000 0.000000 1.000000
vn 0.000000 0.000000 1.000000
vn 0.000000 1.000000 0.000000
vn 0.000000 1.000000 0.000000
vn 0.000000 1.000000 0.000000
vn 0.000000 1.000000 0.000000
vn 0.000000 0.000000 -1.000000
vn 0.000000 0.000000 -1.000000
vn 0.000000 0.000000 -1.000000
vn 0.000000 0.000000 -1.000000
vn 0.000000 -1.000000 0.000000
vn 0.000000 -1.000000 0.000000
vn 0.000000 -1.000000 0.000000
vn 0.000000 -1.000000 0.000000
vn 1.000000 0.000000 0.000000
vn 1.000000 0.000000 0.000000
vn 1.000000 0.000000 0.000000
vn 1.000000 0.000000 0.000000
vn -1.000000 0.000000 0.000000
vn -1.000000 0.000000 0.000000
vn -1.000000 0.000000 0.000000
vn -1.000000 0.000000 0.000000
s off
g pCube7
usemtl initialShadingGroup
f 91/169/345 92/170/346 94/171/347 93/172/348
f 93/172/349 94/171/350 96/173/351 95/174/352
f 95/174/353 96/173/354 98/175/355 97/176/356
f 97/176/357 98/175/358 92/177/359 91/178/360
f 92/170/361 98/179/362 96/180/363 94/171/364
f 97/181/365 91/169/366 93/172/367 95/182/368
g default
v 0.263181 0.583297 0.056310
v 0.310086 0.583297 0.056310
v 0.263181 0.678156 0.056310
v 0.310086 0.678156 0.056310
v 0.263181 0.678156 -0.021162
v 0.310086 0.678156 -0.021162
v 0.263181 0.583297 -0.021162
v 0.310086 0.583297 -0.021162
vt 0.375000 0.000000
vt 0.625000 0.000000
vt 0.625000 0.250000
vt 0.375000 0.250000
vt 0.625000 0.500000
vt 0.375000 0.500000
vt 0.625000 0.750000
vt 0.375000 0.750000
vt 0.625000 1.000000
vt 0.375000 1.000000
vt 0.875000 0.000000
vt 0.875000 0.250000
vt 0.125000 0.000000
vt 0.125000 0.250000
vn 0.000000 0.000000 1.000000
vn 0.000000 0.000000 1.000000
vn 0.000000 0.000000 1.000000
vn 0.000000 0.000000 1.000000
vn 0.000000 1.000000 0.000000
vn 0.000000 1.000000 0.000000
vn 0.000000 1.000000 0.000000
vn 0.000000 1.000000 0.000000
vn 0.000000 0.000000 -1.000000
vn 0.000000 0.000000 -1.000000
vn 0.000000 0.000000 -1.000000
vn 0.000000 0.000000 -1.000000
vn 0.000000 -1.000000 0.000000
vn 0.000000 -1.000000 0.000000
vn 0.000000 -1.000000 0.000000
vn 0.000000 -1.000000 0.000000
vn 1.000000 0.000000 0.000000
vn 1.000000 0.000000 0.000000
vn 1.000000 0.000000 0.000000
vn 1.000000 0.000000 0.000000
vn -1.000000 0.000000 0.000000
vn -1.000000 0.000000 0.000000
vn -1.000000 0.000000 0.000000
vn -1.000000 0.000000 0.000000
s off
g pCube8
usemtl initialShadingGroup
f 99/183/369 100/184/370 102/185/371 101/186/372
f 101/186/373 102/185/374 104/187/375 103/188/376
f 103/188/377 104/187/378 106/189/379 105/190/380
f 105/190/381 106/189/382 100/191/383 99/192/384
f 100/184/385 106/193/386 104/194/387 102/185/388
f 105/195/389 99/183/390 101/186/391 103/196/392
