# This file uses centimeters as units for non-parametric coordinates.

mtllib toblerone.mtl
g default
v -1.004946 -0.013998 0.299997
v -0.825889 -0.077130 0.299997
v 0.825889 -0.077130 0.299997
v 1.004946 -0.013998 0.299997
v -1.004946 0.013998 0.299997
v -0.825889 0.315087 0.001020
v 0.825889 0.315087 0.001020
v 1.004946 0.013998 0.299997
v -1.004946 0.013998 -0.299997
v 1.004946 0.013998 -0.299997
v -1.004946 -0.013998 -0.299997
v -0.825889 -0.077130 -0.299997
v 0.825889 -0.077130 -0.299997
v 1.004946 -0.013998 -0.299997
v 1.110890 -0.013998 -0.299997
v 1.110890 -0.013998 0.299997
v 1.110890 0.013998 -0.299997
v 1.110890 0.013998 0.299997
v -1.110890 -0.013998 -0.299997
v -1.110890 -0.013998 0.299997
v -1.110890 0.013998 0.299997
v -1.110890 0.013998 -0.299997
vt 0.013335 0.138531
vt 0.993835 0.138531
vt 0.993835 0.091777
vt 0.013335 0.091777
vt 0.993836 0.097470
vt 0.013337 0.097470
vt 0.013337 0.144225
vt 0.993836 0.144225
vt 0.009881 0.141985
vt 0.990381 0.141985
vt 0.990381 0.095231
vt 0.009881 0.095231
vt 0.993836 0.090563
vt 0.013337 0.090563
vt 0.013337 0.137317
vt 0.993836 0.137317
vt 0.993835 0.094016
vt 0.013336 0.094016
vt 0.013336 0.140771
vt 0.993836 0.140771
vt 0.992844 0.088268
vt 0.014396 0.088268
vt 0.014396 0.020875
vt 0.992844 0.020875
vt 0.014396 0.020875
vt 0.992844 0.020875
vt 0.992844 0.088269
vt 0.014396 0.088269
vt 0.013328 0.091050
vt 0.993843 0.091050
vt 0.993844 0.137683
vt 0.013328 0.137683
vt 0.993844 0.139917
vt 0.013327 0.139917
vt 0.013327 0.093296
vt 0.993844 0.093295
vt 0.013336 0.091777
vt 0.993835 0.091777
vt 0.993836 0.138531
vt 0.013336 0.138531
vt 0.503426 0.620653
vt 0.210923 0.171014
vt 0.797923 0.171014
vt 0.798423 0.171290
vt 0.505921 0.620930
vt 0.211423 0.171290
vt 1.000066 0.679274
vt 0.908854 0.993434
vt 0.906660 0.627798
vt 0.996531 0.658901
vt 0.117267 0.993657
vt 0.119223 0.627670
vt 0.025832 0.678890
vt 0.029438 0.658484
vt 0.030075 0.663183
vt 0.120184 0.632131
vt 0.118670 0.993186
vt 0.027261 0.683077
vt 0.901062 0.632171
vt 0.902372 0.993318
vt 0.991293 0.663312
vt 0.993973 0.683094
vt 0.963740 0.953448
vt 0.881112 0.953448
vt 0.881113 0.656705
vt 0.963740 0.656705
vt 0.118888 0.953448
vt 0.118888 0.656705
vt 0.036260 0.953448
vt 0.036260 0.656705
vn 0.275490 0.541309 0.794412
vn 0.003880 0.605881 0.795546
vn 0.000902 0.606150 0.795350
vn 0.275810 0.541938 0.793871
vn -0.003880 0.605881 0.795546
vn -0.000902 0.606150 0.795350
vn -0.275490 0.541309 0.794412
vn -0.275810 0.541938 0.793871
vn -0.581407 0.813613 0.000000
vn -0.859497 0.511141 0.000000
vn -0.581196 0.813763 0.000000
vn 0.859497 0.511141 0.000000
vn 0.581408 0.813612 0.000000
vn 0.581197 0.813763 0.000000
vn 0.276988 0.544253 -0.791875
vn 0.000907 0.608755 -0.793358
vn 0.003901 0.608486 -0.793555
vn 0.276671 0.543630 -0.792414
vn -0.000907 0.608755 -0.793358
vn -0.003901 0.608486 -0.793555
vn -0.276989 0.544253 -0.791875
vn -0.276671 0.543630 -0.792413
vn -0.216274 -0.976333 0.000000
vn -0.034462 -0.999406 0.000000
vn -0.034462 -0.999406 0.000000
vn -0.216274 -0.976333 0.000000
vn 0.034462 -0.999406 0.000000
vn 0.034462 -0.999406 0.000000
vn 0.216274 -0.976333 0.000000
vn 0.216274 -0.976333 0.000000
vn 1.000000 0.000000 0.000000
vn 1.000000 0.000000 0.000000
vn 1.000000 0.000000 0.000000
vn 1.000000 0.000000 0.000000
vn -1.000000 0.000000 0.000000
vn -1.000000 0.000000 0.000000
vn -1.000000 0.000000 0.000000
vn -1.000000 0.000000 0.000000
vn 0.000000 -1.000000 0.000000
vn 0.000000 -1.000000 0.000000
vn 0.000000 0.000000 -1.000000
vn 0.000000 0.000000 -1.000000
vn 0.000000 1.000000 0.000000
vn 0.000000 1.000000 0.000000
vn 0.000000 0.000000 1.000000
vn 0.000000 0.000000 1.000000
vn 0.000000 -1.000000 0.000000
vn 0.000000 -1.000000 0.000000
vn 0.000000 0.000000 1.000000
vn 0.000000 0.000000 1.000000
vn 0.000000 1.000000 0.000000
vn 0.000000 1.000000 0.000000
vn 0.000000 0.000000 -1.000000
vn 0.000000 0.000000 -1.000000
s 1
g pCube1
usemtl lambert3SG
f 1/55/1 2/56/2 6/57/3 5/58/4
f 2/56/2 3/59/5 7/60/6 6/57/3
f 3/59/5 4/61/7 8/62/8 7/60/6
s 2
f 5/44/9 6/45/10 9/46/11
s 3
f 7/41/12 8/42/13 10/43/14
s 4
f 9/47/15 6/48/16 12/49/17 11/50/18
f 6/48/16 7/51/19 13/52/20 12/49/17
f 7/51/19 10/53/21 14/54/22 13/52/20
s 5
f 11/63/23 12/64/24 2/65/25 1/66/26
f 12/64/24 13/67/27 3/68/28 2/65/25
f 13/67/27 14/69/29 4/70/30 3/68/28
s off
f 16/25/31 15/26/32 17/27/33 18/28/34
f 19/21/35 20/22/36 21/23/37 22/24/38
s 5
f 4/37/30 14/38/29 15/39/39 16/40/40
s 4
f 14/8/22 10/7/21 17/6/41 15/5/42
s 3
f 10/29/14 8/30/13 18/31/43 17/32/44
s 1
f 8/16/8 4/15/7 16/14/45 18/13/46
s 5
f 11/20/23 1/19/26 20/18/47 19/17/48
s 1
f 1/12/1 5/11/4 21/10/49 20/9/50
s 2
f 5/33/9 9/34/11 22/35/51 21/36/52
s 4
f 9/4/15 11/3/18 19/2/53 22/1/54
