# This file uses centimeters as units for non-parametric coordinates.

mtllib tomatoSoupCan.mtl
g default
v 0.301087 -0.301751 0.081848
v 0.308939 -0.301751 -0.012977
v 0.286550 -0.301751 -0.106533
v 0.236111 -0.301751 -0.189660
v 0.162560 -0.301751 -0.254221
v 0.073096 -0.301751 -0.293898
v -0.023522 -0.301751 -0.304806
v -0.117838 -0.301751 -0.285877
v -0.200620 -0.301751 -0.238965
v -0.263763 -0.301751 -0.168661
v -0.301087 -0.301751 -0.081848
v -0.308939 -0.301751 0.012977
v -0.286550 -0.301751 0.106533
v -0.236111 -0.301751 0.189660
v -0.162560 -0.301751 0.254221
v -0.073096 -0.301751 0.293898
v 0.023522 -0.301751 0.304806
v 0.117838 -0.301751 0.285877
v 0.200620 -0.301751 0.238965
v 0.263763 -0.301751 0.168661
v 0.301087 0.301751 0.081848
v 0.308939 0.301751 -0.012977
v 0.286550 0.301751 -0.106533
v 0.236111 0.301751 -0.189660
v 0.162560 0.301751 -0.254221
v 0.073096 0.301751 -0.293898
v -0.023522 0.301751 -0.304806
v -0.117838 0.301751 -0.285877
v -0.200620 0.301751 -0.238965
v -0.263763 0.301751 -0.168661
v -0.301087 0.301751 -0.081848
v -0.308939 0.301751 0.012977
v -0.286550 0.301751 0.106533
v -0.236111 0.301751 0.189660
v -0.162560 0.301751 0.254221
v -0.073096 0.301751 0.293898
v 0.023522 0.301751 0.304806
v 0.117838 0.301751 0.285877
v 0.200620 0.301751 0.238965
v 0.263763 0.301751 0.168661
v 0.000000 -0.301751 0.000000
v 0.000000 0.301751 0.000000
vt 0.001545 0.572584
vt 0.051391 0.572584
vt 0.051391 0.992120
vt 0.001545 0.992120
vt 0.101236 0.572584
vt 0.101236 0.992120
vt 0.151082 0.572584
vt 0.151082 0.992120
vt 0.200927 0.572584
vt 0.200927 0.992120
vt 0.250772 0.572584
vt 0.250773 0.992120
vt 0.300618 0.572584
vt 0.300618 0.992120
vt 0.350464 0.572584
vt 0.350464 0.992120
vt 0.400309 0.572584
vt 0.400309 0.992120
vt 0.450155 0.572584
vt 0.450155 0.992120
vt 0.500000 0.572584
vt 0.500000 0.992120
vt 0.549846 0.572584
vt 0.549846 0.992120
vt 0.599691 0.572584
vt 0.599691 0.992120
vt 0.649537 0.572584
vt 0.649536 0.992120
vt 0.699382 0.572584
vt 0.699382 0.992120
vt 0.749227 0.572584
vt 0.749227 0.992120
vt 0.799073 0.572584
vt 0.799073 0.992120
vt 0.848918 0.572584
vt 0.848918 0.992120
vt 0.898764 0.572584
vt 0.898764 0.992120
vt 0.948609 0.572584
vt 0.948609 0.992120
vt 0.998455 0.572584
vt 0.998455 0.992120
vt 0.473460 0.123741
vt 0.507559 0.195853
vt 0.279243 0.265442
vt 0.420350 0.066512
vt 0.353427 0.029769
vt 0.279243 0.017108
vt 0.205059 0.029769
vt 0.138136 0.066512
vt 0.085026 0.123741
vt 0.050927 0.195853
vt 0.039178 0.275789
vt 0.050927 0.355727
vt 0.085026 0.427839
vt 0.138136 0.485067
vt 0.205059 0.521811
vt 0.279243 0.534471
vt 0.353427 0.521811
vt 0.420350 0.485067
vt 0.473460 0.427839
vt 0.507559 0.355727
vt 0.519308 0.275789
vt 0.516925 0.352287
vt 0.481062 0.427023
vt 0.264085 0.258718
vt 0.425204 0.486334
vt 0.354820 0.524414
vt 0.276797 0.537535
vt 0.198776 0.524414
vt 0.128391 0.486334
vt 0.072534 0.427023
vt 0.036671 0.352287
vt 0.024314 0.269441
vt 0.036671 0.186596
vt 0.072534 0.111860
vt 0.128391 0.052549
vt 0.198776 0.014469
vt 0.276797 0.001348
vt 0.354820 0.014469
vt 0.425205 0.052549
vt 0.481062 0.111860
vt 0.516925 0.186596
vt 0.529282 0.269441
vn 0.970435 0.000000 0.241361
vn 0.997036 0.000000 -0.076943
vn 0.997036 0.000000 -0.076943
vn 0.970435 0.000000 0.241361
vn 0.997036 0.000000 -0.076943
vn 0.924536 0.000000 -0.381094
vn 0.924536 0.000000 -0.381094
vn 0.997036 0.000000 -0.076943
vn 0.924536 0.000000 -0.381094
vn 0.765880 0.000000 -0.642984
vn 0.765880 0.000000 -0.642984
vn 0.924536 0.000000 -0.381094
vn 0.765880 0.000000 -0.642984
vn 0.538720 0.000000 -0.842485
vn 0.538720 0.000000 -0.842485
vn 0.765880 0.000000 -0.642984
vn 0.538720 0.000000 -0.842485
vn 0.262321 0.000000 -0.964981
vn 0.262321 0.000000 -0.964981
vn 0.538720 0.000000 -0.842485
vn 0.262321 0.000000 -0.964981
vn -0.041969 0.000000 -0.999119
vn -0.041969 0.000000 -0.999119
vn 0.262321 0.000000 -0.964981
vn -0.041969 0.000000 -0.999119
vn -0.348472 0.000000 -0.937319
vn -0.348472 0.000000 -0.937319
vn -0.041969 0.000000 -0.999119
vn -0.348472 0.000000 -0.937319
vn -0.626245 0.000000 -0.779626
vn -0.626245 0.000000 -0.779626
vn -0.348472 0.000000 -0.937319
vn -0.626245 0.000000 -0.779626
vn -0.842485 0.000000 -0.538720
vn -0.842485 0.000000 -0.538720
vn -0.626245 0.000000 -0.779626
vn -0.842485 0.000000 -0.538720
vn -0.970436 0.000000 -0.241360
vn -0.970436 0.000000 -0.241360
vn -0.842485 0.000000 -0.538720
vn -0.970436 0.000000 -0.241360
vn -0.997036 0.000000 0.076943
vn -0.997036 0.000000 0.076943
vn -0.970436 0.000000 -0.241360
vn -0.997036 0.000000 0.076943
vn -0.924536 0.000000 0.381094
vn -0.924536 0.000000 0.381094
vn -0.997036 0.000000 0.076943
vn -0.924536 0.000000 0.381094
vn -0.765880 0.000000 0.642984
vn -0.765880 0.000000 0.642984
vn -0.924536 0.000000 0.381094
vn -0.765880 0.000000 0.642984
vn -0.538720 0.000000 0.842485
vn -0.538720 0.000000 0.842485
vn -0.765880 0.000000 0.642984
vn -0.538720 0.000000 0.842485
vn -0.262321 0.000000 0.964981
vn -0.262321 0.000000 0.964981
vn -0.538720 0.000000 0.842485
vn -0.262321 0.000000 0.964981
vn 0.041969 0.000000 0.999119
vn 0.041969 0.000000 0.999119
vn -0.262321 0.000000 0.964981
vn 0.041969 0.000000 0.999119
vn 0.348472 0.000000 0.937319
vn 0.348472 0.000000 0.937319
vn 0.041969 0.000000 0.999119
vn 0.348472 0.000000 0.937319
vn 0.626245 0.000000 0.779626
vn 0.626245 0.000000 0.779626
vn 0.348472 0.000000 0.937319
vn 0.626245 0.000000 0.779626
vn 0.842484 0.000000 0.538722
vn 0.842484 0.000000 0.538722
vn 0.626245 0.000000 0.779626
vn 0.842484 0.000000 0.538722
vn 0.970435 0.000000 0.241361
vn 0.970435 0.000000 0.241361
vn 0.842484 0.000000 0.538722
vn 0.000000 -1.000000 0.000000
vn 0.000000 -1.000000 0.000000
vn 0.000000 -1.000000 0.000000
vn 0.000000 -1.000000 0.000000
vn 0.000000 -1.000000 0.000000
vn 0.000000 -1.000000 0.000000
vn 0.000000 -1.000000 0.000000
vn 0.000000 -1.000000 0.000000
vn 0.000000 -1.000000 0.000000
vn 0.000000 -1.000000 0.000000
vn 0.000000 -1.000000 0.000000
vn 0.000000 -1.000000 0.000000
vn 0.000000 -1.000000 0.000000
vn 0.000000 -1.000000 0.000000
vn 0.000000 -1.000000 0.000000
vn 0.000000 -1.000000 0.000000
vn 0.000000 -1.000000 0.000000
vn 0.000000 -1.000000 0.000000
vn 0.000000 -1.000000 0.000000
vn 0.000000 -1.000000 0.000000
vn 0.000000 -1.000000 0.000000
vn 0.000000 -1.000000 0.000000
vn 0.000000 -1.000000 0.000000
vn 0.000000 -1.000000 0.000000
vn 0.000000 -1.000000 0.000000
vn 0.000000 -1.000000 0.000000
vn 0.000000 -1.000000 0.000000
vn 0.000000 -1.000000 0.000000
vn 0.000000 -1.000000 0.000000
vn 0.000000 -1.000000 0.000000
vn 0.000000 -1.000000 0.000000
vn 0.000000 -1.000000 0.000000
vn 0.000000 -1.000000 0.000000
vn 0.000000 -1.000000 0.000000
vn 0.000000 -1.000000 0.000000
vn 0.000000 -1.000000 0.000000
vn 0.000000 -1.000000 0.000000
vn 0.000000 -1.000000 0.000000
vn 0.000000 -1.000000 0.000000
vn 0.000000 -1.000000 0.000000
vn 0.000000 -1.000000 0.000000
vn 0.000000 -1.000000 0.000000
vn 0.000000 -1.000000 0.000000
vn 0.000000 -1.000000 0.000000
vn 0.000000 -1.000000 0.000000
vn 0.000000 -1.000000 0.000000
vn 0.000000 -1.000000 0.000000
vn 0.000000 -1.000000 0.000000
vn 0.000000 -1.000000 0.000000
vn 0.000000 -1.000000 0.000000
vn 0.000000 -1.000000 0.000000
vn 0.000000 -1.000000 0.000000
vn 0.000000 -1.000000 0.000000
vn 0.000000 -1.000000 0.000000
vn 0.000000 -1.000000 0.000000
vn 0.000000 -1.000000 0.000000
vn 0.000000 -1.000000 0.000000
vn 0.000000 -1.000000 0.000000
vn 0.000000 -1.000000 0.000000
vn 0.000000 -1.000000 0.000000
vn 0.000000 1.000000 0.000000
vn 0.000000 1.000000 0.000000
vn 0.000000 1.000000 0.000000
vn 0.000000 1.000000 0.000000
vn 0.000000 1.000000 0.000000
vn 0.000000 1.000000 0.000000
vn 0.000000 1.000000 0.000000
vn 0.000000 1.000000 0.000000
vn 0.000000 1.000000 0.000000
vn 0.000000 1.000000 0.000000
vn 0.000000 1.000000 0.000000
vn 0.000000 1.000000 0.000000
vn 0.000000 1.000000 0.000000
vn 0.000000 1.000000 0.000000
vn 0.000000 1.000000 0.000000
vn 0.000000 1.000000 0.000000
vn 0.000000 1.000000 0.000000
vn 0.000000 1.000000 0.000000
vn 0.000000 1.000000 0.000000
vn 0.000000 1.000000 0.000000
vn 0.000000 1.000000 0.000000
vn 0.000000 1.000000 0.000000
vn 0.000000 1.000000 0.000000
vn 0.000000 1.000000 0.000000
vn 0.000000 1.000000 0.000000
vn 0.000000 1.000000 0.000000
vn 0.000000 1.000000 0.000000
vn 0.000000 1.000000 0.000000
vn 0.000000 1.000000 0.000000
vn 0.000000 1.000000 0.000000
vn 0.000000 1.000000 0.000000
vn 0.000000 1.000000 0.000000
vn 0.000000 1.000000 0.000000
vn 0.000000 1.000000 0.000000
vn 0.000000 1.000000 0.000000
vn 0.000000 1.000000 0.000000
vn 0.000000 1.000000 0.000000
vn 0.000000 1.000000 0.000000
vn 0.000000 1.000000 0.000000
vn 0.000000 1.000000 0.000000
vn 0.000000 1.000000 0.000000
vn 0.000000 1.000000 0.000000
vn 0.000000 1.000000 0.000000
vn 0.000000 1.000000 0.000000
vn 0.000000 1.000000 0.000000
vn 0.000000 1.000000 0.000000
vn 0.000000 1.000000 0.000000
vn 0.000000 1.000000 0.000000
vn 0.000000 1.000000 0.000000
vn 0.000000 1.000000 0.000000
vn 0.000000 1.000000 0.000000
vn 0.000000 1.000000 0.000000
vn 0.000000 1.000000 0.000000
vn 0.000000 1.000000 0.000000
vn 0.000000 1.000000 0.000000
vn 0.000000 1.000000 0.000000
vn 0.000000 1.000000 0.000000
vn 0.000000 1.000000 0.000000
vn 0.000000 1.000000 0.000000
vn 0.000000 1.000000 0.000000
s off
g tomatoSoupCan:pCylinder1
usemtl initialShadingGroup
f 1/1/1 2/2/2 22/3/3 21/4/4
f 2/2/5 3/5/6 23/6/7 22/3/8
f 3/5/9 4/7/10 24/8/11 23/6/12
f 4/7/13 5/9/14 25/10/15 24/8/16
f 5/9/17 6/11/18 26/12/19 25/10/20
f 6/11/21 7/13/22 27/14/23 26/12/24
f 7/13/25 8/15/26 28/16/27 27/14/28
f 8/15/29 9/17/30 29/18/31 28/16/32
f 9/17/33 10/19/34 30/20/35 29/18/36
f 10/19/37 11/21/38 31/22/39 30/20/40
f 11/21/41 12/23/42 32/24/43 31/22/44
f 12/23/45 13/25/46 33/26/47 32/24/48
f 13/25/49 14/27/50 34/28/51 33/26/52
f 14/27/53 15/29/54 35/30/55 34/28/56
f 15/29/57 16/31/58 36/32/59 35/30/60
f 16/31/61 17/33/62 37/34/63 36/32/64
f 17/33/65 18/35/66 38/36/67 37/34/68
f 18/35/69 19/37/70 39/38/71 38/36/72
f 19/37/73 20/39/74 40/40/75 39/38/76
f 20/39/77 1/41/78 21/42/79 40/40/80
f 2/43/81 1/44/82 41/45/83
f 3/46/84 2/43/85 41/45/86
f 4/47/87 3/46/88 41/45/89
f 5/48/90 4/47/91 41/45/92
f 6/49/93 5/48/94 41/45/95
f 7/50/96 6/49/97 41/45/98
f 8/51/99 7/50/100 41/45/101
f 9/52/102 8/51/103 41/45/104
f 10/53/105 9/52/106 41/45/107
f 11/54/108 10/53/109 41/45/110
f 12/55/111 11/54/112 41/45/113
f 13/56/114 12/55/115 41/45/116
f 14/57/117 13/56/118 41/45/119
f 15/58/120 14/57/121 41/45/122
f 16/59/123 15/58/124 41/45/125
f 17/60/126 16/59/127 41/45/128
f 18/61/129 17/60/130 41/45/131
f 19/62/132 18/61/133 41/45/134
f 20/63/135 19/62/136 41/45/137
f 1/44/138 20/63/139 41/45/140
f 21/64/141 22/65/142 42/66/143
f 22/65/144 23/67/145 42/66/146
f 23/67/147 24/68/148 42/66/149
f 24/68/150 25/69/151 42/66/152
f 25/69/153 26/70/154 42/66/155
f 26/70/156 27/71/157 42/66/158
f 27/71/159 28/72/160 42/66/161
f 28/72/162 29/73/163 42/66/164
f 29/73/165 30/74/166 42/66/167
f 30/74/168 31/75/169 42/66/170
f 31/75/171 32/76/172 42/66/173
f 32/76/174 33/77/175 42/66/176
f 33/77/177 34/78/178 42/66/179
f 34/78/180 35/79/181 42/66/182
f 35/79/183 36/80/184 42/66/185
f 36/80/186 37/81/187 42/66/188
f 37/81/189 38/82/190 42/66/191
f 38/82/192 39/83/193 42/66/194
f 39/83/195 40/84/196 42/66/197
f 40/84/198 21/64/199 42/66/200
